<?xml version="1.0" encoding="UTF-8"?>
<svg version="1.1" xmlns="http://www.w3.org/2000/svg" width="960" height="236">
<path d="M0 0 C316.8 0 633.6 0 960 0 C960 77.88 960 155.76 960 236 C643.2 236 326.4 236 0 236 C0 158.12 0 80.24 0 0 Z " fill="#FCFCFC" transform="translate(0,0)"/>
<path d="M0 0 C1.60681641 0.67095703 1.60681641 0.67095703 3.24609375 1.35546875 C14.62038006 6.54838037 20.80628047 13.99769228 26.0390625 25.23046875 C29.06726832 33.45190605 28.25353073 42.37995503 28 51 C29.98 51 31.96 51 34 51 C34.33 53.64 34.66 56.28 35 59 C35.45375 58.0925 35.9075 57.185 36.375 56.25 C39.51408684 51.68208742 43.72801967 50.19515927 49 49 C59.56046835 47.73709863 68.08083825 48.61360785 77 55 C83.6395416 60.74784272 88.43305327 69.09098102 89.16113281 77.96362305 C89.52492695 95.70704769 89.52492695 95.70704769 86 103 C85.7215625 103.680625 85.443125 104.36125 85.15625 105.0625 C81.46242618 113.46913352 75.36878614 118.53761985 67 122 C66.23429688 122.35835938 65.46859375 122.71671875 64.6796875 123.0859375 C57.22427498 125.6290374 48.27469406 124.5768491 40.8671875 122.2421875 C39 121 39 121 35 115 C34.67 125.89 34.34 136.78 34 148 C31.69 148 29.38 148 27 148 C27 151.63 27 155.26 27 159 C-12.6 159 -52.2 159 -93 159 C-93 141 -93 141 -89.5625 136.93359375 C-88.04845153 135.94525656 -86.52722279 134.96785521 -85 134 C-83.46505929 132.56913998 -81.96570138 131.0993629 -80.5 129.59765625 C-79.75878906 128.85322266 -79.01757812 128.10878906 -78.25390625 127.34179688 C-77.51011719 126.58962891 -76.76632812 125.83746094 -76 125.0625 C-75.22527344 124.28326172 -74.45054687 123.50402344 -73.65234375 122.70117188 C-71.76590495 120.80308839 -69.88261859 118.90187264 -68 117 C-72.95 116.67 -77.9 116.34 -83 116 C-83.00410889 114.66300049 -83.00821777 113.32600098 -83.01245117 111.94848633 C-83.03424542 106.98146164 -83.08853883 102.01522877 -83.15258789 97.04858398 C-83.17576522 94.90022376 -83.19016297 92.75174996 -83.19555664 90.60327148 C-83.20484791 87.51213827 -83.24584351 84.42279088 -83.29296875 81.33203125 C-83.2890361 80.37351761 -83.28510345 79.41500397 -83.28105164 78.42744446 C-83.38241128 73.78051651 -83.48193042 71.66964062 -86.40161133 67.89575195 C-89.83278528 65.39241025 -91.73267193 65.27501805 -95.84765625 65.5078125 C-100.08210236 66.47612504 -102.00898934 69.46393347 -104.25 72.9375 C-106.15838941 78.18557087 -106.19074083 83.71843696 -106.31640625 89.2421875 C-106.33718735 90.01055939 -106.35796844 90.77893127 -106.37937927 91.57058716 C-106.44433469 94.00530767 -106.50350638 96.44012847 -106.5625 98.875 C-106.6057367 100.5338642 -106.64935257 102.19271856 -106.69335938 103.8515625 C-106.8006679 107.90094077 -106.90014112 111.95040386 -107 116 C-112.94 116 -118.88 116 -125 116 C-125 95.54 -125 75.08 -125 54 C-119.06 54 -113.12 54 -107 54 C-106.67 56.64 -106.34 59.28 -106 62 C-105.319375 60.906875 -104.63875 59.81375 -103.9375 58.6875 C-101.08577596 54.68536456 -98.66665205 53.44241972 -94 52 C-92.68 52 -91.36 52 -90 52 C-90.03480469 50.99582031 -90.06960938 49.99164063 -90.10546875 48.95703125 C-89.65989722 32.23984765 -81.57255973 19.35037266 -69.98046875 8.02734375 C-52.64250101 -7.05635667 -20.37064792 -8.85561141 0 0 Z " fill="#723EAF" transform="translate(597,35)"/>
<path d="M0 0 C7.90840303 5.66265805 12.47629634 13.38118613 14.55859375 22.83203125 C15.30487172 31.92644598 15.59273202 41.48553829 11.55859375 49.83203125 C11.28015625 50.51265625 11.00171875 51.19328125 10.71484375 51.89453125 C7.02101993 60.30116477 0.92737989 65.3696511 -7.44140625 68.83203125 C-8.20710937 69.19039063 -8.9728125 69.54875 -9.76171875 69.91796875 C-17.21713127 72.46106865 -26.16671219 71.40888035 -33.57421875 69.07421875 C-35.44140625 67.83203125 -35.44140625 67.83203125 -39.44140625 61.83203125 C-39.77140625 72.72203125 -40.10140625 83.61203125 -40.44140625 94.83203125 C-47.37140625 94.83203125 -54.30140625 94.83203125 -61.44140625 94.83203125 C-61.44140625 62.82203125 -61.44140625 30.81203125 -61.44140625 -2.16796875 C-54.51140625 -2.16796875 -47.58140625 -2.16796875 -40.44140625 -2.16796875 C-40.11140625 0.47203125 -39.78140625 3.11203125 -39.44140625 5.83203125 C-38.98765625 4.92453125 -38.53390625 4.01703125 -38.06640625 3.08203125 C-30.13386364 -8.46118593 -10.48456004 -6.07450086 0 0 Z " fill="#030303" transform="translate(671.44140625,88.16796875)"/>
<path d="M0 0 C7.5731344 4.80004906 12.94372972 12.33793599 15.875 20.75 C17 26 17 26 17 39 C0.5 39 -16 39 -33 39 C-31.28183923 47.45033593 -31.28183923 47.45033593 -27 54 C-22.82182975 56.08908513 -17.55101082 55.43748035 -13 55 C-8.38038827 52.50540967 -8.02269235 51.05673088 -6 46 C0.93 46 7.86 46 15 46 C11.79954335 55.60136995 8.93534885 62.22789841 0 67 C-10.48656737 71.83995417 -21.94708539 73.02712837 -33 69.3125 C-42.23771863 65.37107338 -48.16054751 60.00471937 -52.00390625 50.5234375 C-52.73286839 48.36120197 -53.38669184 46.19731987 -54 44 C-54.495 42.515 -54.495 42.515 -55 41 C-55.98242328 27.4745446 -53.48666218 16.71386854 -44.6875 6.25 C-31.17710059 -5.06103206 -16.43782154 -7.45769621 0 0 Z " fill="#040404" transform="translate(924,88)"/>
<path d="M0 0 C1.91232422 -0.02126953 1.91232422 -0.02126953 3.86328125 -0.04296875 C10.47062688 0.35522675 17.27492575 2.25407054 22.6875 6.1875 C27.6534981 12.0241601 29.76828571 16.98411205 29.89282227 24.59863281 C29.9227401 26.21986053 29.9227401 26.21986053 29.95326233 27.87384033 C29.96997482 29.03437927 29.98668732 30.19491821 30.00390625 31.390625 C30.02468735 32.58355164 30.04546844 33.77647827 30.06687927 35.0055542 C30.13226239 38.81614423 30.19120776 42.62680314 30.25 46.4375 C30.29319589 49.02084046 30.33681052 51.60417395 30.38085938 54.1875 C30.48793237 60.52076274 30.58923174 66.85409477 30.6875 73.1875 C24.0875 73.1875 17.4875 73.1875 10.6875 73.1875 C10.0275 70.2175 9.3675 67.2475 8.6875 64.1875 C8.44 65.26 8.1925 66.3325 7.9375 67.4375 C6.74499631 70.21063358 5.88976882 71.07714264 3.203125 72.54296875 C-5.23682134 75.57129146 -13.58683654 76.92318689 -22.125 73.625 C-27.76258341 70.7860019 -31.96660134 66.05224665 -34.3125 60.1875 C-35.00349988 53.74415046 -35.16791772 47.63826298 -31.3125 42.1875 C-24.34123753 33.78097761 -14.31446974 30.37961168 -3.734375 29.33984375 C0.40656736 29.07936512 4.54074803 29.10958608 8.6875 29.1875 C8.50783321 24.9832971 8.33356219 21.33917608 6.25 17.625 C2.24012905 15.3755602 -1.81588606 15.72958105 -6.3125 16.1875 C-7.3025 16.5175 -8.2925 16.8475 -9.3125 17.1875 C-9.9725 19.8275 -10.6325 22.4675 -11.3125 25.1875 C-17.9125 25.1875 -24.5125 25.1875 -31.3125 25.1875 C-31.3125 17.74322096 -30.39746156 14.49086592 -25.546875 9.296875 C-21.09971184 5.1298481 -17.13443907 2.93408172 -11.3125 1.1875 C-10.72597656 1.00316406 -10.13945313 0.81882812 -9.53515625 0.62890625 C-6.34434913 -0.00476898 -3.25042961 0.01633382 0 0 Z " fill="#030303" transform="translate(759.3125,83.8125)"/>
<path d="M0 0 C-0.64811437 4.0183091 -1.85835333 7.7405813 -3.171875 11.578125 C-4.27001857 14.78967695 -5.30859336 18.02016008 -6.3515625 21.25 C-7 23 -7 23 -8 24 C-11.60425243 24.6238852 -15.20955412 25.19857675 -18.83007812 25.71875 C-20.90412542 26.05116338 -22.95548301 26.5182105 -25 27 C-25.99 28.485 -25.99 28.485 -27 30 C-28.7325 30.556875 -28.7325 30.556875 -30.5 31.125 C-42.34456716 35.23083 -50.81596919 48.39218701 -58.09326172 58.00415039 C-61.68019938 62.69397998 -65.58690003 67.0228475 -69.59375 71.359375 C-72.00319553 74.00350679 -74.33965719 76.68543225 -76.625 79.4375 C-77.27726562 80.21996094 -77.92953125 81.00242187 -78.6015625 81.80859375 C-80.35862972 84.12872114 -80.35862972 84.12872114 -80 88 C-78.95199219 88.47179687 -78.95199219 88.47179687 -77.8828125 88.953125 C-76.97273438 89.38109375 -76.06265625 89.8090625 -75.125 90.25 C-74.22007813 90.66765625 -73.31515625 91.0853125 -72.3828125 91.515625 C-69.70723323 93.1823793 -68.98479997 94.04560008 -68 97 C-67.5859375 99.578125 -67.5859375 99.578125 -67.375 102.25 C-67.30023438 103.14203125 -67.22546875 104.0340625 -67.1484375 104.953125 C-67.09945312 105.62859375 -67.05046875 106.3040625 -67 107 C-72.67528623 106.50216787 -76.73851732 105.29591971 -82 103 C-83.155 102.855625 -84.31 102.71125 -85.5 102.5625 C-89.015842 101.99745396 -91.10545324 100.85777417 -94.08984375 98.98828125 C-97.50553911 97.22106054 -101.23654393 96.64857746 -105 96 C-105 95.34 -105 94.68 -105 94 C-107.31 94 -109.62 94 -112 94 C-111.52405853 89.24939906 -109.28373071 86.2928818 -106.375 82.6875 C-105.6955835 81.82439209 -105.6955835 81.82439209 -105.00244141 80.94384766 C-102.02956766 77.19534999 -98.91922921 73.59446089 -95.72265625 70.03515625 C-92.90907603 66.71117599 -90.41569165 63.16139089 -87.89453125 59.61328125 C-85.99913417 56.99880569 -84.12062343 54.43674121 -82 52 C-81.34 52 -80.68 52 -80 52 C-79.979375 51.319375 -79.95875 50.63875 -79.9375 49.9375 C-78.74351926 46.19636033 -76.79200606 44.61051698 -73.97265625 41.96484375 C-71.23305733 39.23609473 -68.98080711 36.21048784 -66.67578125 33.11328125 C-65 31 -65 31 -62.98828125 29.05859375 C-60.1159781 26.08471602 -58.37037414 22.63808007 -56.3671875 19.046875 C-55.91601562 18.37140625 -55.46484375 17.6959375 -55 17 C-54.34 17 -53.68 17 -53 17 C-52.505 15.515 -52.505 15.515 -52 14 C-47.62138666 11.3024021 -43.19476271 10.23478365 -38.1875 9.375 C-33.73086022 8.93036537 -33.73086022 8.93036537 -30 7 C-28.31816052 6.76712992 -26.6287584 6.58735834 -24.9375 6.4375 C-23.55884766 6.31181641 -23.55884766 6.31181641 -22.15234375 6.18359375 C-21.08693359 6.09271484 -21.08693359 6.09271484 -20 6 C-20 5.34 -20 4.68 -20 4 C-13.31135092 1.63667732 -7.17452919 -0.21101556 0 0 Z " fill="#7C49AA" transform="translate(173,74)"/>
<path d="M0 0 C0 3.3 0 6.6 0 10 C-4 12 -4 12 -7.32421875 12.37890625 C-11.59911996 13.10123281 -14.18114362 14.59973507 -17.8125 16.9375 C-18.38419922 17.29779297 -18.95589844 17.65808594 -19.54492188 18.02929688 C-21.91718732 19.54297506 -24.00492085 21.00492085 -26 23 C-26.99 23 -27.98 23 -29 23 C-29.37511719 23.84498047 -29.37511719 23.84498047 -29.7578125 24.70703125 C-31.18832584 27.34763291 -32.92603967 29.40390685 -34.875 31.6875 C-38.54836355 36.18236121 -41.00494918 40.56611157 -43 46 C-34.03609063 44.88298504 -34.03609063 44.88298504 -25.375 42.4375 C-19.6599101 40.41362413 -13.31223127 38.58420398 -7.5234375 41.05859375 C-5.57259173 42.27528731 -3.76963522 43.53460006 -2 45 C-4.54604597 41.47618313 -4.54604597 41.47618313 -8 39 C-8 37.02 -8 35.04 -8 33 C-4.78548731 31.39274365 -1.56387464 31.94251815 2 32 C2.08150744 34.06183633 2.1394194 36.12461349 2.1875 38.1875 C2.22230469 39.33605469 2.25710937 40.48460937 2.29296875 41.66796875 C1.95379829 45.52546741 1.66909438 47.17095989 -1 50 C-4.11776918 51.15882717 -7.28529149 51.66878793 -10.5625 52.1875 C-11.41908203 52.33896484 -12.27566406 52.49042969 -13.15820312 52.64648438 C-14.89247666 52.95314674 -16.62802532 53.25268106 -18.36474609 53.54516602 C-32.61711934 55.54028032 -32.61711934 55.54028032 -43.859375 63.703125 C-45.34658444 66.6979166 -45.39935186 69.30045072 -45.625 72.625 C-46.318247 78.44427528 -46.318247 78.44427528 -49.21875 80.80859375 C-52.4443984 82.20030495 -55.59488758 83.13479695 -59 84 C-60.19238281 84.35191406 -61.38476562 84.70382813 -62.61328125 85.06640625 C-71.39129903 87.49627634 -80.22942378 88.89100022 -89.25756836 90.04931641 C-90.55126343 90.21633057 -90.55126343 90.21633057 -91.87109375 90.38671875 C-92.64380615 90.48170654 -93.41651855 90.57669434 -94.21264648 90.67456055 C-96.01778488 90.8281174 -96.01778488 90.8281174 -97 92 C-100.51862639 92.44926667 -104.03617175 92.81980165 -107.56640625 93.16210938 C-111.73748256 93.60515116 -115.13064227 94.29293041 -119 96 C-120.61609183 96.37414345 -122.24209314 96.70785053 -123.875 97 C-126.80361801 97.55208116 -129.56972324 98.16573767 -132.4375 99 C-138.53141467 100.71057254 -144.66085231 102 -151 102 C-151.22991927 97.28665497 -150.57210668 93.45430227 -149 89 C-148.01 88.505 -148.01 88.505 -147 88 C-146.64438275 85.44765849 -146.55620247 82.92131348 -146.44140625 80.34765625 C-146.29574219 79.57292969 -146.15007812 78.79820312 -146 78 C-144.515 77.01 -144.515 77.01 -143 76 C-143 77.32 -143 78.64 -143 80 C-128.71606173 78.94587635 -128.71606173 78.94587635 -114.796875 75.79296875 C-110.39134624 74.5439152 -105.89753763 73.79892774 -101.39160156 73.00219727 C-98.50256238 72.48741397 -95.78951314 71.92983771 -93 71 C-85.63429491 70.14209758 -80.69402406 71.21665364 -74.2734375 74.83203125 C-71.2420488 76.38939417 -68.36571954 76.62603116 -65 77 C-63.58385243 77.47182752 -62.17987067 77.98145246 -60.7890625 78.5234375 C-60.0770166 78.79849121 -59.3649707 79.07354492 -58.63134766 79.35693359 C-58.09300293 79.56914551 -57.5546582 79.78135742 -57 80 C-57.00523682 79.25951416 -57.01047363 78.51902832 -57.01586914 77.75610352 C-57.03682557 74.35824452 -57.04971908 70.96039919 -57.0625 67.5625 C-57.07087891 66.39783203 -57.07925781 65.23316406 -57.08789062 64.03320312 C-57.13663006 46.73070359 -57.13663006 46.73070359 -54 41 C-53.34 41 -52.68 41 -52 41 C-51.81824219 40.38511719 -51.63648437 39.77023438 -51.44921875 39.13671875 C-51.19785156 38.32847656 -50.94648437 37.52023438 -50.6875 36.6875 C-50.44386719 35.88699219 -50.20023437 35.08648437 -49.94921875 34.26171875 C-48.94669061 31.87297887 -47.89099098 30.72546657 -46 29 C-45.5875 28.278125 -45.175 27.55625 -44.75 26.8125 C-41.54346965 21.65914765 -37.30562749 17.25765392 -33 13 C-32.360625 12.319375 -31.72125 11.63875 -31.0625 10.9375 C-28.03826146 8.09654865 -25.57022002 7.15551455 -21.5625 6.0625 C-18.22224767 5.06628439 -15.91950767 3.84389958 -13 2 C-8.545997 -0.28719073 -4.91071691 -0.16646498 0 0 Z " fill="#CECECF" transform="translate(169,111)"/>
<path d="M0 0 C5.78136251 6.7684244 5.53623273 14.47389967 5 23 C2.85874244 39.79059286 -13.55871915 53.13463153 -24.87988281 64.29150391 C-27.53336953 66.90790313 -30.16992884 69.54053557 -32.8046875 72.17578125 C-34.48342477 73.84470636 -36.16307788 75.51271088 -37.84375 77.1796875 C-38.6332605 77.96697235 -39.422771 78.7542572 -40.23620605 79.56539917 C-41.32874695 80.63880051 -41.32874695 80.63880051 -42.44335938 81.73388672 C-43.40405334 82.68314529 -43.40405334 82.68314529 -44.38415527 83.65158081 C-46 85 -46 85 -48 85 C-48.01458252 83.78006348 -48.02916504 82.56012695 -48.04418945 81.30322266 C-48.10256927 76.73685757 -48.17979696 72.17096531 -48.26245117 67.60498047 C-48.29551505 65.63630908 -48.32360345 63.66754711 -48.34643555 61.69873047 C-48.38032508 58.85345186 -48.43265471 56.00898961 -48.48828125 53.1640625 C-48.49467117 52.29697662 -48.5010611 51.42989075 -48.50764465 50.53652954 C-48.67213946 43.55493652 -49.47292547 36.0585816 -54.04296875 30.52734375 C-54.75066406 30.00269531 -55.45835937 29.47804687 -56.1875 28.9375 C-57.4612381 27.96211497 -58.73299277 26.9841125 -60 26 C-60 25.67 -60 25.34 -60 25 C-52.41 25 -44.82 25 -37 25 C-36.67 21.37 -36.34 17.74 -36 14 C-34.04293997 6.46531888 -31.88351861 1.29840897 -24.9375 -2.8125 C-15.64946107 -6.56723914 -8.31126678 -5.61929896 0 0 Z " fill="#FCFBFC" transform="translate(581,63)"/>
<path d="M0 0 C7.08934489 4.97785791 10.83432275 11.2927075 12.53125 19.77734375 C12.53125 24.39734375 12.53125 29.01734375 12.53125 33.77734375 C-1.65875 33.77734375 -15.84875 33.77734375 -30.46875 33.77734375 C-28.40184305 42.96404466 -28.40184305 42.96404466 -25.34375 46.40234375 C-21.31068795 48.33119951 -17.85906502 48.57413413 -13.46875 47.77734375 C-9.54120777 45.43753136 -8.54750879 43.93486134 -6.46875 39.77734375 C-0.52875 39.77734375 5.41125 39.77734375 11.53125 39.77734375 C9.0115645 48.52993548 6.25864311 53.46244162 -1.65625 58.15234375 C-10.70273517 62.418075 -22.06843213 62.36123065 -31.65625 59.65234375 C-39.56682417 56.3085394 -44.04184616 50.47825126 -47.46875 42.77734375 C-51.11537252 33.50084786 -50.83045506 22.50932667 -46.91015625 13.34375 C-42.37710019 5.27269897 -36.54981496 -0.32222098 -27.7734375 -3.4375 C-17.72190972 -5.82562894 -9.00958382 -5.14660366 0 0 Z " fill="#050505" transform="translate(345.46875,91.22265625)"/>
<path d="M0 0 C4.99492496 4.99492496 6.19565165 10.99376219 6.33032227 17.82348633 C6.3602401 19.1743206 6.3602401 19.1743206 6.39076233 20.55244446 C6.40747482 21.5109581 6.42418732 22.46947174 6.44140625 23.45703125 C6.46218735 24.44877853 6.48296844 25.44052582 6.50437927 26.46232605 C6.56960052 29.62064899 6.62863202 32.77905288 6.6875 35.9375 C6.73071131 38.08269056 6.77432643 40.22787302 6.81835938 42.37304688 C6.92525377 47.6236156 7.02659817 52.87426552 7.125 58.125 C1.185 58.125 -4.755 58.125 -10.875 58.125 C-11.535 55.815 -12.195 53.505 -12.875 51.125 C-13.04 51.888125 -13.205 52.65125 -13.375 53.4375 C-15.13163955 56.58481252 -16.7205216 57.53444087 -20.1328125 58.609375 C-26.95929216 59.89298656 -35.00054606 60.72236259 -41.546875 58.0234375 C-46.01496841 54.88233424 -48.83067664 51.15062826 -50.875 46.125 C-51.74261092 40.42070753 -51.09687421 36.01336088 -47.875 31.125 C-42.17111679 24.47046959 -35.46968863 21.09939784 -26.875 20.125 C-22.20262279 19.97651344 -17.54769999 20.00535761 -12.875 20.125 C-12.96246284 18.68638706 -13.07065348 17.24902492 -13.1875 15.8125 C-13.24550781 15.01199219 -13.30351562 14.21148437 -13.36328125 13.38671875 C-13.97727569 10.67295706 -14.61202917 9.72687823 -16.875 8.125 C-19.04995081 7.65192544 -19.04995081 7.65192544 -21.375 7.75 C-22.53515625 7.73839844 -22.53515625 7.73839844 -23.71875 7.7265625 C-26.4422507 8.22981806 -27.22074708 8.92253535 -28.875 11.125 C-29.865 13.6 -29.865 13.6 -30.875 16.125 C-36.485 16.125 -42.095 16.125 -47.875 16.125 C-47.76882173 9.32959068 -46.67118467 5.75923451 -41.91015625 0.8515625 C-29.9487525 -9.29611592 -12.49546753 -8.14921795 0 0 Z " fill="#050505" transform="translate(412.875,92.875)"/>
<path d="M0 0 C6.69618108 4.54795398 11.56290555 10.1866017 14 18 C14 19.98 14 21.96 14 24 C7.07 24 0.14 24 -7 24 C-7.99 21.03 -8.98 18.06 -10 15 C-12.22568176 12.54845624 -13.37532938 12.10333597 -16.62109375 11.56640625 C-22.51504221 11.55721928 -22.51504221 11.55721928 -28 13.5 C-34.36389802 21.45487252 -33.84154062 31.289353 -33 41 C-32.17599023 45.78436678 -30.63858436 49.05179899 -27.9375 53.0625 C-23.67047615 55.87691999 -19.96866491 55.8676746 -15 55 C-9.72390585 52.19356694 -9.54525742 49.93893398 -7 44 C-0.07 44 6.86 44 14 44 C11.60395697 54.78219362 8.04442018 60.78526683 -1 67 C-11.34691826 71.84842505 -23.05007993 72.96149852 -33.9375 69.3125 C-43.364168 65.33173697 -48.54676865 60.10119378 -53.0390625 50.86328125 C-56.9760685 40.32167173 -56.82676666 25.54015753 -52.24609375 15.28515625 C-47.28170727 6.18118731 -40.5790517 0.29235251 -30.63671875 -3.171875 C-20.48684663 -5.48312408 -9.20477602 -5.16401064 0 0 Z " fill="#040404" transform="translate(852,88)"/>
<path d="M0 0 C0.83789062 -0.01611328 1.67578125 -0.03222656 2.5390625 -0.04882812 C8.56382001 -0.05356457 12.86429677 0.81802811 17.48828125 4.99609375 C17.96652344 5.57488281 18.44476562 6.15367188 18.9375 6.75 C19.67419922 7.61431641 19.67419922 7.61431641 20.42578125 8.49609375 C22.64142884 11.85204206 22.75066444 15.21486269 22.75439453 19.15698242 C22.75754669 20.1144487 22.76069885 21.07191498 22.76394653 22.05839539 C22.7619223 23.0845546 22.75989807 24.11071381 22.7578125 25.16796875 C22.75876923 26.22534744 22.75972595 27.28272614 22.76071167 28.37214661 C22.76139157 30.60381123 22.75955053 32.83547785 22.75537109 35.06713867 C22.75000426 38.49727774 22.7553307 41.9272868 22.76171875 45.35742188 C22.76105825 47.52343779 22.75977766 49.68945363 22.7578125 51.85546875 C22.75983673 52.88770065 22.76186096 53.91993256 22.76394653 54.98344421 C22.75921829 56.40545891 22.75921829 56.40545891 22.75439453 57.85620117 C22.75359894 58.69463058 22.75280334 59.53306 22.75198364 60.39689636 C22.625 62.3125 22.625 62.3125 21.625 63.3125 C18.76232433 63.38575168 15.924281 63.40488205 13.0625 63.375 C12.25619141 63.37048828 11.44988281 63.36597656 10.61914062 63.36132812 C8.62106244 63.34950518 6.62302217 63.33156914 4.625 63.3125 C4.62357498 62.75983963 4.62214996 62.20717926 4.62068176 61.63777161 C4.60097413 55.87837278 4.54667859 50.1200323 4.47241211 44.36108398 C4.44923478 42.21272376 4.43483703 40.06424996 4.42944336 37.91577148 C4.42015209 34.82463827 4.37915649 31.73529088 4.33203125 28.64453125 C4.3359639 27.68601761 4.33989655 26.72750397 4.34394836 25.73994446 C4.24258872 21.09301651 4.14306958 18.98214062 1.22338867 15.20825195 C-2.20778528 12.70491025 -4.10767193 12.58751805 -8.22265625 12.8203125 C-12.45710236 13.78862504 -14.38398934 16.77643347 -16.625 20.25 C-18.53338941 25.49807087 -18.56574083 31.03093696 -18.69140625 36.5546875 C-18.71218735 37.32305939 -18.73296844 38.09143127 -18.75437927 38.88308716 C-18.81933469 41.31780767 -18.87850638 43.75262847 -18.9375 46.1875 C-18.9807367 47.8463642 -19.02435257 49.50521856 -19.06835938 51.1640625 C-19.1756679 55.21344077 -19.27514112 59.26290386 -19.375 63.3125 C-25.315 63.3125 -31.255 63.3125 -37.375 63.3125 C-37.375 42.8525 -37.375 22.3925 -37.375 1.3125 C-31.435 1.3125 -25.495 1.3125 -19.375 1.3125 C-19.045 3.9525 -18.715 6.5925 -18.375 9.3125 C-18.06046875 8.83039063 -17.7459375 8.34828125 -17.421875 7.8515625 C-16.99390625 7.21992187 -16.5659375 6.58828125 -16.125 5.9375 C-15.70734375 5.31101562 -15.2896875 4.68453125 -14.859375 4.0390625 C-10.85710504 -0.6162094 -5.65781453 -0.02156179 0 0 Z " fill="#010101" transform="translate(509.375,87.6875)"/>
<path d="M0 0 C6.27 0 12.54 0 19 0 C19 21.45 19 42.9 19 65 C32.53 65 46.06 65 60 65 C60 70.28 60 75.56 60 81 C40.2 81 20.4 81 0 81 C0 54.27 0 27.54 0 0 Z " fill="#080808" transform="translate(234,70)"/>
<path d="M0 0 C6.93 0 13.86 0 21 0 C21.495 40.59 21.495 40.59 22 82 C24.31 82.66 26.62 83.32 29 84 C29 88.95 29 93.9 29 99 C25.79075291 99.10837983 22.5851973 99.18749268 19.375 99.25 C18.47136719 99.28351563 17.56773437 99.31703125 16.63671875 99.3515625 C10.91116554 99.43514722 7.43164488 99.00893414 3 95 C-0.51641091 90.50792425 -0.41207156 86.62993788 -0.34057617 81.1706543 C-0.34101425 80.29210281 -0.34145233 79.41355133 -0.34190369 78.50837708 C-0.33981883 75.61342914 -0.31650201 72.71906513 -0.29296875 69.82421875 C-0.28737172 67.8135459 -0.28310213 65.80286896 -0.28010559 63.79219055 C-0.26866527 58.50671035 -0.23920494 53.22147846 -0.20599365 47.93609619 C-0.17527533 42.54011392 -0.16159648 37.14409143 -0.14648438 31.74804688 C-0.11433453 21.16523807 -0.0615731 10.58267856 0 0 Z " fill="#020202" transform="translate(693,59)"/>
<path d="M0 0 C0 4.95 0 9.9 0 15 C-4.05273438 15.68359375 -4.05273438 15.68359375 -8.10546875 16.3671875 C-10.93901631 16.98666753 -13.39006209 17.73653183 -16 19 C-17.29042763 21.26601865 -17.29042763 21.26601865 -18 24 C-18.50732666 25.32185303 -18.50732666 25.32185303 -19.02490234 26.67041016 C-20.14410526 30.49206498 -20.35008545 34.07588069 -20.4140625 38.0234375 C-20.43342865 38.76961334 -20.4527948 39.51578918 -20.4727478 40.28457642 C-20.53212065 42.64793777 -20.5787578 45.01134897 -20.625 47.375 C-20.66321884 48.98569732 -20.7022728 50.59637506 -20.7421875 52.20703125 C-20.83934629 56.13791397 -20.91924712 60.06860967 -21 64 C-26.94 64 -32.88 64 -39 64 C-39 43.54 -39 23.08 -39 2 C-33.06 2 -27.12 2 -21 2 C-20.67 5.3 -20.34 8.6 -20 12 C-19.484375 10.7625 -18.96875 9.525 -18.4375 8.25 C-16.54235238 4.51271588 -14.77139025 2.47092821 -11.015625 0.609375 C-7.30880868 -0.5112904 -3.84263241 -0.23646969 0 0 Z " fill="#000000" transform="translate(468,87)"/>
<path d="M0 0 C5.00010219 2.91050725 8.75732391 6.28742092 10.48901367 12.02441406 C11.21265833 15.61342057 11.17401182 19.19311438 11.21875 22.84375 C11.24775391 23.6171875 11.27675781 24.390625 11.30664062 25.1875 C11.36964087 30.96413801 10.13815527 35.27067665 6.90625 40.09375 C1.87696173 44.87770714 -2.54681525 45.5764516 -9.296875 45.49609375 C-13.00816317 44.96220732 -14.91616955 43.6535724 -17.65625 41.1875 C-21.72487362 35.26146125 -22.59741064 29.14286564 -22.53125 22.09375 C-22.55123047 21.33835937 -22.57121094 20.58296875 -22.59179688 19.8046875 C-22.58643069 13.55844955 -20.98340986 8.14563805 -16.61083984 3.52758789 C-11.71934923 -0.71901223 -6.26053739 -2.70978484 0 0 Z " fill="#FAF9FA" transform="translate(653.09375,98.90625)"/>
<path d="M0 0 C0.33 0 0.66 0 1 0 C1 16.17 1 32.34 1 49 C-14.84 49 -30.68 49 -47 49 C-40.25167383 41.1269528 -40.25167383 41.1269528 -36.98583984 37.88818359 C-36.25843597 37.16408295 -35.5310321 36.4399823 -34.78158569 35.69393921 C-34.01577179 34.93642365 -33.24995789 34.17890808 -32.4609375 33.3984375 C-31.25602158 32.19920151 -31.25602158 32.19920151 -30.02676392 30.97573853 C-27.47859634 28.43971025 -24.92721262 25.90695697 -22.375 23.375 C-19.00491191 20.03154791 -15.63817368 16.68477456 -12.2734375 13.3359375 C-11.50357513 12.57437347 -10.73371277 11.81280945 -9.94052124 11.02816772 C-6.38792981 7.49185005 -3.08992208 3.95685757 0 0 Z " fill="#FAF8FB" transform="translate(609,116)"/>
<path d="M0 0 C1.43739513 -0.02712066 2.87493863 -0.04645067 4.3125 -0.0625 C5.51326172 -0.07990234 5.51326172 -0.07990234 6.73828125 -0.09765625 C9 0 9 0 12 1 C11.625 2.9375 11.625 2.9375 11 5 C10.01 5.495 10.01 5.495 9 6 C9.99 6.33 10.98 6.66 12 7 C11.67 9.64 11.34 12.28 11 15 C10.34 15 9.68 15 9 15 C9.04125 16.2375 9.0825 17.475 9.125 18.75 C9.13093907 22.14120708 8.63615177 24.01642913 7 27 C6.65458149 29.33157492 6.32205743 31.66508361 6 34 C5.690625 34.9075 5.38125 35.815 5.0625 36.75 C4.10080837 39.69164498 3.56093554 42.39288958 3.0625 45.4375 C2.27600491 50.04321523 1.04765373 53.81161737 -1 58 C-1.66 58 -2.32 58 -3 58 C-2.67 59.32 -2.34 60.64 -2 62 C-0.80117188 61.89171875 -0.80117188 61.89171875 0.421875 61.78125 C7.97042127 61.14334468 15.4261308 60.8771805 23 61 C22.29185136 64.9444541 21.43679764 67.75093648 19 71 C8.95821424 74.48205099 -3.46679555 73.12169299 -14 73 C-14.09777722 67.18225528 -13.59951449 62.59830073 -12 57 C-11.34 57 -10.68 57 -10 57 C-9.79697266 55.32744141 -9.79697266 55.32744141 -9.58984375 53.62109375 C-8.98102242 48.75801298 -8.28245918 43.91022517 -7.5625 39.0625 C-7.44068359 38.22009766 -7.31886719 37.37769531 -7.19335938 36.50976562 C-6.46827457 31.62953165 -5.57653999 26.84058486 -4.42529297 22.04223633 C-3.9793934 19.90104812 -3.74573658 17.80325055 -3.5625 15.625 C-3.04811703 10.24302999 -1.53582955 5.16772838 0 0 Z " fill="#4A494B" transform="translate(33,98)"/>
<path d="M0 0 C0.7492131 11.4571973 1.23162186 22.55539073 0 34 C-4.95 34.495 -4.95 34.495 -10 35 C-10 36.98 -10 38.96 -10 41 C-9.38125 41.2475 -8.7625 41.495 -8.125 41.75 C-5.64931313 43.20628639 -5.04874998 44.37812506 -4 47 C-8 45 -8 45 -9.81640625 43.91796875 C-15.19799667 41.6555828 -22.09368002 43.51828474 -27.375 45.5 C-33.07226611 47.62739445 -38.97514198 47.72995227 -45 48 C-44.51072954 43.97774164 -43.94351139 41.33976397 -41.375 38.1875 C-40.56869141 37.18203125 -40.56869141 37.18203125 -39.74609375 36.15625 C-38.88177734 35.08890625 -38.88177734 35.08890625 -38 34 C-37.41347656 33.2059375 -36.82695312 32.411875 -36.22265625 31.59375 C-33.13657514 27.43395577 -30.70028549 24.35014274 -26 22 C-24.47088661 20.99161171 -22.95082806 19.9694268 -21.4375 18.9375 C-15.29321598 14.75257171 -10.31258596 13.34705531 -3 12 C-2.67 8.7 -2.34 5.4 -2 2 C-8.10134798 2.33896378 -12.26911388 3.87815052 -17.60546875 6.84375 C-20.0829032 8.04003156 -22.29189335 8.57670802 -25 9 C-24.01 8.67 -23.02 8.34 -22 8 C-22 7.34 -22 6.68 -22 6 C-18.76469387 2.89410612 -15.27491798 2.08684355 -11 1 C-9.1746875 0.4121875 -9.1746875 0.4121875 -7.3125 -0.1875 C-4.07562733 -0.9814499 -3.03224991 -0.93147546 0 0 Z " fill="#F7F7F8" transform="translate(171,109)"/>
<path d="M0 0 C0.08150744 2.06183633 0.1394194 4.12461349 0.1875 6.1875 C0.23970703 7.91033203 0.23970703 7.91033203 0.29296875 9.66796875 C-0.04620171 13.52546741 -0.33090562 15.17095989 -3 18 C-6.11776918 19.15882717 -9.28529149 19.66878793 -12.5625 20.1875 C-13.41908203 20.33896484 -14.27566406 20.49042969 -15.15820312 20.64648438 C-16.89241132 20.95313518 -18.6278777 21.2527517 -20.36450195 21.54541016 C-34.47862112 23.77698435 -34.47862112 23.77698435 -46.58984375 30.90625 C-49.5525718 35.30520355 -49.62415805 40.83025558 -50 46 C-52.64 46 -55.28 46 -58 46 C-58.05786668 42.20839703 -58.09355054 38.41690689 -58.125 34.625 C-58.14175781 33.54476562 -58.15851563 32.46453125 -58.17578125 31.3515625 C-58.18222656 30.3203125 -58.18867187 29.2890625 -58.1953125 28.2265625 C-58.20578613 27.27346191 -58.21625977 26.32036133 -58.22705078 25.33837891 C-58 23 -58 23 -56 21 C-53.67526779 19.95159135 -51.35754707 18.96620782 -49 18 C-47.95714844 17.53722656 -46.91429688 17.07445312 -45.83984375 16.59765625 C-22.41627158 6.55720563 -22.41627158 6.55720563 -12 8 C-9.00632271 9.31453137 -6.51406696 10.91815085 -4 13 C-6.54604597 9.47618313 -6.54604597 9.47618313 -10 7 C-10 5.02 -10 3.04 -10 1 C-6.78548731 -0.60725635 -3.56387464 -0.05748185 0 0 Z " fill="#414143" transform="translate(171,143)"/>
<path d="M0 0 C1.85629104 0.07857317 3.71412907 0.11868308 5.57177734 0.15234375 C13.45062556 0.48191649 21.75535211 2.49059942 27.96630859 7.609375 C29.12255859 9.08984375 29.12255859 9.08984375 29.06005859 11.40234375 C27.84065739 14.89796053 26.5864559 17.30174943 24.12255859 20.08984375 C17.94217103 21.32592126 12.66646572 18.58850612 7.12255859 16.08984375 C7.12255859 15.75984375 7.12255859 15.42984375 7.12255859 15.08984375 C-4.71627529 10.90678911 -15.43243491 10.28976245 -27.87744141 12.08984375 C-29.61700799 13.82941033 -29.24934526 16.28350595 -29.43994141 18.65234375 C-29.52373047 19.66425781 -29.60751953 20.67617187 -29.69384766 21.71875 C-29.75443359 22.50121094 -29.81501953 23.28367187 -29.87744141 24.08984375 C-30.86744141 24.41984375 -31.85744141 24.74984375 -32.87744141 25.08984375 C-32.87744141 27.39984375 -32.87744141 29.70984375 -32.87744141 32.08984375 C-33.20744141 32.08984375 -33.53744141 32.08984375 -33.87744141 32.08984375 C-33.87744141 29.44984375 -33.87744141 26.80984375 -33.87744141 24.08984375 C-33.21744141 24.08984375 -32.55744141 24.08984375 -31.87744141 24.08984375 C-31.54744141 21.44984375 -31.21744141 18.80984375 -30.87744141 16.08984375 C-32.85744141 16.08984375 -34.83744141 16.08984375 -36.87744141 16.08984375 C-33.87744141 14.08984375 -33.87744141 14.08984375 -31.87744141 13.08984375 C-31.54744141 12.09984375 -31.21744141 11.10984375 -30.87744141 10.08984375 C-34.83744141 9.75984375 -38.79744141 9.42984375 -42.87744141 9.08984375 C-43.20744141 10.07984375 -43.53744141 11.06984375 -43.87744141 12.08984375 C-43.87744141 10.43984375 -43.87744141 8.78984375 -43.87744141 7.08984375 C-43.25095703 7.04085937 -42.62447266 6.991875 -41.97900391 6.94140625 C-41.16173828 6.86664063 -40.34447266 6.791875 -39.50244141 6.71484375 C-38.69033203 6.64523438 -37.87822266 6.575625 -37.04150391 6.50390625 C-34.6740995 6.26091787 -34.6740995 6.26091787 -32.87744141 4.08984375 C-21.98935488 0.24037832 -11.46381189 -0.48771801 0 0 Z " fill="#CBCBCC" transform="translate(75.87744140625,88.91015625)"/>
<path d="M0 0 C0 3.3 0 6.6 0 10 C-4 12 -4 12 -7.32421875 12.37890625 C-11.59911996 13.10123281 -14.18114362 14.59973507 -17.8125 16.9375 C-18.38419922 17.29779297 -18.95589844 17.65808594 -19.54492188 18.02929688 C-21.91718732 19.54297506 -24.00492085 21.00492085 -26 23 C-26.99 23 -27.98 23 -29 23 C-29.25007813 23.56074219 -29.50015625 24.12148437 -29.7578125 24.69921875 C-31.19610458 27.36322515 -32.93555087 29.48882039 -34.875 31.8125 C-37.26402589 34.72385771 -39.35194683 37.42730971 -41 40.8125 C-43.55527 44.88496156 -46.62817163 47.05197791 -51 49 C-51.99 49 -52.98 49 -54 49 C-53.35649614 37.41693053 -46.63160068 26.20892723 -38.22265625 18.3359375 C-36.81993233 17.21787393 -35.41049391 16.10824522 -34 15 C-33.5359375 13.9790625 -33.5359375 13.9790625 -33.0625 12.9375 C-30.75570254 8.73098698 -25.73726152 7.21609389 -21.375 5.9375 C-20.26125 5.628125 -19.1475 5.31875 -18 5 C-16.31243867 4.03567924 -14.64333504 3.03789581 -13 2 C-8.545997 -0.28719073 -4.91071691 -0.16646498 0 0 Z " fill="#48494B" transform="translate(169,111)"/>
<path d="M0 0 C0.7492131 11.4571973 1.23162186 22.55539073 0 34 C-4.95 34.495 -4.95 34.495 -10 35 C-10 36.98 -10 38.96 -10 41 C-9.38125 41.2475 -8.7625 41.495 -8.125 41.75 C-5.64931313 43.20628639 -5.04874998 44.37812506 -4 47 C-8 45 -8 45 -9.78125 43.9375 C-12.56736712 42.76026741 -14.73708249 42.80326387 -17.75 42.875 C-18.73484375 42.89304688 -19.7196875 42.91109375 -20.734375 42.9296875 C-21.48203125 42.95289063 -22.2296875 42.97609375 -23 43 C-19.11173787 39.26726836 -18.1910757 40 -12 40 C-12 32.74 -12 25.48 -12 18 C-13.98 18 -15.96 18 -18 18 C-16.70544725 15.41089449 -15.64758865 15.10468354 -13 14 C-9.68723789 13.18686748 -6.35730485 12.61845089 -3 12 C-2.67 8.7 -2.34 5.4 -2 2 C-8.10134798 2.33896378 -12.26911388 3.87815052 -17.60546875 6.84375 C-20.0829032 8.04003156 -22.29189335 8.57670802 -25 9 C-24.01 8.67 -23.02 8.34 -22 8 C-22 7.34 -22 6.68 -22 6 C-18.76469387 2.89410612 -15.27491798 2.08684355 -11 1 C-9.1746875 0.4121875 -9.1746875 0.4121875 -7.3125 -0.1875 C-4.07562733 -0.9814499 -3.03224991 -0.93147546 0 0 Z " fill="#D2D2D4" transform="translate(171,109)"/>
<path d="M0 0 C3.98271564 3.03032712 6.13237033 6.38007398 8 11 C8 12.32 8 13.64 8 15 C-1.24 15 -10.48 15 -20 15 C-17.71153846 4.70192308 -17.71153846 4.70192308 -13 1 C-8.60510581 -1.63875634 -4.85271619 -1.33688425 0 0 Z " fill="#EDECED" transform="translate(911,99)"/>
<path d="M0 0 C1.76923828 0.01353516 1.76923828 0.01353516 3.57421875 0.02734375 C4.47785156 0.03894531 5.38148438 0.05054687 6.3125 0.0625 C6.65855141 5.83002349 6.63375966 10.0806105 3.3125 15.0625 C-0.4699537 18.50782196 -3.38224582 18.585002 -8.3359375 18.40234375 C-10.6875 18.0625 -10.6875 18.0625 -13.3125 16.5625 C-15.23907408 13.05963803 -15.58756538 9.90684705 -14.6875 6.0625 C-10.29089895 0.4776284 -6.84217979 -0.06774435 0 0 Z " fill="#F9F8F8" transform="translate(761.6875,125.9375)"/>
<path d="M0 0 C0 0.66 0 1.32 0 2 C1.32 2 2.64 2 4 2 C4 2.66 4 3.32 4 4 C5.98 3.67 7.96 3.34 10 3 C8.65011683 7.04964951 6.55820938 7.74190559 3 10 C-0.40567057 12.21800006 -1.79036763 13.26761348 -2.92578125 17.234375 C-3.11720703 18.97460938 -3.11720703 18.97460938 -3.3125 20.75 C-3.45300781 21.92046875 -3.59351562 23.0909375 -3.73828125 24.296875 C-3.82464844 25.18890625 -3.91101563 26.0809375 -4 27 C-6.64 27 -9.28 27 -12 27 C-12.05786668 23.20839703 -12.09355054 19.41690689 -12.125 15.625 C-12.14175781 14.54476562 -12.15851563 13.46453125 -12.17578125 12.3515625 C-12.18222656 11.3203125 -12.18867187 10.2890625 -12.1953125 9.2265625 C-12.20578613 8.27346191 -12.21625977 7.32036133 -12.22705078 6.33837891 C-12 4 -12 4 -10 2 C-6.52270585 0.30834339 -3.85578703 -0.22033069 0 0 Z " fill="#3A3B3C" transform="translate(125,162)"/>
<path d="M0 0 C3.48150734 2.07408948 5.70756254 4.12268763 7 8 C7 9.65 7 11.3 7 13 C-0.92 13 -8.84 13 -17 13 C-15.90079845 6.40479072 -15.28337 5.49231488 -11 1 C-7.53749757 -0.73125121 -3.78591771 -0.47815224 0 0 Z " fill="#F8F7F8" transform="translate(332,100)"/>
<path d="M0 0 C1.09570312 0.00902344 2.19140625 0.01804687 3.3203125 0.02734375 C4.16335938 0.03894531 5.00640625 0.05054687 5.875 0.0625 C6.63640684 7.67656844 6.63640684 7.67656844 4.83203125 10.9609375 C1.89505786 14.49219583 0.11945709 15.94509839 -4.4375 16.375 C-8.7527243 16.00930303 -10.29786823 15.31798507 -13.125 12.0625 C-13.75 9.125 -13.75 9.125 -13.125 6.0625 C-8.81669051 0.96055455 -6.51906912 -0.0693518 0 0 Z " fill="#F5F4F5" transform="translate(394.125,123.9375)"/>
<path d="M0 0 C5.6312654 -0.31222858 9.20128708 1.49255745 13.91015625 4.203125 C16.80097115 5.78841059 19.43152909 6.66340764 22.66015625 7.328125 C23.459375 7.49570313 24.25859375 7.66328125 25.08203125 7.8359375 C25.6853125 7.95710937 26.28859375 8.07828125 26.91015625 8.203125 C26.91015625 8.863125 26.91015625 9.523125 26.91015625 10.203125 C21.06155051 9.4581505 16.07596023 8.50984333 10.91015625 5.578125 C2.64592781 1.1722745 -5.24357862 2.96367389 -13.921875 5.34375 C-19.58896237 6.881061 -25.33573421 8.0418648 -31.08984375 9.203125 C-32.12367187 9.41195312 -33.1575 9.62078125 -34.22265625 9.8359375 C-41.23431731 11.13574934 -47.96708125 11.43044721 -55.08984375 11.203125 C-55.41984375 10.213125 -55.74984375 9.223125 -56.08984375 8.203125 C-57.75327212 9.86655337 -57.45032472 11.9856959 -57.65234375 14.265625 C-57.77802734 15.64427734 -57.77802734 15.64427734 -57.90625 17.05078125 C-57.96683594 17.76105469 -58.02742188 18.47132813 -58.08984375 19.203125 C-59.07984375 19.533125 -60.06984375 19.863125 -61.08984375 20.203125 C-61.08984375 22.183125 -61.08984375 24.163125 -61.08984375 26.203125 C-61.74984375 26.533125 -62.40984375 26.863125 -63.08984375 27.203125 C-60.78257633 9.64074829 -60.78257633 9.64074829 -58.08984375 5.203125 C-56.05078125 4.40625 -56.05078125 4.40625 -54.08984375 4.203125 C-53.08984375 5.203125 -53.08984375 5.203125 -53.02734375 7.765625 C-53.04796875 8.57 -53.06859375 9.374375 -53.08984375 10.203125 C-45.69429112 9.18921859 -38.51140031 7.89720474 -31.29296875 5.99609375 C-26.28091886 4.75530579 -21.21598698 3.81607249 -16.14453125 2.8515625 C-13.19080144 2.35849495 -13.19080144 2.35849495 -11.08984375 1.203125 C-7.4174387 0.58597809 -3.70368623 0.35998446 0 0 Z " fill="#EAEAEA" transform="translate(81.08984375,179.796875)"/>
<path d="M0 0 C0.78624756 0.00088623 1.57249512 0.00177246 2.38256836 0.00268555 C3.63372437 0.02262573 3.63372437 0.02262573 4.91015625 0.04296875 C6.19515015 0.05807495 6.19515015 0.05807495 7.50610352 0.07348633 C9.99547254 0.11171215 12.48376928 0.16897615 14.97265625 0.23046875 C16.70515625 0.25753906 16.70515625 0.25753906 18.47265625 0.28515625 C26.334894 0.64062977 34.61691983 2.6406775 40.81640625 7.75 C41.97265625 9.23046875 41.97265625 9.23046875 41.91015625 11.54296875 C40.69075505 15.03858553 39.43655356 17.44237443 36.97265625 20.23046875 C30.79226869 21.46654626 25.51656337 18.72913112 19.97265625 16.23046875 C19.97265625 15.90046875 19.97265625 15.57046875 19.97265625 15.23046875 C18.59973757 14.74537082 17.22418922 14.26771362 15.84765625 13.79296875 C15.08195312 13.52613281 14.31625 13.25929688 13.52734375 12.984375 C7.20704332 11.11920989 1.12821162 11.10741438 -5.40234375 11.16796875 C-6.79259766 11.17473633 -6.79259766 11.17473633 -8.2109375 11.18164062 C-10.48314084 11.19335301 -12.75520763 11.20975503 -15.02734375 11.23046875 C-15.02734375 10.90046875 -15.02734375 10.57046875 -15.02734375 10.23046875 C-1.28798425 7.9405755 14.34212838 7.7808375 26.97265625 14.23046875 C27.63265625 14.89046875 28.29265625 15.55046875 28.97265625 16.23046875 C31.04139659 16.87299225 31.04139659 16.87299225 32.97265625 17.23046875 C32.97265625 17.89046875 32.97265625 18.55046875 32.97265625 19.23046875 C33.96265625 18.90046875 34.95265625 18.57046875 35.97265625 18.23046875 C36.34476045 16.90743158 36.67895798 15.5730894 36.97265625 14.23046875 C37.63265625 13.90046875 38.29265625 13.57046875 38.97265625 13.23046875 C38.97265625 12.24046875 38.97265625 11.25046875 38.97265625 10.23046875 C34.88162564 8.07405201 30.89756726 6.44347756 26.47265625 5.10546875 C25.38984375 4.77289063 24.30703125 4.4403125 23.19140625 4.09765625 C16.40772705 2.27001453 10.08011226 2.10647015 3.09765625 2.16796875 C1.63585937 2.17473633 1.63585937 2.17473633 0.14453125 2.18164062 C-2.24615809 2.19335969 -4.63671815 2.20976656 -7.02734375 2.23046875 C-3.98457975 0.20195942 -3.41087834 -0.01991013 0 0 Z " fill="#E3E4E5" transform="translate(63.02734375,88.76953125)"/>
<path d="M0 0 C1.43739513 -0.02712066 2.87493863 -0.04645067 4.3125 -0.0625 C5.51326172 -0.07990234 5.51326172 -0.07990234 6.73828125 -0.09765625 C9 0 9 0 12 1 C11.625 2.9375 11.625 2.9375 11 5 C10.01 5.495 10.01 5.495 9 6 C9.99 6.33 10.98 6.66 12 7 C11.67 9.64 11.34 12.28 11 15 C10.34 15 9.68 15 9 15 C9.04125 16.2375 9.0825 17.475 9.125 18.75 C9.13093907 22.14120708 8.63615177 24.01642913 7 27 C6.835 28.216875 6.67 29.43375 6.5 30.6875 C6.335 31.780625 6.17 32.87375 6 34 C5.01 34.495 5.01 34.495 4 35 C4.33 30.05 4.66 25.1 5 20 C5.99 20 6.98 20 8 20 C8 17.03 8 14.06 8 11 C5.36 11 2.72 11 0 11 C0.061875 11.928125 0.12375 12.85625 0.1875 13.8125 C0 17 0 17 -1.51171875 18.69921875 C-2.00285156 19.12847656 -2.49398438 19.55773437 -3 20 C-3.35482211 12.78528371 -2.1591338 6.87581298 0 0 Z " fill="#908E91" transform="translate(33,98)"/>
<path d="M0 0 C1.32 0.33 2.64 0.66 4 1 C2.79013682 3.85967661 1.45962299 5.61757372 -0.625 8 C-3.41380196 10.88497939 -3.41380196 10.88497939 -3 15 C-2.30132812 15.31453125 -1.60265625 15.6290625 -0.8828125 15.953125 C0.02726562 16.38109375 0.93734375 16.8090625 1.875 17.25 C2.77992187 17.66765625 3.68484375 18.0853125 4.6171875 18.515625 C7.29276677 20.1823793 8.01520003 21.04560008 9 24 C9.4140625 26.578125 9.4140625 26.578125 9.625 29.25 C9.69976562 30.14203125 9.77453125 31.0340625 9.8515625 31.953125 C9.90054688 32.62859375 9.94953125 33.3040625 10 34 C1.42857143 33.14285714 1.42857143 33.14285714 -2 31 C-1.42655063 28.13275314 -1.1385485 27.1385485 1 25 C1.99 25 2.98 25 4 25 C4 24.34 4 23.68 4 23 C2.68 22.34 1.36 21.68 0 21 C0.33 20.67 0.66 20.34 1 20 C-1.64 18.68 -4.28 17.36 -7 16 C-7 14.68 -7 13.36 -7 12 C-6.34 12 -5.68 12 -5 12 C-4.71125 11.21625 -4.4225 10.4325 -4.125 9.625 C-3 7 -3 7 -1 5 C-0.35232207 2.42938689 -0.35232207 2.42938689 0 0 Z " fill="#7C59A4" transform="translate(96,147)"/>
<path d="M0 0 C0 3 0 3 -1 4.75 C-2.38608984 7.86870213 -2.12959746 10.63046612 -2 14 C-1.01 13.67 -0.02 13.34 1 13 C1.33 12.34 1.66 11.68 2 11 C2.66 11.33 3.32 11.66 4 12 C0.9977582 18.62513936 -2.11809508 23.13493917 -9 26 C-9.99 26 -10.98 26 -12 26 C-11.42538872 15.65699698 -6.41353497 7.89019079 0 0 Z " fill="#595958" transform="translate(127,134)"/>
<path d="M0 0 C0 3.77622631 -1.05213827 4.5913843 -3.4375 7.4375 C-5.81282727 10.2734968 -7.40315561 12.30965231 -8 16 C-5.69 16 -3.38 16 -1 16 C-1 16.66 -1 17.32 -1 18 C-0.39671875 18.03738281 0.2065625 18.07476562 0.828125 18.11328125 C8.76625659 18.76625659 8.76625659 18.76625659 12 22 C-3.63636364 20.18181818 -3.63636364 20.18181818 -10 17 C-10.20086443 13.28400809 -10.1519437 12.22791555 -8 9 C-9.65 9.33 -11.3 9.66 -13 10 C-13 9.01 -13 8.02 -13 7 C-14.21816406 7.144375 -15.43632813 7.28875 -16.69140625 7.4375 C-18.31508014 7.62520796 -19.93877943 7.8126963 -21.5625 8 C-22.76229492 8.14308594 -22.76229492 8.14308594 -23.98632812 8.2890625 C-28.69452167 8.82714176 -33.26147265 9.10176703 -38 9 C-38.33 7.35 -38.66 5.7 -39 4 C-38.34 4 -37.68 4 -37 4 C-37 4.99 -37 5.98 -37 7 C-36.15179688 6.855625 -35.30359375 6.71125 -34.4296875 6.5625 C-25.81246343 5.19889531 -17.72988797 4.76118847 -9 5 C-8.67 5.99 -8.34 6.98 -8 8 C-7.236875 7.236875 -6.47375 6.47375 -5.6875 5.6875 C-2.84375 2.84375 -2.84375 2.84375 0 0 Z " fill="#CCBDDD" transform="translate(69,152)"/>
<path d="M0 0 C0 0.33 0 0.66 0 1 C-1.20398438 1.18175781 -2.40796875 1.36351563 -3.6484375 1.55078125 C-5.22406776 1.80400754 -6.79958287 2.05795109 -8.375 2.3125 C-9.1690625 2.43044922 -9.963125 2.54839844 -10.78125 2.66992188 C-11.54179687 2.79560547 -12.30234375 2.92128906 -13.0859375 3.05078125 C-13.7876709 3.16075439 -14.4894043 3.27072754 -15.21240234 3.3840332 C-17.39334262 3.93356998 -17.39334262 3.93356998 -19 7 C-20.7325 7.556875 -20.7325 7.556875 -22.5 8.125 C-34.33387716 12.22712439 -42.80778795 25.37546372 -50.07568359 34.98217773 C-54.39216582 40.62851856 -59.12875513 45.82818896 -64 51 C-64 46.93496299 -62.55772562 46.19527489 -59.75 43.3125 C-54.73353643 38.03340873 -50.39401737 32.36788782 -46.11230469 26.48364258 C-44.07530112 23.69907381 -42.13331777 21.13286813 -39.68359375 18.69140625 C-37.56010191 16.55806062 -37.53437098 14.90087106 -37 12 C-32.96206812 9.30804541 -28.70185482 8.08504342 -24 7 C-24 6.34 -24 5.68 -24 5 C-22.68 5 -21.36 5 -20 5 C-20 4.01 -20 3.02 -20 2 C-13.23514355 0.3879491 -6.95041086 -0.26618595 0 0 Z " fill="#A991C4" transform="translate(165,97)"/>
<path d="M0 0 C0 0.33 0 0.66 0 1 C-2.20795422 1.48091058 -4.416381 1.95965179 -6.625 2.4375 C-8.46964844 2.83775391 -8.46964844 2.83775391 -10.3515625 3.24609375 C-13.56017072 3.90911451 -16.76447568 4.48729384 -20 5 C-20 5.66 -20 6.32 -20 7 C-21.01320313 7.18175781 -21.01320313 7.18175781 -22.046875 7.3671875 C-23.38492188 7.61855469 -23.38492188 7.61855469 -24.75 7.875 C-26.07257813 8.11863281 -26.07257813 8.11863281 -27.421875 8.3671875 C-29.96396219 8.88480255 -29.96396219 8.88480255 -31.9609375 10.01171875 C-34.57747022 11.27988499 -36.99812883 11.55318515 -39.875 11.9375 C-44.41129745 12.64093074 -48.08668105 13.46163095 -52 16 C-52.33 16.66 -52.66 17.32 -53 18 C-53.66 18 -54.32 18 -55 18 C-55.26941406 18.72703125 -55.53882812 19.4540625 -55.81640625 20.203125 C-56.97635056 22.94411552 -58.30131027 25.26865374 -59.9375 27.75 C-60.44152344 28.52859375 -60.94554688 29.3071875 -61.46484375 30.109375 C-63 32 -63 32 -66 33 C-65.67 31.68 -65.34 30.36 -65 29 C-64.01 29 -63.02 29 -62 29 C-61.5978125 27.3603125 -61.5978125 27.3603125 -61.1875 25.6875 C-60.09337356 22.28994947 -59.61971968 21.16411626 -57 19 C-56.67 18.34 -56.34 17.68 -56 17 C-55.34 17 -54.68 17 -54 17 C-53.92007813 16.38253906 -53.84015625 15.76507813 -53.7578125 15.12890625 C-53 13 -53 13 -51.2421875 11.83984375 C-44.77992339 9.37650545 -38.34432285 7.97796455 -31.55078125 6.71484375 C-26.43066352 5.68406097 -21.66347988 4.03975418 -16.80859375 2.14453125 C-11.07925774 0.02218591 -6.08789908 -0.34315924 0 0 Z " fill="#CFBADF" transform="translate(173,73)"/>
<path d="M0 0 C0.08150744 2.06183633 0.1394194 4.12461349 0.1875 6.1875 C0.22230469 7.33605469 0.25710937 8.48460937 0.29296875 9.66796875 C-0.03509656 13.39916486 -0.54346166 15.17498091 -3 18 C-5.91796875 18.92578125 -5.91796875 18.92578125 -9.1875 19.3125 C-10.27417969 19.45300781 -11.36085937 19.59351563 -12.48046875 19.73828125 C-13.31191406 19.82464844 -14.14335937 19.91101563 -15 20 C-14 18 -14 18 -11 17 C-8.66700175 16.96045766 -6.33291811 16.95598268 -4 17 C-4.804375 16.21625 -5.60875 15.4325 -6.4375 14.625 C-9 12 -9 12 -10 10 C-8 11 -6 12 -4 13 C-6.54604597 9.47618313 -6.54604597 9.47618313 -10 7 C-10 5.02 -10 3.04 -10 1 C-6.78548731 -0.60725635 -3.56387464 -0.05748185 0 0 Z " fill="#878686" transform="translate(171,143)"/>
<path d="M0 0 C2.23465229 3.35197843 2.27108649 4.57791246 2.25 8.5 C2.25515625 9.4590625 2.2603125 10.418125 2.265625 11.40625 C2 14 2 14 0 17 C-3.125 17.6875 -3.125 17.6875 -6 18 C-9.06873977 12.72176759 -9.06873977 12.72176759 -8.75 9.375 C-8.5025 8.59125 -8.255 7.8075 -8 7 C-7.938125 6.278125 -7.87625 5.55625 -7.8125 4.8125 C-7 3 -7 3 -4 1.8125 C-3.01 1.544375 -2.02 1.27625 -1 1 C-0.67 0.67 -0.34 0.34 0 0 Z " fill="#7A46B0" transform="translate(105,117)"/>
<path d="M0 0 C0.66 0.99 1.32 1.98 2 3 C-0.34135968 8.27132934 -2.69765393 12.03731283 -7 16 C-7.66 16.99 -8.32 17.98 -9 19 C-9.66 19 -10.32 19 -11 19 C-11.24878906 19.56203125 -11.49757813 20.1240625 -11.75390625 20.703125 C-13.20459325 23.37711859 -14.9318185 25.46419538 -16.9375 27.75 C-17.62714844 28.54921875 -18.31679687 29.3484375 -19.02734375 30.171875 C-21 32 -21 32 -24 32 C-22.68188636 29.10519541 -21.23564589 26.99879209 -19.0625 24.6875 C-14.99679502 20.16055958 -11.46601584 15.29506889 -7.90844727 10.36791992 C-5.35736836 6.83604499 -2.75687854 3.37669199 0 0 Z " fill="#8055A0" transform="translate(91,126)"/>
<path d="M0 0 C0.99435406 3.09354597 0.87840996 4.90279155 0 8 C0.54269531 7.72285156 1.08539063 7.44570312 1.64453125 7.16015625 C2.35996094 6.79792969 3.07539062 6.43570313 3.8125 6.0625 C4.52019531 5.70285156 5.22789063 5.34320313 5.95703125 4.97265625 C8 4 8 4 11 3 C11 3.66 11 4.32 11 5 C13.64 4.67 16.28 4.34 19 4 C16.79360635 6.20639365 15.56473413 6.57315957 12.625 7.4375 C9.18269933 8.52627881 6.80575795 9.69527025 4 12 C2.35 12.66 0.7 13.32 -1 14 C-1.33 21.26 -1.66 28.52 -2 36 C-2.33 36 -2.66 36 -3 36 C-3.0293908 32.35418402 -3.04692874 28.70839913 -3.0625 25.0625 C-3.07087891 24.04091797 -3.07925781 23.01933594 -3.08789062 21.96679688 C-3.13980574 5.71736534 -3.13980574 5.71736534 0 0 Z " fill="#CAC8CB" transform="translate(115,152)"/>
<path d="M0 0 C0.66 0.66 1.32 1.32 2 2 C1.36191406 2.69867188 0.72382812 3.39734375 0.06640625 4.1171875 C-0.75988281 5.02726563 -1.58617188 5.93734375 -2.4375 6.875 C-3.26121094 7.77992188 -4.08492187 8.68484375 -4.93359375 9.6171875 C-7.00907942 11.81137927 -7.00907942 11.81137927 -8 14 C-2.06 15.485 -2.06 15.485 4 17 C4 17.66 4 18.32 4 19 C-2.20104812 19.27560214 -7.93184478 18.22899346 -14 17 C-13.26066044 12.58614283 -12.16761727 10.25560664 -9 7 C-7.33333333 6.33333333 -5.66666667 5.66666667 -4 5 C-1.70422757 2.48593689 -1.70422757 2.48593689 0 0 Z " fill="#754E9A" transform="translate(75,151)"/>
<path d="M0 0 C-1.39025391 0.41572266 -1.39025391 0.41572266 -2.80859375 0.83984375 C-4.60490234 1.38318359 -4.60490234 1.38318359 -6.4375 1.9375 C-8.22994141 2.47697266 -8.22994141 2.47697266 -10.05859375 3.02734375 C-12.85867545 3.70889142 -12.85867545 3.70889142 -14 5 C-16.28684338 5.2819396 -18.57363273 5.44777005 -20.87109375 5.62109375 C-23.20927403 5.82776636 -23.20927403 5.82776636 -25 8 C-26.953125 8.78125 -26.953125 8.78125 -29.25 9.5 C-30.04792969 9.75394531 -30.84585938 10.00789062 -31.66796875 10.26953125 C-32.43753906 10.51058594 -33.20710937 10.75164062 -34 11 C-35.175625 11.391875 -36.35125 11.78375 -37.5625 12.1875 C-38.366875 12.455625 -39.17125 12.72375 -40 13 C-35.55858128 6.48591921 -30.51711282 4.12229298 -22.83007812 2.55859375 C-18.85691346 1.83382583 -14.87389868 1.20441856 -10.87890625 0.61328125 C-2.36256486 -0.73320979 -2.36256486 -0.73320979 0 0 Z " fill="#B6B6B6" transform="translate(165,162)"/>
<path d="M0 0 C1.32 0.33 2.64 0.66 4 1 C4 1.66 4 2.32 4 3 C4.66 3 5.32 3 6 3 C5.45276317 6.37462715 4.9451 8.08235 3 11 C2.34 11 1.68 11 1 11 C0.67 11.99 0.34 12.98 0 14 C-0.99 14 -1.98 14 -3 14 C-4.07511878 9.60993163 -4.3257941 6.95377757 -2.0625 3.0625 C-1.381875 2.051875 -0.70125 1.04125 0 0 Z " fill="#393A39" transform="translate(128,134)"/>
<path d="M0 0 C0.7492131 11.4571973 1.23162186 22.55539073 0 34 C-2.31 33.67 -4.62 33.34 -7 33 C-7 32.34 -7 31.68 -7 31 C-5.68 31 -4.36 31 -3 31 C-2.80522261 29.37585622 -2.61940542 27.75063577 -2.4375 26.125 C-2.33308594 25.22007812 -2.22867188 24.31515625 -2.12109375 23.3828125 C-1.80325148 20.98346943 -1.80325148 20.98346943 -3 19 C-2.92993164 17.12060547 -2.92993164 17.12060547 -2.66015625 14.8671875 C-2.56669922 14.06152344 -2.47324219 13.25585938 -2.37695312 12.42578125 C-2.27318359 11.58402344 -2.16941406 10.74226563 -2.0625 9.875 C-1.96259766 9.02550781 -1.86269531 8.17601563 -1.75976562 7.30078125 C-1.51190616 5.19987723 -1.25664815 3.09984851 -1 1 C-3.64 1 -6.28 1 -9 1 C-9 0.67 -9 0.34 -9 0 C-5.5657338 -0.85856655 -3.38317487 -0.97591583 0 0 Z " fill="#DDDDDE" transform="translate(171,109)"/>
<path d="M0 0 C1.32 0 2.64 0 4 0 C4 2.31 4 4.62 4 7 C3.34 7 2.68 7 2 7 C2.04125 8.2375 2.0825 9.475 2.125 10.75 C2.13093907 14.14120708 1.63615177 16.01642913 0 19 C-0.165 20.216875 -0.33 21.43375 -0.5 22.6875 C-0.665 23.780625 -0.83 24.87375 -1 26 C-1.66 26.33 -2.32 26.66 -3 27 C-2.67 22.05 -2.34 17.1 -2 12 C-1.01 12 -0.02 12 1 12 C1 9.03 1 6.06 1 3 C-1.64 3 -4.28 3 -7 3 C-6.938125 3.928125 -6.87625 4.85625 -6.8125 5.8125 C-7 9 -7 9 -8.5 10.875 C-9.2425 11.431875 -9.2425 11.431875 -10 12 C-9.54177532 8.53058454 -9.10868317 5.32604951 -8 2 C-5.36 2 -2.72 2 0 2 C0 1.34 0 0.68 0 0 Z " fill="#595A5B" transform="translate(40,106)"/>
<path d="M0 0 C2.125 0.375 2.125 0.375 4 1 C2.68 1.33 1.36 1.66 0 2 C0.08378906 3.09699219 0.16757813 4.19398438 0.25390625 5.32421875 C0.35712189 6.77862096 0.45996694 8.23304951 0.5625 9.6875 C0.61857422 10.40873047 0.67464844 11.12996094 0.73242188 11.87304688 C0.99955159 15.77314064 1.00887596 19.21111028 0 23 C1.32 23 2.64 23 4 23 C4 20.69 4 18.38 4 16 C4.66 15.67 5.32 15.34 6 15 C6 18.3 6 21.6 6 25 C3.36 25 0.72 25 -2 25 C-2.05786668 21.20839703 -2.09355054 17.41690689 -2.125 13.625 C-2.14175781 12.54476562 -2.15851563 11.46453125 -2.17578125 10.3515625 C-2.18222656 9.3203125 -2.18867187 8.2890625 -2.1953125 7.2265625 C-2.20578613 6.27346191 -2.21625977 5.32036133 -2.22705078 4.33837891 C-2 2 -2 2 0 0 Z " fill="#606063" transform="translate(115,164)"/>
<path d="M0 0 C-6.57917449 3.46425559 -12.69057482 4.2610509 -20 4 C-20 3.34 -20 2.68 -20 2 C-13.23514355 0.3879491 -6.95041086 -0.26618595 0 0 Z M-21 4 C-20.67 4.99 -20.34 5.98 -20 7 C-21.32 7 -22.64 7 -24 7 C-24 7.66 -24 8.32 -24 9 C-28.15267176 12.11450382 -28.15267176 12.11450382 -31.3125 11.6875 C-31.869375 11.460625 -32.42625 11.23375 -33 11 C-29.17819158 6.5991297 -26.52628901 5.19194469 -21 4 Z " fill="#734C96" transform="translate(165,95)"/>
<path d="M0 0 C0.33 0 0.66 0 1 0 C0.7883445 8.3507715 -0.81241575 16.70301412 -5 24 C-8.2044149 26.25175101 -11.14722163 26.66450525 -15 27 C-16.0209375 27.12117188 -17.041875 27.24234375 -18.09375 27.3671875 C-20.73006389 27.64576706 -23.35351295 27.85409102 -26 28 C-25.67 27.34 -25.34 26.68 -25 26 C-22.13565596 25.36087308 -19.33120119 24.83055456 -16.4375 24.375 C-15.63119141 24.2409375 -14.82488281 24.106875 -13.99414062 23.96875 C-11.9973876 23.63792701 -9.9988433 23.31794962 -8 23 C-7.81066895 22.41162354 -7.62133789 21.82324707 -7.42626953 21.21704102 C-5.78368246 16.13569494 -3.91590448 11.19293287 -1.8671875 6.26171875 C-1.07120088 4.18569959 -0.48593537 2.16687508 0 0 Z " fill="#DBC9EB" transform="translate(173,74)"/>
<path d="M0 0 C0.66 0.66 1.32 1.32 2 2 C3.31747324 2.69748583 4.64914193 3.36959957 6 4 C2.05185714 4.35892208 -0.55088306 3.43717404 -4.1171875 1.79296875 C-6.59627448 0.74887195 -9.09889295 0.1310247 -11.71484375 -0.47265625 C-13.69312083 -0.92918173 -15.64881061 -1.48157444 -17.59765625 -2.05078125 C-22.56689076 -3.29813581 -27.40498893 -3.22127201 -32.5 -3.125 C-33.4178125 -3.11597656 -34.335625 -3.10695313 -35.28125 -3.09765625 C-37.52111556 -3.07432432 -39.76041183 -3.04159235 -42 -3 C-42 -3.33 -42 -3.66 -42 -4 C-28.2606405 -6.28989325 -12.63052787 -6.44963125 0 0 Z " fill="#DDDEDE" transform="translate(90,103)"/>
<path d="M0 0 C0 3.96 0 7.92 0 12 C-5.5626148 14.66038099 -10.93267948 15.96232949 -17 17 C-15.70544725 14.41089449 -14.64758865 14.10468354 -12 13 C-8.68723789 12.18686748 -5.35730485 11.61845089 -2 11 C-1.67 7.7 -1.34 4.4 -1 1 C-7.10134798 1.33896378 -11.26911388 2.87815052 -16.60546875 5.84375 C-19.0829032 7.04003156 -21.29189335 7.57670802 -24 8 C-23.01 7.67 -22.02 7.34 -21 7 C-21 6.34 -21 5.68 -21 5 C-15.16178149 -0.60468977 -7.54705155 -0.20676854 0 0 Z " fill="#A1A2A3" transform="translate(170,110)"/>
<path d="M0 0 C1.32 0.33 2.64 0.66 4 1 C2.79013682 3.85967661 1.45962299 5.61757372 -0.625 8 C-3.41380196 10.88497939 -3.41380196 10.88497939 -3 15 C-2.30132812 15.31453125 -1.60265625 15.6290625 -0.8828125 15.953125 C0.02726562 16.38109375 0.93734375 16.8090625 1.875 17.25 C2.77992187 17.66765625 3.68484375 18.0853125 4.6171875 18.515625 C7.247148 20.15396105 8.0189282 21.10137876 9 24 C9.125 27.25 9.125 27.25 9 30 C8.34 30 7.68 30 7 30 C7 27.36 7 24.72 7 22 C6.34 22 5.68 22 5 22 C5 21.34 5 20.68 5 20 C4.13375 19.896875 3.2675 19.79375 2.375 19.6875 C-1.16683123 18.96601586 -3.84312042 17.72876739 -7 16 C-7 14.68 -7 13.36 -7 12 C-6.34 12 -5.68 12 -5 12 C-4.71125 11.21625 -4.4225 10.4325 -4.125 9.625 C-3 7 -3 7 -1 5 C-0.35232207 2.42938689 -0.35232207 2.42938689 0 0 Z " fill="#AC92C6" transform="translate(96,147)"/>
<path d="M0 0 C-2.97000282 1.98000188 -5.94819966 3.46878792 -9.16015625 5 C-11.16739396 5.97833111 -11.16739396 5.97833111 -13 8 C-13.99 8 -14.98 8 -16 8 C-16.33 9.32 -16.66 10.64 -17 12 C-17.99 12 -18.98 12 -20 12 C-20 12.99 -20 13.98 -20 15 C-20.99 15.33 -21.98 15.66 -23 16 C-22.75 13.6875 -22.75 13.6875 -22 11 C-20.68662604 9.9739266 -19.35335895 8.97272675 -18 8 C-17.20376178 5.90584196 -17.20376178 5.90584196 -17 4 C-15.35 4 -13.7 4 -12 4 C-12 3.34 -12 2.68 -12 2 C-7.82262526 0.40861915 -4.46839215 -0.21278058 0 0 Z " fill="#73479B" transform="translate(139,85)"/>
<path d="M0 0 C0 0.66 0 1.32 0 2 C-0.969375 2.45375 -1.93875 2.9075 -2.9375 3.375 C-7.47714867 5.93889065 -10.47204998 9.67339954 -13.84375 13.58203125 C-16.36758788 16.41220453 -19.00121266 18.69324051 -22 21 C-22 17.06111246 -20.71256133 16.26454258 -18.0625 13.4375 C-15.19301173 10.45371254 -15.19301173 10.45371254 -13 7 C-11.35443434 5.96564444 -9.6829392 4.97236487 -8 4 C-6.948125 3.278125 -5.89625 2.55625 -4.8125 1.8125 C-2 0 -2 0 0 0 Z " fill="#D6D6D7" transform="translate(153,127)"/>
<path d="M0 0 C4.62 0 9.24 0 14 0 C14.33 1.65 14.66 3.3 15 5 C8.73 4.34 2.46 3.68 -4 3 C-2.68 2.67 -1.36 2.34 0 2 C0 1.34 0 0.68 0 0 Z " fill="#383A3B" transform="translate(36,161)"/>
<path d="M0 0 C0.66 0 1.32 0 2 0 C1.41075708 3.49669152 0.15495404 5.24547297 -2.25 7.8125 C-4.64997957 10.44457636 -6.84436099 13.07279231 -8.875 16 C-9.57625 16.99 -10.2775 17.98 -11 19 C-11.33 19 -11.66 19 -12 19 C-12.25 16.1875 -12.25 16.1875 -12 13 C-10.125 11.375 -10.125 11.375 -8 10 C-7.30062468 8.68352881 -6.63270867 7.34977849 -6 6 C-4.5 4.25 -4.5 4.25 -3 3 C-2.34 3 -1.68 3 -1 3 C-0.67 2.01 -0.34 1.02 0 0 Z " fill="#724C97" transform="translate(126,111)"/>
<path d="M0 0 C0.66 0 1.32 0 2 0 C2 0.99 2 1.98 2 3 C2.71567139 2.83701416 3.43134277 2.67402832 4.16870117 2.50610352 C6.95480197 2.00807929 9.47462208 1.8858165 12.30078125 1.90234375 C13.27724609 1.90556641 14.25371094 1.90878906 15.25976562 1.91210938 C16.26716797 1.92048828 17.27457031 1.92886719 18.3125 1.9375 C19.33923828 1.94201172 20.36597656 1.94652344 21.42382812 1.95117188 C23.94927882 1.96291816 26.47460905 1.97934435 29 2 C29 2.99 29 3.98 29 5 C28.01 5.33 27.02 5.66 26 6 C26 5.01 26 4.02 26 3 C24.78183594 3.144375 23.56367187 3.28875 22.30859375 3.4375 C20.68491986 3.62520796 19.06122057 3.8126963 17.4375 4 C16.23770508 4.14308594 16.23770508 4.14308594 15.01367188 4.2890625 C10.30547833 4.82714176 5.73852735 5.10176703 1 5 C0.67 3.35 0.34 1.7 0 0 Z " fill="#A6A5A8" transform="translate(30,156)"/>
<path d="M0 0 C-7.625 2 -7.625 2 -11 2 C-11 2.66 -11 3.32 -11 4 C-13.18652739 4.33965474 -15.37428025 4.67142477 -17.5625 5 C-19.38974609 5.2784375 -19.38974609 5.2784375 -21.25390625 5.5625 C-24.87627848 5.98555077 -28.35712046 6.07501425 -32 6 C-29.01989309 3.01989309 -25.39399178 3.0851652 -21.375 2.5 C-16.73383252 1.80420718 -12.19221059 1.09492119 -7.6640625 -0.15625 C-4.21757244 -0.94989803 -3.17673348 -0.99147017 0 0 Z " fill="#DEDFDF" transform="translate(105,195)"/>
<path d="M0 0 C0.66 0 1.32 0 2 0 C2 1.65 2 3.3 2 5 C2.61875 5.2475 3.2375 5.495 3.875 5.75 C6.35068687 7.20628639 6.95125002 8.37812506 8 11 C4 9 4 9 2.21875 7.9375 C-0.56736712 6.76026741 -2.73708249 6.80326387 -5.75 6.875 C-6.73484375 6.89304688 -7.7196875 6.91109375 -8.734375 6.9296875 C-9.48203125 6.95289063 -10.2296875 6.97609375 -11 7 C-7.24528933 3.83507795 -4.90567888 3.71698006 0 4 C0 2.68 0 1.36 0 0 Z " fill="#C2C1C2" transform="translate(159,145)"/>
<path d="M0 0 C0.33 0.66 0.66 1.32 1 2 C-11.05916473 19.03944316 -11.05916473 19.03944316 -17 23 C-15.84164381 20.15676208 -14.6782639 18.68611113 -12.4375 16.5 C-10.04837291 14.04961324 -9.5717512 13.2018067 -9 10 C-8.34 9.67 -7.68 9.34 -7 9 C-6.505 8.154375 -6.01 7.30875 -5.5 6.4375 C-5.005 5.633125 -4.51 4.82875 -4 4 C-3.34 4 -2.68 4 -2 4 C-2 3.01 -2 2.02 -2 1 C-1.34 0.67 -0.68 0.34 0 0 Z " fill="#C2ACD5" transform="translate(87,129)"/>
<path d="M0 0 C0.9456157 3.06530926 0.99933603 5.3240034 0.51171875 8.484375 C0.38216797 9.33773437 0.25261719 10.19109375 0.11914062 11.0703125 C-0.02330078 11.95460937 -0.16574219 12.83890625 -0.3125 13.75 C-0.44333984 14.61882812 -0.57417969 15.48765625 -0.70898438 16.3828125 C-1.53228084 21.68054625 -2.62051663 26.81940743 -4 32 C-4.33 32 -4.66 32 -5 32 C-4.76724225 28.8404374 -4.52740032 25.68168623 -4.27734375 22.5234375 C-4.11219518 20.42535288 -3.95541889 18.32654074 -3.81640625 16.2265625 C-3.37008157 10.45166768 -2.07586613 5.40508539 0 0 Z " fill="#AEAEAE" transform="translate(27,123)"/>
<path d="M0 0 C0 0.99 0 1.98 0 3 C-0.99 3.66 -1.98 4.32 -3 5 C-3.33 5.99 -3.66 6.98 -4 8 C-5.32 7.67 -6.64 7.34 -8 7 C-7.01 7 -6.02 7 -5 7 C-5.33 5.35 -5.66 3.7 -6 2 C-9.96 2 -13.92 2 -18 2 C-18 1.67 -18 1.34 -18 1 C-12.03325384 -0.32594359 -6.07416385 -0.0884587 0 0 Z " fill="#4D4C51" transform="translate(56,159)"/>
<path d="M0 0 C2.31 0 4.62 0 7 0 C7 2.64 7 5.28 7 8 C4.50638429 6.79618552 2.31856917 5.54571278 0 4 C0 2.68 0 1.36 0 0 Z " fill="#383636" transform="translate(162,145)"/>
<path d="M0 0 C-0.99 0.33 -1.98 0.66 -3 1 C-3.33 1.66 -3.66 2.32 -4 3 C-5.65 3 -7.3 3 -9 3 C-9.04125 3.7425 -9.0825 4.485 -9.125 5.25 C-10.34857383 9.09551776 -12.59346582 10.04305483 -16 12 C-14.125 7.25 -14.125 7.25 -13 5 C-12.34 5 -11.68 5 -11 5 C-10.67 4.01 -10.34 3.02 -10 2 C-4.03924775 -1.70891251 -4.03924775 -1.70891251 0 0 Z " fill="#926FA8" transform="translate(131,86)"/>
<path d="M0 0 C-0.33 0.99 -0.66 1.98 -1 3 C-2.7491497 3.33776684 -4.49936145 3.67003671 -6.25 4 C-7.71179688 4.2784375 -7.71179688 4.2784375 -9.203125 4.5625 C-12 5 -12 5 -16 5 C-16 4.01 -16 3.02 -16 2 C-10.61972975 0.80911014 -5.54708616 -0.2919519 0 0 Z " fill="#734C99" transform="translate(159,79)"/>
<path d="M0 0 C0.33 0.99 0.66 1.98 1 3 C-0.546875 5.48046875 -0.546875 5.48046875 -2.75 8.1875 C-3.46671875 9.08855469 -4.1834375 9.98960937 -4.921875 10.91796875 C-5.95054688 11.94857422 -5.95054688 11.94857422 -7 13 C-7.99 13 -8.98 13 -10 13 C-9.34 11.35 -8.68 9.7 -8 8 C-7.34 8 -6.68 8 -6 8 C-5.938125 7.4225 -5.87625 6.845 -5.8125 6.25 C-4.67972699 3.11309013 -2.65802405 1.90832496 0 0 Z " fill="#724C99" transform="translate(107,135)"/>
<path d="M0 0 C0 5.30480701 -1.23780802 8.51143803 -4 13 C-4.69579454 15.19130534 -4.69579454 15.19130534 -5 17 C-4.34 17.33 -3.68 17.66 -3 18 C-4.32 18.33 -5.64 18.66 -7 19 C-6.6335348 12.40362635 -4.85986191 4.85986191 0 0 Z " fill="#646463" transform="translate(122,141)"/>
<path d="M0 0 C0.66 0.33 1.32 0.66 2 1 C0.87895467 2.31587941 -0.24696965 3.62760353 -1.375 4.9375 C-2.00148437 5.66839844 -2.62796875 6.39929688 -3.2734375 7.15234375 C-5 9 -5 9 -7 10 C-8.13350534 12.01669827 -8.13350534 12.01669827 -9 14 C-9.99 14 -10.98 14 -12 14 C-10.41332422 10.09714233 -7.86649519 7.66479018 -4.875 4.75 C-3.96492187 3.85796875 -3.05484375 2.9659375 -2.1171875 2.046875 C-1.41851562 1.37140625 -0.71984375 0.6959375 0 0 Z " fill="#E9DAF4" transform="translate(135,108)"/>
<path d="M0 0 C0 0.33 0 0.66 0 1 C-0.94101563 1.19335938 -1.88203125 1.38671875 -2.8515625 1.5859375 C-4.09679687 1.84632812 -5.34203125 2.10671875 -6.625 2.375 C-7.85476562 2.63023438 -9.08453125 2.88546875 -10.3515625 3.1484375 C-13.9765448 3.93172425 -13.9765448 3.93172425 -17.3125 5.125 C-20.11469044 6.03734107 -21.29521227 6.04030297 -24 5 C-15.9700623 0.58353426 -8.98564719 -0.33143781 0 0 Z " fill="#DAC7E8" transform="translate(173,73)"/>
<path d="M0 0 C0.33 0 0.66 0 1 0 C1.26247689 7.87430684 1.26247689 7.87430684 -1 12 C-1.165 13.216875 -1.33 14.43375 -1.5 15.6875 C-1.665 16.780625 -1.83 17.87375 -2 19 C-2.66 19.33 -3.32 19.66 -4 20 C-3.67 15.05 -3.34 10.1 -3 5 C-2.01 5 -1.02 5 0 5 C0 3.35 0 1.7 0 0 Z " fill="#737475" transform="translate(41,113)"/>
<path d="M0 0 C0.66 0 1.32 0 2 0 C1.75 3.375 1.75 3.375 1 7 C-1.5335908 8.94241961 -2.78187214 9 -6 9 C-4.4722133 5.56247993 -2.49818944 2.81046312 0 0 Z " fill="#8A62A3" transform="translate(108,105)"/>
<path d="M0 0 C-2.16675923 2.16675923 -3.37825294 2.60135806 -6.25 3.5 C-7.04792969 3.75394531 -7.84585938 4.00789062 -8.66796875 4.26953125 C-9.43753906 4.51058594 -10.20710937 4.75164062 -11 5 C-12.7634375 5.5878125 -12.7634375 5.5878125 -14.5625 6.1875 C-15.366875 6.455625 -16.17125 6.72375 -17 7 C-14.78279979 3.60029301 -13.39919243 1.49422025 -9.51171875 0.12109375 C-2.61310133 -1.30655067 -2.61310133 -1.30655067 0 0 Z " fill="#D6D7D5" transform="translate(142,168)"/>
<path d="M0 0 C6.30267439 0.36776168 11.33251843 1.16625922 17 4 C17 4.66 17 5.32 17 6 C19.31 6 21.62 6 24 6 C24.33 6.66 24.66 7.32 25 8 C19.43580386 7.7476555 15.52176512 7.01775978 10.83984375 3.98828125 C7.47437469 2.18050275 3.73514948 1.64369923 0 1 C0 0.67 0 0.34 0 0 Z " fill="#977BB5" transform="translate(68,169)"/>
<path d="M0 0 C2.20018532 6.64736842 -0.61084969 14.68581705 -3 21 C-3.33 21 -3.66 21 -4 21 C-4.21544006 15.76884607 -3.52370193 11.56214697 -2 6.5625 C-1.62875 5.32628906 -1.2575 4.09007812 -0.875 2.81640625 C-0.58625 1.88699219 -0.2975 0.95757812 0 0 Z " fill="#8E8E8E" transform="translate(36,134)"/>
<path d="M0 0 C0 3.63 0 7.26 0 11 C-0.99 11.33 -1.98 11.66 -3 12 C-3 14.31 -3 16.62 -3 19 C-3.33 19 -3.66 19 -4 19 C-4 16.36 -4 13.72 -4 11 C-3.34 11 -2.68 11 -2 11 C-1.67 8.36 -1.34 5.72 -1 3 C-2.98 3 -4.96 3 -7 3 C-2.5 0 -2.5 0 0 0 Z " fill="#D3D5D6" transform="translate(46,102)"/>
<path d="M0 0 C0.33 0 0.66 0 1 0 C0.22095672 10.55808656 0.22095672 10.55808656 -2 15 C-2.66 15 -3.32 15 -4 15 C-4.33 16.65 -4.66 18.3 -5 20 C-5.625 18.1875 -5.625 18.1875 -6 16 C-5.34 15.01 -4.68 14.02 -4 13 C-3.24464834 10.78632342 -2.54099411 8.55468018 -1.875 6.3125 C-1.52179688 5.13300781 -1.16859375 3.95351562 -0.8046875 2.73828125 C-0.53914062 1.83464844 -0.27359375 0.93101563 0 0 Z " fill="#C5B0DB" transform="translate(173,74)"/>
<path d="M0 0 C-0.99 0.33 -1.98 0.66 -3 1 C-3 1.66 -3 2.32 -3 3 C-8.05002222 4.03590199 -12.87416389 4.10251672 -18 4 C-15.07675293 2.05116862 -13.48916982 1.51920273 -10.125 0.875 C-8.86042969 0.62363281 -8.86042969 0.62363281 -7.5703125 0.3671875 C-5.00848085 0.00121155 -2.58390011 -0.06482904 0 0 Z " fill="#656468" transform="translate(159,151)"/>
<path d="M0 0 C0.66 0 1.32 0 2 0 C1.49942848 4.38000076 0.06806466 6.84169815 -3 10 C-3.99 10 -4.98 10 -6 10 C-4.34643078 6.41726669 -2.32019297 3.19026533 0 0 Z " fill="#73479C" transform="translate(94,148)"/>
<path d="M0 0 C1.36081069 4.35266397 0.22914188 7.74161813 -1 12 C-1.25330078 12.99193359 -1.25330078 12.99193359 -1.51171875 14.00390625 C-2.29443711 17.003283 -2.77011924 18.77011924 -5 21 C-4.85950482 19.52031676 -4.71245174 18.04125484 -4.5625 16.5625 C-4.48128906 15.73878906 -4.40007813 14.91507813 -4.31640625 14.06640625 C-4 12 -4 12 -3 11 C-2.63157566 9.52918096 -2.30421576 8.04792853 -2 6.5625 C-1.50571219 4.15670855 -1.09957877 2.19915754 0 0 Z " fill="#D1D2D2" transform="translate(41,121)"/>
<path d="M0 0 C0.66 0 1.32 0 2 0 C2 1.32 2 2.64 2 4 C-2.11111111 8 -2.11111111 8 -6 8 C-5.67 6.35 -5.34 4.7 -5 3 C-3.68 3 -2.36 3 -1 3 C-0.67 2.01 -0.34 1.02 0 0 Z " fill="#383939" transform="translate(123,150)"/>
<path d="M0 0 C2.64 0 5.28 0 8 0 C8.33 0.99 8.66 1.98 9 3 C4.545 3.495 4.545 3.495 0 4 C0 2.68 0 1.36 0 0 Z " fill="#3C3A3D" transform="translate(34,99)"/>
<path d="M0 0 C-1.28519565 2.86697492 -2.57129254 4.97607712 -5 7 C-5.66 7 -6.32 7 -7 7 C-7.33 5.68 -7.66 4.36 -8 3 C-4.93882432 0.37613513 -4.26826873 0 0 0 Z " fill="#9175B0" transform="translate(135,107)"/>
<path d="M0 0 C-4.18461538 4.92307692 -4.18461538 4.92307692 -8.3125 5.3125 C-9.199375 5.209375 -10.08625 5.10625 -11 5 C-11.33 4.34 -11.66 3.68 -12 3 C-10.35 3 -8.7 3 -7 3 C-7 2.34 -7 1.68 -7 1 C-4.53721199 -0.231394 -2.7204945 -0.07159196 0 0 Z " fill="#38373B" transform="translate(139,158)"/>
<path d="M0 0 C0.33 0 0.66 0 1 0 C1.02688151 1.64574566 1.04634123 3.29161413 1.0625 4.9375 C1.07410156 5.85402344 1.08570313 6.77054687 1.09765625 7.71484375 C1 10 1 10 0 11 C-1.66617115 11.04063832 -3.33388095 11.042721 -5 11 C-4.67 10.01 -4.34 9.02 -4 8 C-3.34 8 -2.68 8 -2 8 C-1.855625 6.865625 -1.71125 5.73125 -1.5625 4.5625 C-1 1 -1 1 0 0 Z " fill="#7C59A0" transform="translate(166,86)"/>
<path d="M0 0 C3.80718548 0.72753266 7.55485569 1.61276572 11.3125 2.5625 C12.38113281 2.83191406 13.44976562 3.10132813 14.55078125 3.37890625 C15.76314453 3.68634766 15.76314453 3.68634766 17 4 C17 4.66 17 5.32 17 6 C10.84431924 5.06898067 5.39154257 4.20578207 0 1 C0 0.67 0 0.34 0 0 Z " fill="#DFDEE0" transform="translate(91,184)"/>
<path d="M0 0 C0 0.66 0 1.32 0 2 C-0.66 2 -1.32 2 -2 2 C-2 2.66 -2 3.32 -2 4 C-3.98 4 -5.96 4 -8 4 C-8.33 4.66 -8.66 5.32 -9 6 C-9.99 5.34 -10.98 4.68 -12 4 C-2.7826087 0 -2.7826087 0 0 0 Z " fill="#616064" transform="translate(134,157)"/>
<path d="M0 0 C0.33 0 0.66 0 1 0 C1.14285714 7.42857143 1.14285714 7.42857143 0 11 C1.65 11 3.3 11 5 11 C2 13 2 13 -2 13 C-2.23509196 8.18061476 -1.45184478 4.53701494 0 0 Z " fill="#DBDBDB" transform="translate(20,200)"/>
<path d="M0 0 C0.33 0.66 0.66 1.32 1 2 C1.66 2 2.32 2 3 2 C1.75651745 5.73044765 0.19286425 6.79540326 -3 9 C-3.99 9 -4.98 9 -6 9 C-6.33 9.66 -6.66 10.32 -7 11 C-7 10.01 -7 9.02 -7 8 C-6.401875 7.79375 -5.80375 7.5875 -5.1875 7.375 C-2.18981233 5.49073918 -1.38638224 3.18867916 0 0 Z " fill="#5A5A5A" transform="translate(146,125)"/>
<path d="M0 0 C-0.56589844 0.20496094 -1.13179687 0.40992187 -1.71484375 0.62109375 C-2.44832031 0.89050781 -3.18179688 1.15992187 -3.9375 1.4375 C-4.66839844 1.70433594 -5.39929688 1.97117187 -6.15234375 2.24609375 C-7.98305678 2.85386948 -7.98305678 2.85386948 -9 4 C-11.67058851 4.14115161 -14.32432238 4.04247107 -17 4 C-15.66666667 3.33333333 -14.33333333 2.66666667 -13 2 C-12.38125 1.649375 -11.7625 1.29875 -11.125 0.9375 C-7.22000119 -0.78529359 -4.06152141 -1.35384047 0 0 Z " fill="#EAE9EB" transform="translate(50,92)"/>
<path d="M0 0 C0.99 0 1.98 0 3 0 C2.34 1.65 1.68 3.3 1 5 C-1.64 4.67 -4.28 4.34 -7 4 C-6.67 3.34 -6.34 2.68 -6 2 C-4.02 2 -2.04 2 0 2 C0 1.34 0 0.68 0 0 Z " fill="#6E4D8E" transform="translate(169,75)"/>
<path d="M0 0 C1.32 0.33 2.64 0.66 4 1 C2.63629701 3.99220268 1.05091917 6.29026529 -1.125 8.75 C-1.93324219 9.67039063 -1.93324219 9.67039063 -2.7578125 10.609375 C-3.16773437 11.06828125 -3.57765625 11.5271875 -4 12 C-4 9 -4 9 -2.5625 7.125 C-0.7989601 4.72658573 -0.40521854 2.91757352 0 0 Z " fill="#997BB7" transform="translate(96,147)"/>
<path d="M0 0 C-0.97528737 1.33617352 -1.95533319 2.6688751 -2.9375 4 C-3.48277344 4.7425 -4.02804688 5.485 -4.58984375 6.25 C-5.28787109 7.11625 -5.28787109 7.11625 -6 8 C-6.33 8 -6.66 8 -7 8 C-7.25 5.1875 -7.25 5.1875 -7 2 C-4.34311663 -0.84011671 -3.7870049 -1.26233497 0 0 Z " fill="#7055A2" transform="translate(121,122)"/>
<path d="M0 0 C0.33 0.99 0.66 1.98 1 3 C-2.39631308 4.04501941 -5.46501595 4 -9 4 C-10.67453799 4.291224 -12.34550895 4.61070799 -14 5 C-13.01 4.67 -12.02 4.34 -11 4 C-11 3.34 -11 2.68 -11 2 C-5.555 1.01 -5.555 1.01 0 0 Z " fill="#7F5BA0" transform="translate(142,82)"/>
<path d="M0 0 C-0.48210937 0.39832031 -0.96421875 0.79664063 -1.4609375 1.20703125 C-2.40839844 2.00173828 -2.40839844 2.00173828 -3.375 2.8125 C-4.00148438 3.33457031 -4.62796875 3.85664063 -5.2734375 4.39453125 C-7.2221048 6.08225739 -7.2221048 6.08225739 -9 9 C-8.47731534 6.23723823 -7.89130413 3.6739124 -7 1 C-2.55696203 -1.27848101 -2.55696203 -1.27848101 0 0 Z " fill="#686A68" transform="translate(130,170)"/>
<path d="M0 0 C-0.99 1.485 -0.99 1.485 -2 3 C-3.9453125 3.29296875 -3.9453125 3.29296875 -6.125 3.1875 C-7.40375 3.125625 -8.6825 3.06375 -10 3 C-10 2.34 -10 1.68 -10 1 C-3.375 -1.125 -3.375 -1.125 0 0 Z " fill="#323333" transform="translate(146,162)"/>
<path d="M0 0 C1.0326802 2.78823655 1.04509293 3.8677274 0.0625 6.75 C-0.288125 7.4925 -0.63875 8.235 -1 9 C-0.01 9 0.98 9 2 9 C2 9.99 2 10.98 2 12 C0.68 12 -0.64 12 -2 12 C-2.28571429 3.42857143 -2.28571429 3.42857143 0 0 Z " fill="#D3D6D8" transform="translate(115,152)"/>
<path d="M0 0 C0 2.66053211 -0.19335496 4.49940039 -1 7 C-1.66 7.66 -2.32 8.32 -3 9 C-3.99 9 -4.98 9 -6 9 C-4.47291037 5.56404834 -2.40072955 2.88087546 0 0 Z " fill="#8865AB" transform="translate(73,149)"/>
<path d="M0 0 C4.62 0 9.24 0 14 0 C14 0.99 14 1.98 14 3 C13.01 3.33 12.02 3.66 11 4 C11 3.01 11 2.02 11 1 C7.37 1 3.74 1 0 1 C0 0.67 0 0.34 0 0 Z " fill="#97969D" transform="translate(45,158)"/>
<path d="M0 0 C-0.99 0.33 -1.98 0.66 -3 1 C-3.33 1.66 -3.66 2.32 -4 3 C-6.3140622 3.73075648 -8.64828869 4.40138258 -11 5 C-10 2 -10 2 -7.1875 0.25 C-4.03596914 -0.98589446 -3.03070628 -1.28222189 0 0 Z " fill="#A48ABF" transform="translate(131,86)"/>
<path d="M0 0 C0.99 0 1.98 0 3 0 C2.875 1.875 2.875 1.875 2 4 C-1.0625 5.25 -1.0625 5.25 -4 6 C-2.1875 3 -2.1875 3 0 0 Z " fill="#7F5C9D" transform="translate(85,134)"/>
<path d="M0 0 C0 4.05345102 -1.58160112 5.8215329 -4 9 C-4.99 9.33 -5.98 9.66 -7 10 C-6.67 8.68 -6.34 7.36 -6 6 C-5.01 6 -4.02 6 -3 6 C-2.690625 5.195625 -2.38125 4.39125 -2.0625 3.5625 C-1 1 -1 1 0 0 Z " fill="#BEA4D0" transform="translate(114,96)"/>
<path d="M0 0 C3.3 0.33 6.6 0.66 10 1 C10 1.99 10 2.98 10 4 C6.58978257 3.21302675 3.31114834 2.12880057 0 1 C0 0.67 0 0.34 0 0 Z " fill="#704E92" transform="translate(95,176)"/>
<path d="M0 0 C0.33 0.99 0.66 1.98 1 3 C3.64 3 6.28 3 9 3 C7.71034824 4.37562854 6.37310707 5.70766393 5 7 C4.34 7 3.68 7 3 7 C3 6.01 3 5.02 3 4 C2.01 4 1.02 4 0 4 C0 2.68 0 1.36 0 0 Z " fill="#ACB3B6" transform="translate(114,157)"/>
<path d="M0 0 C0.98120464 3.05263664 0.98120464 4.94736336 0 8 C0.66 8.33 1.32 8.66 2 9 C0.68 9.33 -0.64 9.66 -2 10 C-1.125 2.25 -1.125 2.25 0 0 Z " fill="#828586" transform="translate(117,150)"/>
<path d="M0 0 C0.99 0 1.98 0 3 0 C2.67 2.31 2.34 4.62 2 7 C1.34 7 0.68 7 0 7 C-0.38133299 5.0085944 -0.71325582 3.00720923 -1 1 C-0.67 0.67 -0.34 0.34 0 0 Z " fill="#323334" transform="translate(32,133)"/>
<path d="M0 0 C1.32 0.33 2.64 0.66 4 1 C4 1.66 4 2.32 4 3 C4.66 3 5.32 3 6 3 C6 3.99 6 4.98 6 6 C5.01 5.67 4.02 5.34 3 5 C3 4.34 3 3.68 3 3 C2.01 3 1.02 3 0 3 C0 2.01 0 1.02 0 0 Z " fill="#343534" transform="translate(128,134)"/>
<path d="M0 0 C0.99 0 1.98 0 3 0 C2.34 2.31 1.68 4.62 1 7 C0.34 6.34 -0.32 5.68 -1 5 C-1.99 5.495 -1.99 5.495 -3 6 C-2 4 -1 2 0 0 Z " fill="#EEE8F4" transform="translate(58,161)"/>
<path d="M0 0 C0 3.51716303 -0.82445585 4.37121748 -3 7 C-3.66 6.67 -4.32 6.34 -5 6 C-4.75 4.125 -4.75 4.125 -4 2 C-1.9375 0.75 -1.9375 0.75 0 0 Z " fill="#714B95" transform="translate(85,138)"/>
<path d="M0 0 C0.33 0.99 0.66 1.98 1 3 C1.66 3 2.32 3 3 3 C3 3.66 3 4.32 3 5 C4.65 5 6.3 5 8 5 C8 5.33 8 5.66 8 6 C5.36 6 2.72 6 0 6 C0 4.02 0 2.04 0 0 Z " fill="#A7A5A8" transform="translate(32,101)"/>
</svg>
