<svg xmlns="http://www.w3.org/2000/svg" width="409" height="123" viewBox="0 0 409 123">
<g>
<path d="M 97.50 24.82 L 96.50 69.50 L 80.97 70.08 L 81.50 7.50 L 95.50 7.50 L 96.13 16.28 L 98.59 12.65 C101.76,7.99 105.69,6.00 111.70,6.00 C117.49,6.01 122.24,8.62 124.54,13.08 L 126.18 16.24 L 129.26 12.50 C137.10,2.99 151.96,4.08 157.02,14.54 C158.90,18.43 159.02,20.37 158.77,44.10 L 158.50 69.50 L 143.50 69.50 L 143.23 46.89 C142.98,25.75 142.83,24.16 140.97,22.47 C138.23,19.99 133.38,20.17 130.69,22.86 C128.60,24.95 128.48,26.07 128.00,47.28 L 127.50 69.50 L 112.50 69.50 L 112.00 46.66 C111.51,24.14 111.47,23.79 109.14,21.91 C106.00,19.37 103.69,19.50 100.31,22.41 ZM 320.07 68.94 C316.26,70.86 308.79,72.08 305.50,71.33 C293.14,68.49 286.73,61.30 283.95,47.17 C280.70,30.63 286.57,14.50 297.93,8.75 C310.86,2.20 325.07,7.26 331.68,20.78 C334.10,25.71 334.53,27.95 334.83,37.00 C335.13,45.95 334.86,48.37 332.97,53.38 C330.45,60.09 325.28,66.32 320.07,68.94 ZM 194.95 70.02 C190.16,71.39 182.08,71.18 178.42,69.58 C166.66,64.46 166.30,44.12 177.84,36.49 C181.83,33.85 192.82,31.05 199.30,31.02 L 203.10 31.00 L 202.80 25.85 C202.55,21.59 202.03,20.35 199.77,18.67 C195.75,15.68 190.34,17.21 187.09,22.25 C184.99,25.49 184.18,25.98 181.08,25.88 C179.11,25.82 176.15,25.46 174.50,25.10 C171.89,24.52 171.54,24.05 171.81,21.47 C172.34,16.33 176.41,11.44 182.70,8.35 C187.61,5.95 189.73,5.51 196.50,5.52 C203.03,5.52 205.41,5.98 209.45,8.01 C218.45,12.54 219.84,16.98 219.95,41.50 C220.00,51.67 220.31,54.00 222.00,56.77 C223.10,58.57 224.00,60.64 224.00,61.37 C224.00,62.82 214.76,71.00 213.12,71.00 C212.55,71.00 210.67,69.22 208.92,67.05 L 205.75 63.11 L 202.06 66.07 C200.04,67.70 196.83,69.47 194.95,70.02 ZM 43.73 69.47 C38.81,71.52 30.34,71.42 26.02,69.25 C16.54,64.48 14.30,49.98 21.57,40.35 C24.91,35.92 31.28,33.17 41.61,31.68 L 50.50 30.40 L 50.80 25.90 C51.17,20.22 48.68,17.55 43.00,17.55 C38.85,17.55 35.38,19.91 33.91,23.75 C33.19,25.62 32.33,25.98 28.77,25.90 C21.50,25.73 19.47,24.76 19.71,21.54 C20.08,16.53 24.62,11.07 30.82,8.19 C42.24,2.89 58.69,5.40 64.45,13.32 C66.29,15.86 66.55,18.03 67.00,34.82 C67.46,52.16 67.66,53.73 69.75,56.65 C70.99,58.39 72.00,60.45 72.00,61.23 C72.00,62.62 62.50,71.00 60.92,71.00 C60.48,71.00 58.64,69.25 56.85,67.11 L 53.58 63.22 L 50.49 65.58 C48.78,66.88 45.74,68.63 43.73,69.47 ZM 360.01 50.75 L 360.00 70.00 L 352.47 70.00 C347.33,70.00 344.78,69.60 344.45,68.74 C344.19,68.05 344.09,53.98 344.23,37.49 L 344.50 7.50 L 351.70 7.21 L 358.89 6.91 L 359.20 12.21 L 359.50 17.50 L 361.71 13.76 C364.79,8.56 369.35,6.01 375.60,6.00 C381.95,6.00 386.68,8.90 389.50,14.51 C391.34,18.19 391.50,20.50 391.50,44.00 L 391.50 69.50 L 376.50 69.50 L 376.00 46.66 C375.51,24.14 375.47,23.79 373.14,21.91 C370.11,19.46 367.91,19.50 364.67,22.05 C360.75,25.13 360.01,29.69 360.01,50.75 ZM 196.37 114.98 C185.94,117.00 165.04,118.27 156.50,117.40 C131.37,114.86 106.84,106.22 87.33,93.06 C65.95,78.64 64.33,73.67 84.19,83.42 C106.55,94.39 130.27,100.80 156.73,103.02 C183.21,105.24 213.06,101.00 238.84,91.35 C243.97,89.42 248.81,88.10 249.59,88.39 C253.98,90.08 248.18,95.33 234.00,102.48 C223.01,108.02 209.97,112.35 196.37,114.98 ZM 241.50 65.88 C238.75,66.88 235.80,68.00 234.95,68.38 C232.50,69.46 232.00,68.15 232.00,60.75 L 232.00 53.83 L 256.07 19.50 L 234.00 18.93 L 234.00 7.00 L 276.00 7.00 L 276.00 12.31 C276.00,17.45 275.65,18.11 265.00,33.28 C258.95,41.89 254.00,49.11 254.00,49.33 C254.00,49.55 256.91,49.96 260.48,50.25 C264.36,50.56 268.86,51.71 271.73,53.13 L 276.50 55.50 L 276.50 62.00 C276.50,62.19 276.50,62.37 276.50,62.54 C276.50,65.64 276.50,67.30 275.71,67.89 C274.80,68.57 272.84,67.86 268.64,66.31 C268.43,66.24 268.22,66.16 268.00,66.08 C260.79,63.44 248.48,63.35 241.50,65.88 ZM 306.00 58.72 C307.38,59.41 308.96,59.98 309.53,59.99 C311.37,60.01 314.98,56.94 316.45,54.10 C318.50,50.13 319.36,37.62 318.11,30.01 C316.75,21.80 314.48,18.60 309.71,18.19 C302.78,17.60 299.99,23.48 300.05,38.50 C300.10,49.39 302.30,56.86 306.00,58.72 ZM 258.49 105.88 C255.08,109.65 253.00,110.98 253.00,109.37 C253.00,109.02 254.30,104.86 255.89,100.12 C260.13,87.48 260.37,85.37 257.85,82.85 C255.87,80.87 254.96,80.77 243.87,81.23 C230.58,81.77 228.94,80.88 236.48,77.22 C246.99,72.12 265.34,72.04 268.04,77.08 C270.59,81.85 265.02,98.65 258.49,105.88 ZM 188.45 57.55 C191.30,60.39 192.98,60.58 197.03,58.48 C201.14,56.36 203.00,52.17 203.00,45.04 L 203.00 38.98 L 198.75 39.63 C190.14,40.95 186.00,44.72 186.00,51.27 C186.00,53.99 186.70,55.80 188.45,57.55 ZM 36.45 57.55 C39.28,60.37 40.99,60.58 44.91,58.54 C48.73,56.57 51.00,51.36 51.00,44.59 L 51.00 38.98 L 46.75 39.63 C38.14,40.95 34.00,44.72 34.00,51.27 C34.00,53.99 34.70,55.80 36.45,57.55 Z" fill="rgb(1,1,1)"/>
<path d="M 0.00 61.50 L 0.00 0.00 L 204.50 0.00 L 409.00 0.00 L 409.00 61.50 L 409.00 123.00 L 204.50 123.00 L 0.00 123.00 L 0.00 61.50 ZM 196.37 114.98 C209.97,112.35 223.01,108.02 234.00,102.48 C248.18,95.33 253.98,90.08 249.59,88.39 C248.81,88.10 243.97,89.42 238.84,91.35 C213.06,101.00 183.21,105.24 156.73,103.02 C130.27,100.80 106.55,94.39 84.19,83.42 C64.33,73.67 65.95,78.64 87.33,93.06 C106.84,106.22 131.37,114.86 156.50,117.40 C165.04,118.27 185.94,117.00 196.37,114.98 ZM 258.49 105.88 C265.02,98.65 270.59,81.85 268.04,77.08 C265.34,72.04 246.99,72.12 236.48,77.22 C228.94,80.88 230.58,81.77 243.87,81.23 C254.96,80.77 255.87,80.87 257.85,82.85 C260.37,85.37 260.13,87.48 255.89,100.12 C254.30,104.86 253.00,109.02 253.00,109.37 C253.00,110.98 255.08,109.65 258.49,105.88 ZM 320.07 68.94 C325.28,66.32 330.45,60.09 332.97,53.38 C334.86,48.37 335.13,45.95 334.83,37.00 C334.53,27.95 334.10,25.71 331.68,20.78 C325.07,7.26 310.86,2.20 297.93,8.75 C286.57,14.50 280.70,30.63 283.95,47.17 C286.73,61.30 293.14,68.49 305.50,71.33 C308.79,72.08 316.26,70.86 320.07,68.94 ZM 43.73 69.47 C45.74,68.63 48.78,66.88 50.49,65.58 L 53.58 63.22 L 56.85 67.11 C58.64,69.25 60.48,71.00 60.92,71.00 C62.50,71.00 72.00,62.62 72.00,61.23 C72.00,60.45 70.99,58.39 69.75,56.65 C67.66,53.73 67.46,52.16 67.00,34.82 C66.55,18.03 66.29,15.86 64.45,13.32 C58.69,5.40 42.24,2.89 30.82,8.19 C24.62,11.07 20.08,16.53 19.71,21.54 C19.47,24.76 21.50,25.73 28.77,25.90 C32.33,25.98 33.19,25.62 33.91,23.75 C35.38,19.91 38.85,17.55 43.00,17.55 C48.68,17.55 51.17,20.22 50.80,25.90 L 50.50 30.40 L 41.61 31.68 C31.28,33.17 24.91,35.92 21.57,40.35 C14.30,49.98 16.54,64.48 26.02,69.25 C30.34,71.42 38.81,71.52 43.73,69.47 ZM 194.95 70.02 C196.83,69.47 200.04,67.70 202.06,66.07 L 205.75 63.11 L 208.92 67.05 C210.67,69.22 212.55,71.00 213.12,71.00 C214.76,71.00 224.00,62.82 224.00,61.37 C224.00,60.64 223.10,58.57 222.00,56.77 C220.31,54.00 220.00,51.67 219.95,41.50 C219.84,16.98 218.45,12.54 209.45,8.01 C205.41,5.98 203.03,5.52 196.50,5.52 C189.73,5.51 187.61,5.95 182.70,8.35 C176.41,11.44 172.34,16.33 171.81,21.47 C171.54,24.05 171.89,24.52 174.50,25.10 C176.15,25.46 179.11,25.82 181.08,25.88 C184.18,25.98 184.99,25.49 187.09,22.25 C190.34,17.21 195.75,15.68 199.77,18.67 C202.03,20.35 202.55,21.59 202.80,25.85 L 203.10 31.00 L 199.30 31.02 C192.82,31.05 181.83,33.85 177.84,36.49 C166.30,44.12 166.66,64.46 178.42,69.58 C182.08,71.18 190.16,71.39 194.95,70.02 ZM 97.00 47.16 L 97.50 24.82 L 100.31 22.41 C103.69,19.50 106.00,19.37 109.14,21.91 C111.47,23.79 111.51,24.14 112.00,46.66 L 112.50 69.50 L 120.00 69.50 L 127.50 69.50 L 128.00 47.28 C128.48,26.07 128.60,24.95 130.69,22.86 C133.38,20.17 138.23,19.99 140.97,22.47 C142.83,24.16 142.98,25.75 143.23,46.89 L 143.50 69.50 L 151.00 69.50 L 158.50 69.50 L 158.77 44.10 C159.02,20.37 158.90,18.43 157.02,14.54 C151.96,4.08 137.10,2.99 129.26,12.50 L 126.18 16.24 L 124.54 13.08 C122.24,8.62 117.49,6.01 111.70,6.00 C105.69,6.00 101.76,7.99 98.59,12.65 L 96.13 16.28 L 95.81 11.89 L 95.50 7.50 L 88.50 7.50 L 81.50 7.50 L 81.24 38.79 L 80.97 70.08 L 88.74 69.79 L 96.50 69.50 L 97.00 47.16 ZM 360.01 50.75 C360.01,29.69 360.75,25.13 364.67,22.05 C367.91,19.50 370.11,19.46 373.14,21.91 C375.47,23.79 375.51,24.14 376.00,46.66 L 376.50 69.50 L 384.00 69.50 L 391.50 69.50 L 391.50 44.00 C391.50,20.50 391.34,18.19 389.50,14.51 C386.68,8.90 381.95,6.00 375.60,6.00 C369.35,6.01 364.79,8.56 361.71,13.76 L 359.50 17.50 L 359.20 12.21 L 358.89 6.91 L 351.70 7.21 L 344.50 7.50 L 344.23 37.49 C344.09,53.98 344.19,68.05 344.45,68.74 C344.78,69.60 347.33,70.00 352.47,70.00 L 360.00 70.00 L 360.01 50.75 ZM 241.50 65.88 C248.48,63.35 260.79,63.44 268.00,66.08 C276.73,69.27 276.50,69.38 276.50,62.00 L 276.50 55.50 L 271.73 53.13 C268.86,51.71 264.36,50.56 260.48,50.25 C256.91,49.96 254.00,49.55 254.00,49.33 C254.00,49.11 258.95,41.89 265.00,33.28 C275.65,18.11 276.00,17.45 276.00,12.31 L 276.00 7.00 L 255.00 7.00 L 234.00 7.00 L 234.00 12.97 L 234.00 18.93 L 245.04 19.22 L 256.07 19.50 L 244.04 36.66 L 232.00 53.83 L 232.00 60.75 C232.00,68.15 232.50,69.46 234.95,68.38 C235.80,68.00 238.75,66.88 241.50,65.88 ZM 306.00 58.72 C302.30,56.86 300.10,49.39 300.05,38.50 C299.99,23.48 302.78,17.60 309.71,18.19 C314.48,18.60 316.75,21.80 318.11,30.01 C319.36,37.62 318.50,50.13 316.45,54.10 C314.98,56.94 311.37,60.01 309.53,59.99 C308.96,59.98 307.38,59.41 306.00,58.72 ZM 36.45 57.55 C34.70,55.80 34.00,53.99 34.00,51.27 C34.00,44.72 38.14,40.95 46.75,39.63 L 51.00 38.98 L 51.00 44.59 C51.00,51.36 48.73,56.57 44.91,58.54 C40.99,60.58 39.28,60.37 36.45,57.55 ZM 188.45 57.55 C186.70,55.80 186.00,53.99 186.00,51.27 C186.00,44.72 190.14,40.95 198.75,39.63 L 203.00 38.98 L 203.00 45.04 C203.00,52.17 201.14,56.36 197.03,58.48 C192.98,60.58 191.30,60.39 188.45,57.55 Z" fill="rgb(253,253,253)"/>
</g>
</svg>