<svg xmlns="http://www.w3.org/2000/svg" width="284" height="177" viewBox="0 0 284 177">
<g>
<path d="M 68.00 88.00 C67.18,89.52 65.91,90.00 62.63,90.00 C58.04,90.00 57.00,89.49 57.00,87.26 C57.00,85.23 64.05,68.82 65.82,66.75 C68.04,64.14 75.44,64.36 77.36,67.10 L 78.83 69.20 L 79.95 67.10 C80.85,65.42 82.01,65.00 85.79,65.02 C91.52,65.03 92.51,65.61 94.35,69.99 L 95.79 73.41 L 99.52 65.50 L 123.01 65.61 C135.93,65.67 147.18,65.78 148.00,65.86 C148.82,65.93 151.19,65.72 153.26,65.39 C155.59,65.01 157.58,65.24 158.48,65.98 C159.54,66.87 160.78,66.91 163.21,66.13 C165.02,65.55 170.68,65.07 175.78,65.06 C184.69,65.05 185.11,65.15 186.19,67.52 L 187.32 69.99 L 188.43 67.75 C190.02,64.55 197.34,64.03 200.40,66.90 C202.54,68.92 202.57,68.92 203.79,66.97 C205.25,64.63 211.14,64.26 212.91,66.39 C213.67,67.31 213.97,71.50 213.78,78.64 L 213.50 89.50 L 208.05 89.81 C203.38,90.07 202.36,89.80 200.92,87.89 L 199.24 85.67 L 198.55 87.83 C197.94,89.78 197.16,90.00 190.97,90.00 C185.09,90.00 183.91,89.70 183.00,88.00 C182.41,86.90 180.93,86.00 179.71,86.00 C178.48,86.00 176.92,86.90 176.23,88.00 C175.23,89.61 173.90,90.00 169.43,90.00 C166.37,90.00 162.91,89.49 161.73,88.86 C160.13,88.00 159.50,88.00 159.21,88.86 C158.97,89.59 155.87,90.00 150.52,90.00 C141.80,90.00 141.00,89.57 141.00,84.92 C141.00,83.86 140.55,83.00 140.00,83.00 C139.45,83.00 139.00,83.86 139.00,84.92 C139.00,90.00 139.00,90.00 119.89,90.00 C106.64,90.00 102.00,89.69 102.00,88.80 C102.00,87.87 101.73,87.87 100.80,88.80 C99.30,90.30 92.77,90.37 91.31,88.91 C90.53,88.13 90.04,88.13 89.55,88.91 C89.18,89.51 86.01,90.00 82.48,90.00 C77.09,90.00 75.90,89.68 75.00,88.00 C74.38,86.84 72.91,86.00 71.50,86.00 C70.09,86.00 68.62,86.84 68.00,88.00 ZM 117.69 120.83 C115.61,122.77 114.28,123.00 104.85,123.00 C99.07,123.00 94.03,122.70 93.67,122.33 C92.44,121.11 92.92,100.48 94.20,99.20 C94.97,98.43 98.95,98.00 105.39,98.00 C114.26,98.00 115.63,98.24 117.69,100.17 L 120.00 102.35 L 122.31 100.17 C124.36,98.25 125.74,98.00 134.38,98.00 C139.74,98.00 144.97,98.45 146.01,99.00 C147.15,99.62 148.10,99.64 148.46,99.07 C149.21,97.85 205.80,97.88 206.56,99.10 C206.89,99.63 207.93,99.57 209.08,98.96 C210.15,98.38 214.29,98.05 218.27,98.21 L 225.50 98.50 L 225.52 103.69 C225.53,106.54 225.87,109.20 226.27,109.60 C226.67,110.01 227.00,112.08 227.00,114.21 C227.00,116.97 226.31,118.78 224.60,120.49 L 222.20 122.89 L 191.85 122.70 L 161.50 122.50 L 161.19 119.25 C161.00,117.31 160.32,116.00 159.50,116.00 C158.68,116.00 158.00,117.31 157.81,119.25 C157.53,122.23 157.18,122.53 153.68,122.81 C149.17,123.19 147.00,121.70 147.00,118.26 C147.00,116.16 146.64,115.86 144.75,116.37 C143.51,116.70 141.54,116.98 140.38,116.99 C138.82,117.00 138.09,117.80 137.65,120.00 C137.06,122.95 136.94,123.00 130.84,123.00 C125.84,123.00 124.18,122.58 122.31,120.83 L 120.00 118.65 ZM 96.00 101.00 L 96.00 120.00 L 105.20 120.00 C114.12,120.00 114.50,119.91 117.58,116.92 L 120.75 113.85 L 122.95 116.92 C124.88,119.65 125.70,120.00 130.07,120.00 C134.83,120.00 135.00,119.90 135.00,117.13 C135.00,114.41 135.27,114.23 139.97,113.78 C146.12,113.19 148.00,111.70 148.00,107.43 C148.00,102.35 145.26,101.00 134.96,101.00 C126.72,101.00 126.26,101.12 123.49,104.01 L 120.61 107.02 L 117.51 104.01 C114.51,101.11 114.08,101.00 105.20,101.00 ZM 161.07 84.37 C162.85,86.62 163.91,87.00 168.46,87.00 C172.93,87.00 173.85,86.68 174.29,85.00 C174.72,83.34 175.65,83.00 179.79,83.00 C183.93,83.00 184.86,83.34 185.29,85.00 C185.73,86.67 186.65,87.00 190.86,87.00 L 195.90 87.00 L 196.50 74.62 L 200.31 80.81 C203.79,86.46 204.42,87.00 207.56,87.00 L 211.00 87.00 L 211.00 77.50 C211.00,68.03 210.99,68.00 208.50,68.00 C206.08,68.00 206.00,68.22 205.99,74.75 L 205.99 81.50 L 201.94 74.75 C198.21,68.53 197.62,68.00 194.48,68.00 L 191.08 68.00 L 190.79 76.61 L 190.50 85.22 L 186.97 76.86 C183.57,68.80 183.32,68.49 179.93,68.20 C176.44,67.91 176.40,67.95 173.39,75.20 C170.60,81.92 170.13,82.50 167.43,82.50 C164.74,82.50 164.47,82.18 164.18,78.54 C163.81,73.99 165.64,72.00 170.19,72.00 C172.33,72.00 173.00,71.53 173.00,70.00 C173.00,68.38 172.33,68.00 169.45,68.00 C165.32,68.00 160.51,70.22 159.62,72.54 C158.31,75.96 159.02,81.76 161.07,84.37 ZM 60.93 84.75 C60.16,86.73 60.36,87.00 62.62,87.00 C64.35,87.00 65.36,86.35 65.71,85.00 C66.14,83.34 67.07,83.00 71.21,83.00 C75.35,83.00 76.28,83.34 76.71,85.00 C77.14,86.66 78.07,87.00 82.12,87.00 L 87.00 87.00 L 87.08 72.50 L 90.25 79.75 C92.86,85.71 93.83,87.00 95.71,87.00 C97.53,87.00 98.58,85.74 100.91,80.75 L 103.83 74.50 L 103.91 80.75 C104.00,86.73 104.11,87.00 106.50,87.00 C108.99,87.00 109.00,86.97 109.00,77.50 L 109.00 68.00 L 105.12 68.00 C101.30,68.00 101.21,68.08 99.00,74.00 C97.77,77.30 96.43,80.00 96.04,80.00 C95.65,80.00 94.16,77.30 92.74,74.00 C90.27,68.27 89.99,68.00 86.57,68.00 L 83.00 68.00 L 83.00 76.70 C83.00,81.88 82.64,85.02 82.10,84.45 C81.61,83.93 79.76,79.99 77.99,75.70 C74.78,67.92 74.76,67.89 71.30,68.20 C68.04,68.48 67.65,68.92 64.82,75.50 C63.17,79.35 61.42,83.51 60.93,84.75 ZM 150.00 110.50 C150.00,119.97 150.01,120.00 152.50,120.00 C154.69,120.00 155.00,119.57 155.00,116.50 C155.00,113.30 155.25,113.00 157.92,113.00 C162.58,113.00 164.00,113.96 164.00,117.11 C164.00,119.53 164.41,120.00 166.50,120.00 C168.60,120.00 169.00,119.53 169.00,117.07 C169.00,115.46 168.38,113.52 167.62,112.76 C166.45,111.59 166.45,111.10 167.62,109.50 C171.48,104.23 167.56,101.00 157.28,101.00 L 150.00 101.00 ZM 131.00 77.50 C131.00,86.97 131.01,87.00 133.50,87.00 C135.69,87.00 136.00,86.57 136.00,83.50 C136.00,80.46 136.32,80.00 138.42,80.00 C142.57,80.00 144.00,81.05 144.00,84.11 C144.00,86.53 144.41,87.00 146.50,87.00 C148.68,87.00 149.00,86.56 149.00,83.56 C149.00,81.67 148.55,79.84 148.00,79.50 C147.33,79.08 147.33,78.26 148.00,77.01 C151.11,71.19 147.50,68.00 137.78,68.00 L 131.00 68.00 ZM 171.00 101.00 L 171.00 120.00 L 179.00 120.00 C186.33,120.00 187.00,119.83 187.00,118.00 C187.00,116.24 186.33,116.00 181.50,116.00 C176.67,116.00 176.00,115.76 176.00,114.00 C176.00,112.27 176.67,112.00 181.00,112.00 C185.33,112.00 186.00,111.73 186.00,110.00 C186.00,108.27 185.33,108.00 181.00,108.00 C177.22,108.00 176.00,107.63 176.00,106.50 C176.00,105.35 177.28,105.00 181.50,105.00 C186.33,105.00 187.00,104.76 187.00,103.00 C187.00,101.17 186.33,101.00 179.00,101.00 ZM 189.00 118.05 C189.00,119.77 189.72,120.00 195.07,120.00 C202.93,120.00 205.00,118.87 205.00,114.59 C205.00,110.51 203.65,109.29 198.20,108.42 C191.74,107.38 192.65,105.00 199.50,105.00 C204.33,105.00 205.00,104.76 205.00,103.00 C205.00,101.22 204.33,101.00 198.83,101.00 C191.77,101.00 189.00,102.70 189.00,107.03 C189.00,110.47 190.37,111.58 196.00,112.68 C202.04,113.86 201.29,115.43 194.51,115.80 C189.82,116.06 189.00,116.39 189.00,118.05 ZM 113.00 68.00 L 113.00 87.00 L 120.50 87.00 C127.33,87.00 128.00,86.82 128.00,85.00 C128.00,83.24 127.33,83.00 122.50,83.00 C118.37,83.00 117.00,82.64 117.00,81.55 C117.00,80.51 118.47,80.02 122.24,79.80 C126.29,79.57 127.56,79.10 127.81,77.75 C128.10,76.25 127.34,76.00 122.57,76.00 C117.67,76.00 117.00,75.76 117.00,74.00 C117.00,72.24 117.67,72.00 122.50,72.00 C127.33,72.00 128.00,71.76 128.00,70.00 C128.00,68.18 127.33,68.00 120.50,68.00 ZM 208.00 118.00 C208.00,119.78 208.67,120.00 214.17,120.00 C221.23,120.00 224.00,118.30 224.00,113.97 C224.00,110.56 222.63,109.42 217.20,108.35 C211.21,107.17 211.49,105.56 217.75,105.20 C222.18,104.94 223.00,104.59 223.00,102.95 C223.00,101.25 222.28,101.00 217.43,101.00 C210.07,101.00 208.00,102.19 208.00,106.41 C208.00,110.49 209.68,112.01 214.96,112.72 C217.45,113.06 219.00,113.79 219.00,114.63 C219.00,115.62 217.49,116.00 213.50,116.00 C208.67,116.00 208.00,116.24 208.00,118.00 ZM 114.69 113.21 C112.84,115.71 112.01,116.00 106.81,116.00 C101.67,116.00 101.00,115.77 101.00,114.00 C101.00,112.27 101.67,112.00 106.00,112.00 C110.33,112.00 111.00,111.73 111.00,110.00 C111.00,108.27 110.33,108.00 106.00,108.00 C102.22,108.00 101.00,107.63 101.00,106.50 C101.00,105.34 102.30,105.00 106.71,105.00 C111.73,105.00 112.69,105.33 114.59,107.71 L 116.75 110.42 ZM 152.00 77.50 C152.00,86.97 152.01,87.00 154.50,87.00 C156.99,87.00 157.00,86.97 157.00,77.50 C157.00,68.03 156.99,68.00 154.50,68.00 C152.01,68.00 152.00,68.03 152.00,77.50 ZM 130.00 110.80 C130.00,114.76 129.89,117.96 129.75,117.92 C129.61,117.87 128.05,116.14 126.28,114.08 L 123.07 110.33 L 126.53 106.97 L 130.00 103.61 ZM 142.50 107.50 C142.50,109.09 141.73,109.56 138.75,109.81 C135.29,110.10 135.00,109.92 135.00,107.50 C135.00,105.08 135.29,104.90 138.75,105.19 C141.73,105.44 142.50,105.91 142.50,107.50 ZM 163.50 107.00 C163.50,108.05 162.22,108.59 159.25,108.81 C155.49,109.08 155.00,108.87 155.00,107.00 C155.00,105.13 155.49,104.92 159.25,105.19 C162.22,105.41 163.50,105.95 163.50,107.00 ZM 143.82 74.25 C144.09,75.68 143.41,76.00 140.07,76.00 C136.63,76.00 136.00,75.68 136.00,73.94 C136.00,72.17 136.53,71.92 139.74,72.19 C142.36,72.41 143.58,73.03 143.82,74.25 ZM 182.59 78.14 C182.88,78.61 181.74,79.00 180.06,79.00 C179.90,79.00 179.75,79.00 179.60,79.00 C178.25,79.00 177.52,79.01 177.28,78.66 C176.98,78.26 177.36,77.37 178.18,75.42 C178.26,75.25 178.34,75.06 178.42,74.86 L 179.84 71.50 L 180.95 74.39 C181.56,75.99 182.30,77.67 182.59,78.14 ZM 74.00 78.61 C74.00,78.83 72.66,79.00 71.02,79.00 L 68.03 79.00 L 69.70 75.49 L 71.38 71.99 L 72.69 75.11 C73.41,76.83 74.00,78.40 74.00,78.61 ZM 167.03 78.31 C167.06,80.43 167.11,80.44 168.50,78.60 C169.29,77.56 169.69,76.31 169.40,75.84 C168.51,74.39 167.00,75.97 167.03,78.31 Z" fill="rgb(15,15,15)"/>
<path d="M 0.00 88.50 L 0.00 0.00 L 142.00 0.00 L 284.00 0.00 L 284.00 88.50 L 284.00 177.00 L 142.00 177.00 L 0.00 177.00 L 0.00 88.50 ZM 117.69 120.83 L 120.00 118.65 L 122.31 120.83 C124.18,122.58 125.84,123.00 130.84,123.00 C136.94,123.00 137.06,122.95 137.65,120.00 C138.09,117.80 138.82,117.00 140.38,116.99 C141.54,116.98 143.51,116.70 144.75,116.37 C146.64,115.86 147.00,116.16 147.00,118.26 C147.00,121.70 149.17,123.19 153.68,122.81 C157.18,122.53 157.53,122.23 157.81,119.25 C158.00,117.31 158.68,116.00 159.50,116.00 C160.32,116.00 161.00,117.31 161.19,119.25 L 161.50 122.50 L 191.85 122.70 L 222.20 122.89 L 224.60 120.49 C226.31,118.78 227.00,116.97 227.00,114.21 C227.00,112.08 226.67,110.01 226.27,109.60 C225.87,109.20 225.53,106.54 225.52,103.69 L 225.50 98.50 L 218.27 98.21 C214.29,98.05 210.15,98.38 209.08,98.96 C207.93,99.57 206.89,99.63 206.56,99.10 C205.80,97.88 149.21,97.85 148.46,99.07 C148.10,99.64 147.15,99.62 146.01,99.00 C144.97,98.45 139.74,98.00 134.38,98.00 C125.74,98.00 124.36,98.25 122.31,100.17 L 120.00 102.35 L 117.69 100.17 C115.63,98.24 114.26,98.00 105.39,98.00 C98.95,98.00 94.97,98.43 94.20,99.20 C92.92,100.48 92.44,121.11 93.67,122.33 C94.03,122.70 99.07,123.00 104.85,123.00 C114.28,123.00 115.61,122.77 117.69,120.83 ZM 68.00 88.00 C68.62,86.84 70.09,86.00 71.50,86.00 C72.91,86.00 74.38,86.84 75.00,88.00 C75.90,89.68 77.09,90.00 82.48,90.00 C86.01,90.00 89.18,89.51 89.55,88.91 C90.04,88.13 90.53,88.13 91.31,88.91 C92.77,90.37 99.30,90.30 100.80,88.80 C101.73,87.87 102.00,87.87 102.00,88.80 C102.00,89.69 106.64,90.00 119.89,90.00 C139.00,90.00 139.00,90.00 139.00,84.92 C139.00,83.86 139.45,83.00 140.00,83.00 C140.55,83.00 141.00,83.86 141.00,84.92 C141.00,89.57 141.80,90.00 150.52,90.00 C155.87,90.00 158.97,89.59 159.21,88.86 C159.50,88.00 160.13,88.00 161.73,88.86 C162.91,89.49 166.37,90.00 169.43,90.00 C173.90,90.00 175.23,89.61 176.23,88.00 C176.92,86.90 178.48,86.00 179.71,86.00 C180.93,86.00 182.41,86.90 183.00,88.00 C183.91,89.70 185.09,90.00 190.97,90.00 C197.16,90.00 197.94,89.78 198.55,87.83 L 199.24 85.67 L 200.92 87.89 C202.36,89.80 203.38,90.07 208.05,89.81 L 213.50 89.50 L 213.78 78.64 C213.97,71.50 213.67,67.31 212.91,66.39 C211.14,64.26 205.25,64.63 203.79,66.97 C202.57,68.92 202.54,68.92 200.40,66.90 C197.34,64.03 190.02,64.55 188.43,67.75 L 187.32 69.99 L 186.19 67.52 C185.11,65.15 184.69,65.05 175.78,65.06 C170.68,65.07 165.02,65.55 163.21,66.13 C160.78,66.91 159.54,66.87 158.48,65.98 C157.58,65.24 155.59,65.01 153.26,65.39 C151.19,65.72 148.82,65.93 148.00,65.86 C147.18,65.78 135.93,65.67 123.01,65.61 L 99.52 65.50 L 97.65 69.45 L 95.79 73.41 L 94.35 69.99 C92.51,65.61 91.52,65.03 85.79,65.02 C82.01,65.00 80.85,65.42 79.95,67.10 L 78.83 69.20 L 77.36 67.10 C75.44,64.36 68.04,64.14 65.82,66.75 C64.05,68.82 57.00,85.23 57.00,87.26 C57.00,89.49 58.04,90.00 62.63,90.00 C65.91,90.00 67.18,89.52 68.00,88.00 ZM 96.00 110.50 L 96.00 101.00 L 105.20 101.00 C114.08,101.00 114.51,101.11 117.51,104.01 L 120.61 107.02 L 123.49 104.01 C126.26,101.12 126.72,101.00 134.96,101.00 C145.26,101.00 148.00,102.35 148.00,107.43 C148.00,111.70 146.12,113.19 139.97,113.78 C135.27,114.23 135.00,114.41 135.00,117.13 C135.00,119.90 134.83,120.00 130.07,120.00 C125.70,120.00 124.88,119.65 122.95,116.92 L 120.75 113.85 L 117.58 116.92 C114.50,119.91 114.12,120.00 105.20,120.00 L 96.00 120.00 L 96.00 110.50 ZM 130.00 110.80 L 130.00 103.61 L 126.53 106.97 L 123.07 110.33 L 126.28 114.08 C128.05,116.14 129.61,117.87 129.75,117.92 C129.89,117.96 130.00,114.76 130.00,110.80 ZM 114.69 113.21 L 116.75 110.42 L 114.59 107.71 C112.69,105.33 111.73,105.00 106.71,105.00 C102.30,105.00 101.00,105.34 101.00,106.50 C101.00,107.63 102.22,108.00 106.00,108.00 C110.33,108.00 111.00,108.27 111.00,110.00 C111.00,111.73 110.33,112.00 106.00,112.00 C101.67,112.00 101.00,112.27 101.00,114.00 C101.00,115.77 101.67,116.00 106.81,116.00 C112.01,116.00 112.84,115.71 114.69,113.21 ZM 142.50 107.50 C142.50,105.91 141.73,105.44 138.75,105.19 C135.29,104.90 135.00,105.08 135.00,107.50 C135.00,109.92 135.29,110.10 138.75,109.81 C141.73,109.56 142.50,109.09 142.50,107.50 ZM 150.00 110.50 L 150.00 101.00 L 157.28 101.00 C167.56,101.00 171.48,104.23 167.62,109.50 C166.45,111.10 166.45,111.59 167.62,112.76 C168.38,113.52 169.00,115.46 169.00,117.07 C169.00,119.53 168.60,120.00 166.50,120.00 C164.41,120.00 164.00,119.53 164.00,117.11 C164.00,113.96 162.58,113.00 157.92,113.00 C155.25,113.00 155.00,113.30 155.00,116.50 C155.00,119.57 154.69,120.00 152.50,120.00 C150.01,120.00 150.00,119.97 150.00,110.50 ZM 163.50 107.00 C163.50,105.95 162.22,105.41 159.25,105.19 C155.49,104.92 155.00,105.13 155.00,107.00 C155.00,108.87 155.49,109.08 159.25,108.81 C162.22,108.59 163.50,108.05 163.50,107.00 ZM 171.00 110.50 L 171.00 101.00 L 179.00 101.00 C186.33,101.00 187.00,101.17 187.00,103.00 C187.00,104.76 186.33,105.00 181.50,105.00 C177.28,105.00 176.00,105.35 176.00,106.50 C176.00,107.63 177.22,108.00 181.00,108.00 C185.33,108.00 186.00,108.27 186.00,110.00 C186.00,111.73 185.33,112.00 181.00,112.00 C176.67,112.00 176.00,112.27 176.00,114.00 C176.00,115.76 176.67,116.00 181.50,116.00 C186.33,116.00 187.00,116.24 187.00,118.00 C187.00,119.83 186.33,120.00 179.00,120.00 L 171.00 120.00 L 171.00 110.50 ZM 189.00 118.05 C189.00,116.39 189.82,116.06 194.51,115.80 C201.29,115.43 202.04,113.86 196.00,112.68 C190.37,111.58 189.00,110.47 189.00,107.03 C189.00,102.70 191.77,101.00 198.83,101.00 C204.33,101.00 205.00,101.22 205.00,103.00 C205.00,104.76 204.33,105.00 199.50,105.00 C192.65,105.00 191.74,107.38 198.20,108.42 C203.65,109.29 205.00,110.51 205.00,114.59 C205.00,118.87 202.93,120.00 195.07,120.00 C189.72,120.00 189.00,119.77 189.00,118.05 ZM 208.00 118.00 C208.00,116.24 208.67,116.00 213.50,116.00 C217.49,116.00 219.00,115.62 219.00,114.63 C219.00,113.79 217.45,113.06 214.96,112.72 C209.68,112.01 208.00,110.49 208.00,106.41 C208.00,102.19 210.07,101.00 217.43,101.00 C222.28,101.00 223.00,101.25 223.00,102.95 C223.00,104.59 222.18,104.94 217.75,105.20 C211.49,105.56 211.21,107.17 217.20,108.35 C222.63,109.42 224.00,110.56 224.00,113.97 C224.00,118.30 221.23,120.00 214.17,120.00 C208.67,120.00 208.00,119.78 208.00,118.00 ZM 60.93 84.75 C61.42,83.51 63.17,79.35 64.82,75.50 C67.65,68.92 68.04,68.48 71.30,68.20 C74.76,67.89 74.78,67.92 77.99,75.70 C79.76,79.99 81.61,83.93 82.10,84.45 C82.64,85.02 83.00,81.88 83.00,76.70 L 83.00 68.00 L 86.57 68.00 C89.99,68.00 90.27,68.27 92.74,74.00 C94.16,77.30 95.65,80.00 96.04,80.00 C96.43,80.00 97.77,77.30 99.00,74.00 C101.21,68.08 101.30,68.00 105.12,68.00 L 109.00 68.00 L 109.00 77.50 C109.00,86.97 108.99,87.00 106.50,87.00 C104.11,87.00 104.00,86.73 103.91,80.75 L 103.83 74.50 L 100.91 80.75 C98.58,85.74 97.53,87.00 95.71,87.00 C93.83,87.00 92.86,85.71 90.25,79.75 L 87.08 72.50 L 87.04 79.75 L 87.00 87.00 L 82.12 87.00 C78.07,87.00 77.14,86.66 76.71,85.00 C76.28,83.34 75.35,83.00 71.21,83.00 C67.07,83.00 66.14,83.34 65.71,85.00 C65.36,86.35 64.35,87.00 62.62,87.00 C60.36,87.00 60.16,86.73 60.93,84.75 ZM 74.00 78.61 C74.00,78.40 73.41,76.83 72.69,75.11 L 71.38 71.99 L 69.70 75.49 L 68.03 79.00 L 71.02 79.00 C72.66,79.00 74.00,78.83 74.00,78.61 ZM 113.00 77.50 L 113.00 68.00 L 120.50 68.00 C127.33,68.00 128.00,68.18 128.00,70.00 C128.00,71.76 127.33,72.00 122.50,72.00 C117.67,72.00 117.00,72.24 117.00,74.00 C117.00,75.76 117.67,76.00 122.57,76.00 C127.34,76.00 128.10,76.25 127.81,77.75 C127.56,79.10 126.29,79.57 122.24,79.80 C118.47,80.02 117.00,80.51 117.00,81.55 C117.00,82.64 118.37,83.00 122.50,83.00 C127.33,83.00 128.00,83.24 128.00,85.00 C128.00,86.82 127.33,87.00 120.50,87.00 L 113.00 87.00 L 113.00 77.50 ZM 131.00 77.50 L 131.00 68.00 L 137.78 68.00 C147.50,68.00 151.11,71.19 148.00,77.01 C147.33,78.26 147.33,79.08 148.00,79.50 C148.55,79.84 149.00,81.67 149.00,83.56 C149.00,86.56 148.68,87.00 146.50,87.00 C144.41,87.00 144.00,86.53 144.00,84.11 C144.00,81.05 142.57,80.00 138.42,80.00 C136.32,80.00 136.00,80.46 136.00,83.50 C136.00,86.57 135.69,87.00 133.50,87.00 C131.01,87.00 131.00,86.97 131.00,77.50 ZM 143.82 74.25 C143.58,73.03 142.36,72.41 139.74,72.19 C136.53,71.92 136.00,72.17 136.00,73.94 C136.00,75.68 136.63,76.00 140.07,76.00 C143.41,76.00 144.09,75.68 143.82,74.25 ZM 152.00 77.50 C152.00,68.03 152.01,68.00 154.50,68.00 C156.99,68.00 157.00,68.03 157.00,77.50 C157.00,86.97 156.99,87.00 154.50,87.00 C152.01,87.00 152.00,86.97 152.00,77.50 ZM 161.07 84.37 C159.02,81.76 158.31,75.96 159.62,72.54 C160.51,70.22 165.32,68.00 169.45,68.00 C172.33,68.00 173.00,68.38 173.00,70.00 C173.00,71.53 172.33,72.00 170.19,72.00 C165.64,72.00 163.81,73.99 164.18,78.54 C164.47,82.18 164.74,82.50 167.43,82.50 C170.13,82.50 170.60,81.92 173.39,75.20 C176.40,67.95 176.44,67.91 179.93,68.20 C183.32,68.49 183.57,68.80 186.97,76.86 L 190.50 85.22 L 190.79 76.61 L 191.08 68.00 L 194.48 68.00 C197.62,68.00 198.21,68.53 201.94,74.75 L 205.99 81.50 L 205.99 74.75 C206.00,68.22 206.08,68.00 208.50,68.00 C210.99,68.00 211.00,68.03 211.00,77.50 L 211.00 87.00 L 207.56 87.00 C204.42,87.00 203.79,86.46 200.31,80.81 L 196.50 74.62 L 196.20 80.81 L 195.90 87.00 L 190.86 87.00 C186.65,87.00 185.73,86.67 185.29,85.00 C184.86,83.34 183.93,83.00 179.79,83.00 C175.65,83.00 174.72,83.34 174.29,85.00 C173.85,86.68 172.93,87.00 168.46,87.00 C163.91,87.00 162.85,86.62 161.07,84.37 ZM 182.59 78.14 C182.30,77.67 181.56,75.99 180.95,74.39 L 179.84 71.50 L 178.42 74.86 C176.59,79.20 176.51,79.00 180.06,79.00 C181.74,79.00 182.88,78.61 182.59,78.14 ZM 167.03 78.31 C167.00,75.97 168.51,74.39 169.40,75.84 C169.69,76.31 169.29,77.56 168.50,78.60 C167.11,80.44 167.06,80.43 167.03,78.31 Z" fill="rgb(254,254,254)"/>
</g>
</svg>