<svg xmlns="http://www.w3.org/2000/svg" width="440" height="200" viewBox="0 0 440 200">
<g>
<path d="M 88.30 120.04 C79.06,114.41 79.50,98.65 89.03,93.70 C93.14,91.56 99.20,91.97 102.08,94.57 C103.83,96.16 104.00,96.17 104.00,94.65 C104.00,93.48 104.88,93.00 107.00,93.00 L 110.00 93.00 L 110.00 107.00 L 110.00 121.00 L 107.08 121.00 C105.48,121.00 103.99,120.47 103.77,119.81 C103.49,118.97 102.67,119.11 100.96,120.31 C97.75,122.56 92.24,122.44 88.30,120.04 ZM 101.55 113.55 C104.38,110.72 104.75,106.36 102.54,102.07 C100.05,97.27 94.40,96.51 90.45,100.45 C85.09,105.82 88.72,116.00 96.00,116.00 C97.95,116.00 100.00,115.09 101.55,113.55 ZM 121.31 119.59 C118.68,117.33 118.48,116.60 118.15,108.09 C117.81,99.26 117.73,99.00 115.40,99.00 C113.40,99.00 113.00,98.50 113.00,96.00 C113.00,93.47 113.39,93.00 115.50,93.00 C117.80,93.00 118.00,92.63 118.00,88.50 C118.00,84.17 118.11,84.00 121.00,84.00 C123.89,84.00 124.00,84.17 124.00,88.50 L 124.00 93.00 L 129.57 93.00 C135.05,93.00 135.13,93.04 134.82,95.75 C134.52,98.31 134.15,98.52 129.25,98.80 L 124.00 99.10 L 124.00 105.62 C124.00,109.20 124.47,113.00 125.04,114.07 C126.17,116.18 129.07,116.57 132.02,114.99 C133.52,114.19 134.14,114.39 134.96,115.92 C136.50,118.80 136.27,119.56 133.45,120.84 C129.26,122.75 124.40,122.25 121.31,119.59 ZM 174.90 119.73 C165.87,113.70 165.87,100.30 174.90,94.27 C181.38,89.94 189.49,92.25 192.96,99.41 C194.08,101.73 195.00,104.84 195.00,106.32 L 195.00 109.00 L 185.00 109.00 C175.95,109.00 175.00,109.17 175.00,110.85 C175.00,115.31 182.74,117.81 187.94,115.03 C189.62,114.13 190.46,114.14 191.56,115.05 C193.94,117.02 193.20,119.02 189.53,120.55 C184.43,122.68 178.85,122.37 174.90,119.73 ZM 188.00 103.33 C188.00,100.60 184.91,98.00 181.67,98.00 C178.20,98.00 175.00,100.47 175.00,103.15 C175.00,104.76 175.85,105.00 181.50,105.00 C186.91,105.00 188.00,104.72 188.00,103.33 ZM 235.30 120.04 C231.21,117.55 229.27,114.53 228.44,109.38 C227.62,104.20 230.58,96.98 234.61,94.33 C238.43,91.84 246.10,91.87 248.90,94.40 C250.75,96.09 251.00,96.12 251.00,94.65 C251.00,93.48 251.88,93.00 254.00,93.00 L 257.00 93.00 L 257.00 107.00 L 257.00 121.00 L 254.08 121.00 C252.48,121.00 250.99,120.47 250.77,119.81 C250.49,118.97 249.67,119.11 247.96,120.31 C244.76,122.56 239.24,122.44 235.30,120.04 ZM 247.97 114.03 C253.61,108.39 250.23,98.00 242.77,98.00 C235.56,98.00 231.89,109.41 237.63,113.93 C240.96,116.54 245.42,116.58 247.97,114.03 ZM 298.42 120.10 C285.81,114.38 290.21,93.01 304.00,93.01 C310.92,93.01 317.00,99.30 317.00,106.47 L 317.00 109.00 L 305.55 109.00 L 294.10 109.00 L 295.18 112.09 C296.34,115.41 301.20,118.99 304.54,119.00 C305.66,119.00 308.25,118.15 310.29,117.10 C314.12,115.15 316.13,115.93 313.98,118.53 C312.79,119.96 306.87,122.00 304.00,121.97 C303.17,121.96 300.67,121.12 298.42,120.10 ZM 313.00 103.92 C313.00,100.67 307.70,96.00 304.00,96.00 C300.30,96.00 295.00,100.67 295.00,103.92 C295.00,105.87 295.56,106.00 304.00,106.00 C312.44,106.00 313.00,105.87 313.00,103.92 ZM 328.07 120.30 C314.91,113.40 319.33,93.00 334.00,93.00 C337.38,93.00 342.93,95.72 343.10,97.47 C343.15,98.03 343.51,97.38 343.89,96.00 C344.28,94.62 345.24,93.50 346.05,93.50 C347.23,93.50 347.55,96.01 347.78,107.25 C348.05,120.49 347.98,121.00 346.03,121.00 C344.66,121.00 344.00,120.34 344.00,118.97 L 344.00 116.94 L 341.22 119.00 C337.21,121.96 332.19,122.46 328.07,120.30 ZM 341.08 115.08 C345.95,110.20 344.72,100.46 338.85,97.43 C331.33,93.54 324.06,98.39 324.02,107.33 C324.00,111.34 324.49,112.64 326.92,115.08 C331.04,119.19 336.96,119.19 341.08,115.08 ZM 371.50 120.85 C367.58,118.70 367.00,116.90 367.00,106.87 L 367.00 97.13 L 363.75 96.81 C361.67,96.61 360.50,95.96 360.50,95.00 C360.50,94.04 361.67,93.39 363.75,93.19 C366.88,92.88 367.00,92.71 367.00,88.44 C367.00,85.16 367.39,84.00 368.50,84.00 C369.61,84.00 370.00,85.16 370.00,88.45 L 370.00 92.90 L 376.25 93.20 C381.01,93.43 382.50,93.86 382.50,95.00 C382.50,96.14 381.01,96.57 376.25,96.80 L 370.00 97.10 L 370.00 105.98 C370.00,117.05 371.02,118.51 378.19,117.66 C383.90,116.99 384.99,119.11 379.85,120.90 C375.95,122.26 374.07,122.25 371.50,120.85 ZM 138.00 100.00 L 138.00 79.00 L 141.00 79.00 L 144.00 79.00 L 144.00 87.00 C144.00,91.40 144.17,95.00 144.39,95.00 C144.60,95.00 146.06,94.33 147.64,93.51 C151.29,91.60 154.34,91.61 158.03,93.52 C162.75,95.96 164.00,99.61 164.00,110.95 L 164.00 121.00 L 161.09 121.00 L 158.19 121.00 L 157.84 110.92 C157.55,102.33 157.21,100.63 155.56,99.42 C152.90,97.47 149.66,97.64 146.91,99.87 C144.86,101.54 144.56,102.79 144.18,111.37 L 143.76 121.00 L 140.88 121.00 L 138.00 121.00 L 138.00 100.00 ZM 199.00 107.00 L 199.00 93.00 L 202.00 93.00 C204.06,93.00 205.00,93.49 205.00,94.57 C205.00,95.88 205.45,95.79 207.63,94.07 C212.70,90.09 221.02,92.41 223.58,98.53 C224.47,100.67 225.00,105.49 225.00,111.47 L 225.00 121.00 L 222.00 121.00 L 219.00 121.00 L 219.00 112.43 C219.00,104.28 218.03,100.39 215.60,98.77 C213.42,97.31 209.86,98.05 207.45,100.45 C205.21,102.70 205.00,103.68 205.00,111.95 L 205.00 121.00 L 202.00 121.00 L 199.00 121.00 L 199.00 107.00 ZM 262.00 100.00 C262.00,82.00 262.21,79.00 263.50,79.00 C264.72,79.00 265.00,80.67 265.00,87.99 L 265.00 96.97 L 268.25 94.99 C274.16,91.39 282.36,93.11 284.81,98.47 C286.59,102.39 286.42,121.00 284.59,121.00 C283.50,121.00 283.11,118.75 282.84,110.91 C282.51,101.19 282.39,100.73 279.58,98.31 C277.23,96.29 275.95,95.91 273.13,96.37 C266.81,97.39 265.55,99.71 265.16,111.03 C264.89,118.77 264.50,121.00 263.41,121.00 C262.24,121.00 262.00,117.38 262.00,100.00 ZM 354.00 100.00 C354.00,82.00 354.21,79.00 355.50,79.00 C356.79,79.00 357.00,82.00 357.00,100.00 C357.00,118.00 356.79,121.00 355.50,121.00 C354.21,121.00 354.00,118.00 354.00,100.00 ZM 386.00 100.00 C386.00,82.00 386.21,79.00 387.50,79.00 C388.72,79.00 389.00,80.67 389.00,87.99 L 389.00 96.97 L 392.25 94.99 C397.41,91.84 402.55,92.35 406.60,96.40 L 410.00 99.80 L 410.00 110.40 C410.00,118.84 409.71,121.00 408.59,121.00 C407.50,121.00 407.11,118.75 406.84,110.91 C406.51,101.19 406.39,100.73 403.58,98.31 C399.88,95.13 394.61,95.65 391.25,99.52 C389.26,101.81 389.00,103.20 389.00,111.56 C389.00,119.28 388.73,121.00 387.50,121.00 C386.21,121.00 386.00,118.00 386.00,100.00 ZM 47.64 119.31 C47.29,118.95 47.00,116.11 47.00,112.99 C47.00,107.31 47.00,107.30 42.94,105.47 C35.80,102.26 31.53,95.40 30.34,85.24 C29.70,79.81 29.72,79.78 32.10,80.51 C39.21,82.71 45.11,88.23 47.46,94.89 C49.36,100.27 50.71,118.44 49.28,119.33 C48.73,119.67 47.99,119.66 47.64,119.31 ZM 52.02 117.75 C52.06,112.80 55.09,101.53 57.47,97.46 C58.86,95.09 61.67,91.77 63.72,90.08 C67.38,87.07 76.61,83.27 77.68,84.34 C77.98,84.64 77.70,87.95 77.05,91.70 C74.69,105.43 68.45,114.19 58.33,117.98 C51.69,120.46 52.00,120.47 52.02,117.75 ZM 47.85 89.30 C43.60,82.08 43.50,73.99 47.57,68.19 C49.12,65.99 49.26,65.97 50.59,67.69 C51.36,68.69 52.69,71.84 53.55,74.69 C55.28,80.47 54.45,85.99 51.23,89.96 L 49.49 92.11 L 47.85 89.30 ZM 59.52 84.64 C57.04,82.82 58.36,79.00 61.46,79.00 C63.56,79.00 65.00,80.65 65.00,83.05 C65.00,84.90 61.33,85.96 59.52,84.64 Z" fill="rgba(26,27,33,1)"/>
</g>
</svg>