<svg xmlns="http://www.w3.org/2000/svg" width="1254" height="836" viewBox="0 0 1254 836">
<g>
<path d="M 696.24 476.92 C692.79,476.39 686.49,474.70 682.24,473.15 L 674.50 470.35 L 674.22 458.68 C674.06,452.25 674.12,447.00 674.35,447.00 C674.57,447.00 677.22,448.12 680.22,449.50 C692.54,455.14 713.72,458.04 721.26,455.11 C727.02,452.88 727.36,445.40 721.84,442.05 C720.14,441.01 713.74,438.93 707.62,437.43 C682.39,431.23 674.66,424.00 674.58,406.54 C674.54,399.46 674.89,397.85 677.51,393.10 C681.10,386.58 687.81,381.78 696.46,379.54 C708.48,376.43 731.48,378.24 741.50,383.07 L 744.50 384.52 L 744.78 395.26 C744.94,401.17 744.85,406.00 744.59,406.00 C744.33,406.00 740.05,404.64 735.09,402.98 C716.26,396.67 700.85,397.13 697.97,404.08 C696.97,406.50 697.04,407.41 698.39,409.47 C700.64,412.91 704.15,414.52 715.61,417.37 C729.86,420.90 736.19,423.53 741.32,428.05 C747.52,433.51 749.31,438.54 748.85,449.17 C748.23,463.29 743.29,470.12 730.14,475.06 C723.53,477.54 706.35,478.48 696.24,476.92 ZM 791.50 477.07 C784.58,475.93 778.35,474.18 772.75,471.78 L 768.00 469.75 L 768.00 458.38 C768.00,452.12 768.17,447.00 768.38,447.00 C768.58,447.00 771.39,448.17 774.63,449.60 C787.40,455.26 807.73,458.03 815.19,455.14 C820.24,453.18 821.61,446.82 817.75,443.30 C815.24,441.01 812.76,440.13 799.00,436.61 C793.78,435.27 787.92,433.50 786.00,432.67 C774.73,427.82 769.00,419.40 769.00,407.67 C769.00,398.77 770.48,393.97 774.77,388.96 C781.35,381.27 791.06,378.02 807.50,378.03 C818.50,378.03 827.10,379.46 834.88,382.57 L 839.00 384.22 L 839.00 395.23 C839.00,405.25 838.84,406.18 837.25,405.69 C836.29,405.39 832.28,404.02 828.35,402.64 C814.46,397.77 798.70,397.25 793.99,401.51 C792.77,402.61 792.00,404.58 792.00,406.59 C792.00,411.29 795.65,413.46 809.68,417.13 C824.27,420.94 832.38,424.58 837.22,429.49 C842.04,434.39 843.49,438.76 843.40,448.17 C843.27,461.77 837.00,470.69 824.47,475.09 C817.80,477.44 800.19,478.49 791.50,477.07 ZM 145.00 474.51 C145.00,472.54 174.58,413.38 176.00,412.50 C178.96,410.67 188.22,425.32 192.13,438.00 C195.15,447.83 195.26,462.97 192.36,470.50 L 190.44 475.50 L 167.72 475.77 C147.91,476.00 145.00,475.84 145.00,474.51 ZM 217.23 474.75 C215.06,472.07 196.11,433.10 193.65,426.25 C188.11,410.85 188.14,393.65 193.72,376.71 C196.72,367.63 201.88,358.50 204.01,358.50 C205.84,358.50 263.39,472.55 262.60,474.61 C261.86,476.54 218.79,476.67 217.23,474.75 ZM 310.00 475.25 C310.00,474.84 317.50,453.00 326.67,426.72 L 343.34 378.95 L 358.34 379.22 L 373.33 379.50 L 390.14 427.50 C399.38,453.90 406.95,475.61 406.97,475.75 C406.99,475.89 401.19,476.00 394.10,476.00 L 381.19 476.00 L 379.10 469.09 C377.94,465.30 377.00,461.65 377.00,460.99 C377.00,460.33 376.35,460.03 375.57,460.34 C374.78,460.64 370.49,461.38 366.05,461.99 C358.46,463.03 346.51,462.28 341.79,460.47 C340.58,460.01 339.77,461.41 338.12,466.84 C336.95,470.68 336.00,474.30 336.00,474.91 C336.00,475.64 331.75,476.00 323.00,476.00 C315.85,476.00 310.00,475.66 310.00,475.25 ZM 368.60 441.15 C370.65,440.51 370.57,440.03 364.63,419.76 C361.30,408.36 358.27,399.58 357.91,400.26 C357.25,401.50 346.00,439.35 346.00,440.33 C346.00,440.62 346.79,441.06 347.75,441.31 C350.42,442.01 366.22,441.89 368.60,441.15 ZM 431.00 438.00 L 431.00 400.00 L 418.50 400.00 L 406.00 400.00 L 406.00 389.50 L 406.00 379.00 L 443.50 379.00 L 481.00 379.00 L 481.00 389.50 L 481.00 400.00 L 467.50 400.00 L 454.00 400.00 L 454.00 438.00 L 454.00 476.00 L 442.50 476.00 L 431.00 476.00 L 431.00 438.00 ZM 498.00 427.52 L 498.00 379.00 L 509.50 379.00 L 521.00 379.00 L 521.00 417.00 L 521.00 455.00 L 536.57 455.00 C551.47,455.00 552.11,455.08 551.52,456.92 C551.19,457.98 549.65,462.59 548.12,467.17 L 545.32 475.50 L 521.66 475.77 L 498.00 476.04 L 498.00 427.52 ZM 562.00 475.25 C562.00,474.84 569.49,453.00 578.66,426.72 L 595.33 378.95 L 610.30 379.22 L 625.27 379.50 L 636.46 411.50 C642.61,429.10 650.19,450.81 653.30,459.75 L 658.95 476.00 L 646.03 476.00 L 633.11 476.00 L 630.72 468.25 C629.41,463.99 627.92,460.58 627.41,460.67 C614.76,462.98 600.11,462.90 593.78,460.47 C592.45,459.96 591.74,461.16 590.07,466.78 C588.93,470.59 588.00,474.23 588.00,474.86 C588.00,475.66 584.08,476.00 575.00,476.00 C567.85,476.00 562.00,475.66 562.00,475.25 ZM 619.75 441.37 C620.99,441.04 621.98,440.03 621.96,439.13 C621.94,438.24 619.31,428.75 616.11,418.06 L 610.29 398.61 L 608.70 403.56 C606.53,410.30 598.00,439.57 598.00,440.28 C598.00,440.60 598.79,441.06 599.75,441.31 C602.42,442.01 617.20,442.05 619.75,441.37 ZM 870.00 427.47 L 870.00 378.93 L 881.25 379.22 L 892.50 379.50 L 892.76 427.75 L 893.02 476.00 L 881.51 476.00 L 870.00 476.00 L 870.00 427.47 ZM 911.00 475.32 C911.00,474.94 918.50,453.11 927.68,426.79 L 944.35 378.95 L 959.35 379.22 L 974.35 379.50 L 991.09 427.50 L 1007.83 475.50 L 995.24 475.78 C986.15,475.98 982.45,475.72 981.90,474.84 C981.49,474.17 980.35,470.55 979.38,466.80 C978.02,461.55 977.26,460.10 976.06,460.47 C968.11,462.94 949.26,462.95 942.85,460.49 C941.56,460.00 940.81,461.28 939.12,466.84 C937.95,470.68 937.00,474.30 937.00,474.91 C937.00,475.64 932.75,476.00 924.00,476.00 C916.85,476.00 911.00,475.69 911.00,475.32 ZM 969.60 441.15 C971.65,440.51 971.57,440.03 965.63,419.76 C962.30,408.36 959.27,399.58 958.91,400.26 C958.25,401.50 947.00,439.35 947.00,440.33 C947.00,440.62 947.79,441.06 948.75,441.31 C951.42,442.01 967.22,441.89 969.60,441.15 ZM 1024.24 427.75 L 1024.50 379.50 L 1040.96 379.50 L 1057.41 379.50 L 1068.32 400.00 C1074.32,411.27 1081.14,424.90 1083.48,430.28 C1085.82,435.66 1088.01,440.35 1088.36,440.70 C1088.71,441.05 1089.00,427.31 1089.00,410.17 L 1089.00 379.00 L 1099.00 379.00 L 1109.00 379.00 L 1109.00 427.53 L 1109.00 476.06 L 1095.90 475.78 L 1082.80 475.50 L 1068.13 448.31 C1060.06,433.35 1051.67,416.93 1049.48,411.82 L 1045.50 402.53 L 1045.24 439.26 L 1044.98 476.00 L 1034.48 476.00 L 1023.98 476.00 L 1024.24 427.75 Z" fill="rgba(83,97,123,1)"/>
</g>
</svg>