<?xml version="1.0" encoding="UTF-8"?>
<svg version="1.1" xmlns="http://www.w3.org/2000/svg" width="320" height="320">
<path d="M0 0 C-1.20041436 3.60124307 -2.49536385 4.0732772 -5.76263452 5.7392025 C-6.44614976 6.06881792 -7.129665 6.39843334 -7.83389282 6.73803711 C-8.55272259 7.08540735 -9.27155235 7.4327776 -10.01216483 7.79067421 C-33.88019906 19.03552765 -54.70308779 21.23001701 -80.81563902 20.62230301 C-85.98272362 20.51999285 -91.15008242 20.51270906 -96.31802368 20.49389648 C-106.03633106 20.44481682 -115.75164366 20.31444783 -125.46865141 20.15230465 C-136.55958268 19.9713856 -147.65068264 19.88498227 -158.7427299 19.80517769 C-181.49679253 19.63941935 -204.24822614 19.35931932 -227 19 C-227 17.68 -227 16.36 -227 15 C-225.58454565 15.01162705 -225.58454565 15.01162705 -224.14049625 15.023489 C-201.02107421 15.21012224 -177.9023627 15.31390459 -154.78218174 15.33421898 C-143.60057384 15.34589913 -132.42020666 15.38305458 -121.23901367 15.48339844 C-111.4764329 15.57094301 -101.71511963 15.60741689 -91.95214885 15.58627188 C-86.79740379 15.57679322 -81.64538589 15.59035542 -76.49112129 15.66541672 C-50.80040392 16.02033473 -30.7327722 13.53522613 -7.88969326 1.25998878 C-4.96709183 -0.0143489 -3.14304664 -0.27910236 0 0 Z " fill="#000000" transform="translate(243,128)"/>
<path d="M0 0 C1.43859375 -0.00773438 1.43859375 -0.00773438 2.90625 -0.015625 C5.5 0.25 5.5 0.25 8.5 2.25 C8.90843923 4.96203652 8.63336867 7.4937142 8.5 10.25 C7.18 10.25 5.86 10.25 4.5 10.25 C3.51 8.27 2.52 6.29 1.5 4.25 C-0.15 4.25 -1.8 4.25 -3.5 4.25 C-4.38087511 7.20198029 -4.70408462 8.74554891 -3.53125 11.64453125 C0.0492612 17.29845072 3.90302265 22.38101216 8.5 27.25 C10.91121859 25.29366025 10.91121859 25.29366025 10.625 21.625 C10.58375 20.51125 10.5425 19.3975 10.5 18.25 C8.52 17.26 6.54 16.27 4.5 15.25 C4.5 14.26 4.5 13.27 4.5 12.25 C7.8 12.25 11.1 12.25 14.5 12.25 C16.29750058 17.64250175 16.26681926 23.06246104 14 28.3125 C13.505 29.281875 13.01 30.25125 12.5 31.25 C13.16 31.70375 13.82 32.1575 14.5 32.625 C15.16 33.16125 15.82 33.6975 16.5 34.25 C16.5 34.91 16.5 35.57 16.5 36.25 C12.47972342 36.42528316 8.4604372 36.53118359 4.4375 36.625 C3.30376953 36.67527344 2.17003906 36.72554687 1.00195312 36.77734375 C-8.47606281 36.94313995 -8.47606281 36.94313995 -12.74609375 33.4140625 C-15.67973031 30.49538653 -16.40570529 28.08293662 -16.875 23.9375 C-16.40067046 19.27325956 -14.44846721 17.78816065 -11.5 14.25 C-11.33330682 10.70828022 -11.33330682 10.70828022 -11.5 7.25 C-8.88108742 1.63804448 -6.11157008 -0.0328579 0 0 Z M-9.5 17.25 C-10.93304064 20.11608129 -10.80644155 22.06300783 -10.5 25.25 C-8.46006092 28.9078218 -6.99580738 30.91946174 -3.5 33.25 C-1.16800612 33.32905064 1.16832622 33.33798769 3.5 33.25 C3.13648438 32.7653125 2.77296875 32.280625 2.3984375 31.78125 C1.64433594 30.77578125 1.64433594 30.77578125 0.875 29.75 C0.33230469 29.028125 -0.21039063 28.30625 -0.76953125 27.5625 C-1.91944876 26.02581566 -3.0627431 24.48415191 -4.19921875 22.9375 C-4.73160156 22.215625 -5.26398438 21.49375 -5.8125 20.75 C-6.30363281 20.0796875 -6.79476562 19.409375 -7.30078125 18.71875 C-7.89439453 17.99171875 -7.89439453 17.99171875 -8.5 17.25 C-8.83 17.25 -9.16 17.25 -9.5 17.25 Z " fill="#000000" transform="translate(225.5,154.75)"/>
<path d="M0 0 C21.86014368 -0.67763936 21.86014368 -0.67763936 27.609375 4.4296875 C32.38739263 9.82508943 32.35387128 14.86883827 32.26953125 21.76171875 C31.87863829 26.45809933 31.06737584 28.39583338 28 32 C22.09754473 36.18829571 16.543037 36.51616128 9.5 36.25 C8.5821875 36.23195312 7.664375 36.21390625 6.71875 36.1953125 C4.47803908 36.14863102 2.23960201 36.08318522 0 36 C0 35.01 0 34.02 0 33 C1.32 33 2.64 33 4 33 C4 23.43 4 13.86 4 4 C2.68 4 1.36 4 0 4 C0 2.68 0 1.36 0 0 Z M10 4 C10 13.57 10 23.14 10 33 C19.32893114 33.06493426 19.32893114 33.06493426 22.5625 29.6875 C25.61882724 23.97349689 26.09544409 17.13246838 24.43359375 10.86328125 C23.07478815 7.46982434 22.08836194 6.05890796 19 4 C16.03 4 13.06 4 10 4 Z " fill="#000000" transform="translate(16,155)"/>
<path d="M0 0 C8.58 0 17.16 0 26 0 C26 3.63 26 7.26 26 11 C25.01 11 24.02 11 23 11 C22.690625 10.030625 22.38125 9.06125 22.0625 8.0625 C20.37918483 4.85054552 20.37918483 4.85054552 17.796875 4.37890625 C15.53949091 4.14819876 13.26819014 4.06574464 11 4 C11 7.63 11 11.26 11 15 C13.99152582 14.22520264 13.99152582 14.22520264 17 13 C17.33 12.01 17.66 11.02 18 10 C18.99 10 19.98 10 21 10 C21 14.62 21 19.24 21 24 C20.01 24 19.02 24 18 24 C17.773125 23.360625 17.54625 22.72125 17.3125 22.0625 C16.879375 21.381875 16.44625 20.70125 16 20 C14.35 19.67 12.7 19.34 11 19 C11 23.62 11 28.24 11 33 C12.44375 32.71125 13.8875 32.4225 15.375 32.125 C16.59316406 31.88136719 16.59316406 31.88136719 17.8359375 31.6328125 C20.18673923 31.13341068 20.18673923 31.13341068 22 29 C22.70710678 27.35008418 23.37943989 25.68437744 24 24 C24.99 24 25.98 24 27 24 C26.67 27.96 26.34 31.92 26 36 C17.42 36 8.84 36 0 36 C0 35.01 0 34.02 0 33 C1.32 33 2.64 33 4 33 C4 23.43 4 13.86 4 4 C2.68 4 1.36 4 0 4 C0 2.68 0 1.36 0 0 Z " fill="#000000" transform="translate(56,155)"/>
<path d="M0 0 C3.3 0 6.6 0 10 0 C10.33 3.63 10.66 7.26 11 11 C11.99 10.34 12.98 9.68 14 9 C17.88361915 8.40901448 19.45125407 8.60746641 22.67578125 10.9140625 C25.93160728 15.23692395 25.56705206 18.56089521 25.3125 23.8125 C25.28994141 24.69615234 25.26738281 25.57980469 25.24414062 26.49023438 C25.18547428 28.6608891 25.09579979 30.8306669 25 33 C25.99 33 26.98 33 28 33 C28 33.99 28 34.98 28 36 C23.71 36 19.42 36 15 36 C15 35.01 15 34.02 15 33 C16.485 32.505 16.485 32.505 18 32 C17.67 26.06 17.34 20.12 17 14 C15.35 14.33 13.7 14.66 12 15 C10.414131 18.171738 10.62133555 21.63513822 10.4375 25.125 C10.39431641 25.87910156 10.35113281 26.63320312 10.30664062 27.41015625 C10.2005168 29.27321888 10.09974999 31.13658524 10 33 C11.32 33.33 12.64 33.66 14 34 C13.67 34.66 13.34 35.32 13 36 C8.71 36 4.42 36 0 36 C0 35.01 0 34.02 0 33 C1.32 33 2.64 33 4 33 C4 23.43 4 13.86 4 4 C2.68 3.67 1.36 3.34 0 3 C0 2.01 0 1.02 0 0 Z " fill="#000000" transform="translate(117,155)"/>
<path d="M0 0 C4.29 0 8.58 0 13 0 C13 0.99 13 1.98 13 3 C12.01 3 11.02 3 10 3 C10.99 6.63 11.98 10.26 13 14 C14.32 10.04 15.64 6.08 17 2 C18.65 2 20.3 2 22 2 C23.32 5.96 24.64 9.92 26 14 C26.99 10.37 27.98 6.74 29 3 C27.68 3 26.36 3 25 3 C25 2.01 25 1.02 25 0 C28.63 0 32.26 0 36 0 C36 0.99 36 1.98 36 3 C35.01 3 34.02 3 33 3 C32.88406494 3.55461914 32.76812988 4.10923828 32.64868164 4.68066406 C32.12075566 7.20394445 31.59163973 9.72697388 31.0625 12.25 C30.88009766 13.12269531 30.69769531 13.99539062 30.50976562 14.89453125 C30.33251953 15.73886719 30.15527344 16.58320313 29.97265625 17.453125 C29.81031494 18.22817383 29.64797363 19.00322266 29.48071289 19.80175781 C29.02638067 21.87936437 28.5273492 23.93984981 28 26 C26.02 26 24.04 26 22 26 C20.68 21.71 19.36 17.42 18 13 C16.68 17.29 15.36 21.58 14 26 C12.35 26 10.7 26 9 26 C4.59225513 10.25512528 4.59225513 10.25512528 4 3 C2.68 3 1.36 3 0 3 C0 2.01 0 1.02 0 0 Z " fill="#000000" transform="translate(168,165)"/>
<path d="M0 0 C1.43472656 -0.02126953 1.43472656 -0.02126953 2.8984375 -0.04296875 C5.65510017 0.19004428 7.27447395 0.77829836 9.625 2.1875 C9.625 4.8275 9.625 7.4675 9.625 10.1875 C8.305 10.5175 6.985 10.8475 5.625 11.1875 C5.233125 10.218125 4.84125 9.24875 4.4375 8.25 C2.95038017 4.99991863 2.95038017 4.99991863 0.0625 4.25 C-2.38407507 3.99620706 -2.38407507 3.99620706 -4.375 5.1875 C-4.375 7.1675 -4.375 9.1475 -4.375 11.1875 C-3.62734375 11.56261719 -2.8796875 11.93773437 -2.109375 12.32421875 C8.3593716 17.76413027 8.3593716 17.76413027 10.625 22.1875 C11.11060502 26.07234013 10.96648084 28.41916812 9.375 32 C7.45661026 34.39798717 6.46548064 35.1072493 3.625 36.1875 C0.49609375 36.41796875 0.49609375 36.41796875 -2.9375 36.375 C-4.64099609 36.36533203 -4.64099609 36.36533203 -6.37890625 36.35546875 C-9.375 36.1875 -9.375 36.1875 -12.375 35.1875 C-12.705 31.8875 -13.035 28.5875 -13.375 25.1875 C-12.055 25.1875 -10.735 25.1875 -9.375 25.1875 C-8.92125 26.156875 -8.4675 27.12625 -8 28.125 C-6.71713779 31.25829582 -6.71713779 31.25829582 -4.375 32.1875 C-2.37539988 32.227492 -0.37452758 32.23096799 1.625 32.1875 C2.285 30.5375 2.945 28.8875 3.625 27.1875 C1.33830935 23.75746402 -0.6780896 21.8704219 -4.375 20.1875 C-8.09755168 18.44429016 -10.31562714 16.87720972 -12.375 13.1875 C-12.9375 9.6875 -12.9375 9.6875 -12.375 6.1875 C-8.431196 1.41342147 -6.05340443 0.04057242 0 0 Z " fill="#000000" transform="translate(105.375,154.8125)"/>
<path d="M0 0 C1.21945312 0.00644531 2.43890625 0.01289063 3.6953125 0.01953125 C6.875 0.1875 6.875 0.1875 9.875 1.1875 C9.875 4.4875 9.875 7.7875 9.875 11.1875 C8.885 11.1875 7.895 11.1875 6.875 11.1875 C6.2975 10.218125 5.72 9.24875 5.125 8.25 C3.12011236 4.88019914 3.12011236 4.88019914 -0.625 4.125 C-4.00934036 3.96342877 -4.00934036 3.96342877 -6.4375 5.1875 C-9.97804032 9.38369593 -10.52311758 14.69707057 -10.38671875 20.05859375 C-9.9114737 23.92439305 -8.80220349 27.67152754 -7.125 31.1875 C-4.03326248 32.73336876 -1.53070448 32.48109521 1.875 32.1875 C4.8344592 29.94790926 6.42185114 27.57818068 7.875 24.1875 C8.865 24.1875 9.855 24.1875 10.875 24.1875 C10.545 27.8175 10.215 31.4475 9.875 35.1875 C6.31059582 36.37563473 3.32025218 36.42937953 -0.4375 36.5 C-1.73300781 36.53738281 -3.02851563 36.57476562 -4.36328125 36.61328125 C-9.85923796 35.99120515 -12.84469591 33.64081815 -16.4375 29.5625 C-19.25586308 23.92577385 -19.73081288 18.11523388 -18.5 11.9375 C-16.7153603 7.07030083 -14.68073521 3.51252968 -9.90234375 1.03515625 C-6.49503229 -0.00476863 -3.55837895 -0.0415522 0 0 Z " fill="#000000" transform="translate(268.125,154.8125)"/>
<path d="M0 0 C0.7528125 0.05542969 1.505625 0.11085937 2.28125 0.16796875 C5.48987638 1.10005212 6.58596946 2.03884955 8.5 4.8125 C9.12523404 8.05702882 9.1964188 11.26482053 9.25 14.5625 C9.27964844 15.45066406 9.30929688 16.33882812 9.33984375 17.25390625 C9.41036918 19.44019449 9.46314637 21.62542768 9.5 23.8125 C10.16 23.8125 10.82 23.8125 11.5 23.8125 C11.5 24.8025 11.5 25.7925 11.5 26.8125 C8.15747276 26.88677838 5.6964086 26.87796953 2.5 25.8125 C2.17 26.1425 1.84 26.4725 1.5 26.8125 C-3.08285811 27.32170646 -7.13612443 27.65680392 -11.125 25.1875 C-12.92208081 22.08345134 -13.08890625 20.34593747 -12.5 16.8125 C-9.48219583 12.22018931 -4.53462496 11.23252242 0.5 9.8125 C0.83 7.8325 1.16 5.8525 1.5 3.8125 C-0.48 3.8125 -2.46 3.8125 -4.5 3.8125 C-4.479375 4.616875 -4.45875 5.42125 -4.4375 6.25 C-4.5 8.8125 -4.5 8.8125 -5.5 9.8125 C-8 9.9375 -8 9.9375 -10.5 9.8125 C-11.5 8.8125 -11.5 8.8125 -11.75 6.4375 C-11.5 3.8125 -11.5 3.8125 -10.25 2.0625 C-7.02387323 -0.24187626 -3.86387039 -0.35065947 0 0 Z M-4.5 15.8125 C-5.58024658 18.21360217 -5.58024658 18.21360217 -5.5 20.8125 C-4.43654948 22.79279682 -4.43654948 22.79279682 -2.5 23.8125 C-1.18 23.4825 0.14 23.1525 1.5 22.8125 C1.83 19.8425 2.16 16.8725 2.5 13.8125 C-0.66880694 13.8125 -1.93689172 14.0183242 -4.5 15.8125 Z " fill="#000000" transform="translate(158.5,164.1875)"/>
<path d="M0 0 C3.67608705 2.77281994 4.86564445 4.22864106 5.6640625 8.8125 C5.67723073 10.20833195 5.66361697 11.6046402 5.625 13 C5.65400391 14.04800781 5.65400391 14.04800781 5.68359375 15.1171875 C5.64783478 18.90763796 5.09179795 20.87255888 2.8671875 23.9609375 C-2.06977161 27.47196292 -7.18958524 26.93860546 -13 26 C-16.08593108 23.86358617 -17.30632727 22.54742379 -18.8125 19.1875 C-19.37470767 12.62841055 -19.52829436 7.8046133 -16 2 C-10.98260639 -1.21113191 -5.71435153 -2.09997371 0 0 Z M-10.8125 4.875 C-12.8833817 10.32468869 -12.8833817 15.67531131 -10.8125 21.125 C-9.12315608 23.20338313 -9.12315608 23.20338313 -6.5 23.625 C-3.87684392 23.20338313 -3.87684392 23.20338313 -2.1875 21.125 C-0.1166183 15.67531131 -0.1166183 10.32468869 -2.1875 4.875 C-3.87684392 2.79661687 -3.87684392 2.79661687 -6.5 2.375 C-9.12315608 2.79661687 -9.12315608 2.79661687 -10.8125 4.875 Z " fill="#000000" transform="translate(299,165)"/>
<path d="M0 0 C18.81 0 37.62 0 57 0 C57 1.32 57 2.64 57 4 C38.52 4 20.04 4 1 4 C0.67 2.68 0.34 1.36 0 0 Z " fill="#000000" transform="translate(246,143)"/>
</svg>
