<svg xmlns="http://www.w3.org/2000/svg" width="514" height="98" viewBox="0 0 514 98">
<g>
<path d="M 50.21 92.12 C44.47,93.98 40.49,94.36 22.75,94.76 L 2.00 95.23 L 2.00 1.81 L 24.75 2.21 C45.29,2.58 48.04,2.83 53.11,4.83 C70.41,11.64 77.84,22.74 78.77,43.14 C79.92,68.63 69.96,85.72 50.21,92.12 ZM 244.46 92.57 C240.04,94.73 237.25,95.32 230.23,95.57 C220.97,95.91 219.80,95.76 213.50,93.35 C200.31,88.31 192.90,73.73 194.28,55.53 C195.57,38.38 204.99,27.70 221.23,24.96 C238.37,22.07 253.30,29.92 259.17,44.92 C262.24,52.77 262.22,68.09 259.14,76.08 C256.26,83.54 251.13,89.30 244.46,92.57 ZM 141.75 93.47 C134.92,95.78 116.29,96.46 110.00,94.63 C100.28,91.81 94.01,86.73 89.89,78.36 C87.74,73.98 87.50,72.19 87.50,60.40 C87.50,47.40 87.53,47.25 91.01,40.40 C96.79,29.02 105.33,24.58 121.29,24.66 C129.28,24.69 130.70,25.01 136.79,28.11 C147.90,33.76 152.00,42.09 152.00,59.05 L 152.00 67.00 L 131.00 67.00 C114.86,67.00 110.00,67.29 110.00,68.25 C110.01,70.67 113.95,75.92 116.91,77.45 C120.70,79.41 130.72,79.45 137.95,77.52 C140.95,76.73 143.59,76.26 143.82,76.49 C144.40,77.06 146.97,88.12 146.98,90.10 C146.99,91.14 145.17,92.31 141.75,93.47 ZM 462.10 95.07 C449.68,97.10 435.63,95.42 428.58,91.04 C423.74,88.04 419.31,82.94 416.80,77.50 C414.81,73.16 414.50,70.91 414.50,60.50 C414.50,51.09 414.91,47.43 416.41,43.56 C418.65,37.75 424.91,30.60 430.06,27.97 C435.98,24.95 445.81,23.66 453.62,24.87 C471.09,27.59 479.00,37.97 479.00,58.18 L 479.00 67.00 L 458.00 67.00 C446.45,67.00 437.00,67.24 437.00,67.53 C437.00,69.99 440.50,75.33 443.19,76.97 C447.22,79.43 456.86,79.70 465.03,77.58 C468.04,76.80 470.71,76.38 470.97,76.64 C471.23,76.90 472.19,80.28 473.10,84.16 L 474.76 91.20 L 471.23 92.68 C469.28,93.49 465.18,94.57 462.10,95.07 ZM 348.00 94.16 C341.38,96.23 329.93,96.42 324.68,94.55 C319.57,92.73 317.11,90.38 314.66,85.00 C312.90,81.12 312.56,77.92 312.19,61.75 L 311.76 43.00 L 304.00 43.00 L 304.00 26.00 L 312.00 26.00 L 312.00 17.02 C312.00,8.52 312.12,8.01 314.25,7.54 C317.17,6.88 334.27,4.01 335.25,4.00 C335.66,4.00 336.00,8.95 336.00,15.00 L 336.00 26.00 L 351.00 26.00 L 351.00 43.00 L 336.00 43.00 L 336.00 58.43 C336.00,76.98 336.24,77.48 344.93,76.75 C347.99,76.49 351.31,75.94 352.29,75.52 C353.95,74.81 354.06,75.42 353.79,83.59 L 353.50 92.43 ZM 404.25 93.69 C399.39,95.74 383.56,96.42 379.50,94.74 C373.77,92.37 371.99,90.91 369.75,86.72 C367.67,82.82 367.47,80.98 367.17,62.75 L 366.85 43.00 L 359.00 43.00 L 359.00 26.00 L 367.00 26.00 L 367.00 7.30 L 375.71 6.08 C380.50,5.41 385.66,4.62 387.17,4.32 L 389.93 3.76 L 390.50 25.50 L 405.00 26.09 L 405.00 43.00 L 390.00 43.00 L 390.00 57.78 C390.00,76.35 390.51,77.45 398.88,76.75 C401.97,76.49 405.29,75.94 406.25,75.53 C407.84,74.85 408.00,75.58 408.00,83.44 L 408.00 92.10 ZM 185.00 2.00 L 185.00 95.00 L 161.00 95.00 L 161.00 2.00 ZM 295.00 26.00 L 295.00 95.00 L 271.00 95.00 L 271.00 26.00 ZM 26.00 22.00 L 26.00 74.00 L 32.54 74.00 C40.58,74.00 45.97,71.52 49.45,66.23 C55.72,56.69 55.40,36.86 48.83,28.51 C45.62,24.43 39.54,22.05 32.25,22.02 ZM 221.53 75.63 C224.60,78.69 231.09,78.91 233.95,76.05 C236.91,73.09 238.27,66.43 237.79,57.23 C237.46,50.95 236.87,48.30 235.33,46.23 C231.25,40.76 224.72,40.79 220.62,46.30 C216.55,51.77 217.16,71.25 221.53,75.63 ZM 506.10 93.72 C498.88,98.57 489.53,95.58 486.42,87.44 C484.82,83.25 484.83,82.74 486.48,78.42 C490.87,66.92 506.92,67.16 510.97,78.78 C512.26,82.49 512.26,83.51 510.97,87.22 C510.02,89.93 508.29,92.25 506.10,93.72 ZM 295.00 2.00 L 295.00 17.00 L 271.00 17.00 L 271.00 2.00 ZM 438.00 49.52 C438.00,52.00 438.01,52.00 448.12,52.00 L 458.25 52.00 L 457.60 48.75 C455.96,40.54 446.31,37.74 440.82,43.88 C439.27,45.61 438.00,48.15 438.00,49.52 ZM 111.00 49.58 C111.00,51.98 111.08,52.00 121.00,52.00 C132.05,52.00 132.45,51.71 129.43,45.87 C127.61,42.35 122.10,39.69 118.49,40.59 C115.24,41.41 111.00,46.49 111.00,49.58 Z" fill="rgb(18,16,13)"/>
<path d="M 0.00 49.00 L 0.00 0.00 L 257.00 0.00 L 514.00 0.00 L 514.00 49.00 L 514.00 98.00 L 257.00 98.00 L 0.00 98.00 L 0.00 49.00 ZM 141.75 93.47 C145.17,92.31 146.99,91.14 146.98,90.10 C146.97,88.12 144.40,77.06 143.82,76.49 C143.59,76.26 140.95,76.73 137.95,77.52 C130.72,79.45 120.70,79.41 116.91,77.45 C113.95,75.92 110.01,70.67 110.00,68.25 C110.00,67.29 114.86,67.00 131.00,67.00 L 152.00 67.00 L 152.00 59.05 C152.00,42.09 147.90,33.76 136.79,28.11 C130.70,25.01 129.28,24.69 121.29,24.66 C105.33,24.58 96.79,29.02 91.01,40.40 C87.53,47.25 87.50,47.40 87.50,60.40 C87.50,72.19 87.74,73.98 89.89,78.36 C94.01,86.73 100.28,91.81 110.00,94.63 C116.29,96.46 134.92,95.78 141.75,93.47 ZM 244.46 92.57 C251.13,89.30 256.26,83.54 259.14,76.08 C262.22,68.09 262.24,52.77 259.17,44.92 C253.30,29.92 238.37,22.07 221.23,24.96 C204.99,27.70 195.57,38.38 194.28,55.53 C192.90,73.73 200.31,88.31 213.50,93.35 C219.80,95.76 220.97,95.91 230.23,95.57 C237.25,95.32 240.04,94.73 244.46,92.57 ZM 348.00 94.16 L 353.50 92.43 L 353.79 83.59 C354.06,75.42 353.95,74.81 352.29,75.52 C351.31,75.94 347.99,76.49 344.93,76.75 C336.24,77.48 336.00,76.98 336.00,58.43 L 336.00 43.00 L 343.50 43.00 L 351.00 43.00 L 351.00 34.50 L 351.00 26.00 L 343.50 26.00 L 336.00 26.00 L 336.00 15.00 C336.00,8.95 335.66,4.00 335.25,4.00 C334.27,4.01 317.17,6.88 314.25,7.54 C312.12,8.01 312.00,8.52 312.00,17.02 L 312.00 26.00 L 308.00 26.00 L 304.00 26.00 L 304.00 34.50 L 304.00 43.00 L 307.88 43.00 L 311.76 43.00 L 312.19 61.75 C312.56,77.92 312.90,81.12 314.66,85.00 C317.11,90.38 319.57,92.73 324.68,94.55 C329.93,96.42 341.38,96.23 348.00,94.16 ZM 404.25 93.69 L 408.00 92.10 L 408.00 83.44 C408.00,75.58 407.84,74.85 406.25,75.53 C405.29,75.94 401.97,76.49 398.88,76.75 C390.51,77.45 390.00,76.35 390.00,57.78 L 390.00 43.00 L 397.50 43.00 L 405.00 43.00 L 405.00 34.54 L 405.00 26.09 L 397.75 25.79 L 390.50 25.50 L 390.21 14.63 L 389.93 3.76 L 387.17 4.32 C385.66,4.62 380.50,5.41 375.71,6.08 L 367.00 7.30 L 367.00 16.65 L 367.00 26.00 L 363.00 26.00 L 359.00 26.00 L 359.00 34.50 L 359.00 43.00 L 362.92 43.00 L 366.85 43.00 L 367.17 62.75 C367.47,80.98 367.67,82.82 369.75,86.72 C371.99,90.91 373.77,92.37 379.50,94.74 C383.56,96.42 399.39,95.74 404.25,93.69 ZM 462.10 95.07 C465.18,94.57 469.28,93.49 471.23,92.68 L 474.76 91.20 L 473.10 84.16 C472.19,80.28 471.23,76.90 470.97,76.64 C470.71,76.38 468.04,76.80 465.03,77.58 C456.86,79.70 447.22,79.43 443.19,76.97 C440.50,75.33 437.00,69.99 437.00,67.53 C437.00,67.24 446.45,67.00 458.00,67.00 L 479.00 67.00 L 479.00 58.18 C479.00,37.97 471.09,27.59 453.62,24.87 C445.81,23.66 435.98,24.95 430.06,27.97 C424.91,30.60 418.65,37.75 416.41,43.56 C414.91,47.43 414.50,51.09 414.50,60.50 C414.50,70.91 414.81,73.16 416.80,77.50 C419.31,82.94 423.74,88.04 428.58,91.04 C435.63,95.42 449.68,97.10 462.10,95.07 ZM 506.10 93.72 C508.29,92.25 510.02,89.93 510.97,87.22 C512.26,83.51 512.26,82.49 510.97,78.78 C506.92,67.16 490.87,66.92 486.48,78.42 C484.83,82.74 484.82,83.25 486.42,87.44 C489.53,95.58 498.88,98.57 506.10,93.72 ZM 50.21 92.12 C69.96,85.72 79.92,68.63 78.77,43.14 C77.84,22.74 70.41,11.64 53.11,4.83 C48.04,2.83 45.29,2.58 24.75,2.21 L 2.00 1.81 L 2.00 48.52 L 2.00 95.23 L 22.75 94.76 C40.49,94.36 44.47,93.98 50.21,92.12 ZM 185.00 48.50 L 185.00 2.00 L 173.00 2.00 L 161.00 2.00 L 161.00 48.50 L 161.00 95.00 L 173.00 95.00 L 185.00 95.00 L 185.00 48.50 ZM 295.00 60.50 L 295.00 26.00 L 283.00 26.00 L 271.00 26.00 L 271.00 60.50 L 271.00 95.00 L 283.00 95.00 L 295.00 95.00 L 295.00 60.50 ZM 295.00 9.50 L 295.00 2.00 L 283.00 2.00 L 271.00 2.00 L 271.00 9.50 L 271.00 17.00 L 283.00 17.00 L 295.00 17.00 L 295.00 9.50 ZM 111.00 49.58 C111.00,46.49 115.24,41.41 118.49,40.59 C122.10,39.69 127.61,42.35 129.43,45.87 C132.45,51.71 132.05,52.00 121.00,52.00 C111.08,52.00 111.00,51.98 111.00,49.58 ZM 221.53 75.63 C217.16,71.25 216.55,51.77 220.62,46.30 C224.72,40.79 231.25,40.76 235.33,46.23 C236.87,48.30 237.46,50.95 237.79,57.23 C238.27,66.43 236.91,73.09 233.95,76.05 C231.09,78.91 224.60,78.69 221.53,75.63 ZM 438.00 49.52 C438.00,48.15 439.27,45.61 440.82,43.88 C446.31,37.74 455.96,40.54 457.60,48.75 L 458.25 52.00 L 448.12 52.00 C438.01,52.00 438.00,52.00 438.00,49.52 ZM 26.00 48.00 L 26.00 22.00 L 32.25 22.02 C39.54,22.05 45.62,24.43 48.83,28.51 C55.40,36.86 55.72,56.69 49.45,66.23 C45.97,71.52 40.58,74.00 32.54,74.00 L 26.00 74.00 L 26.00 48.00 Z" fill="rgb(250,250,250)"/>
</g>
</svg>