<?xml version="1.0" encoding="UTF-8"?>
<svg version="1.1" xmlns="http://www.w3.org/2000/svg" width="1551" height="573">
<path d="M0 0 C1.63620076 -0.00043636 3.27240144 -0.00131246 4.90860176 -0.00258917 C9.39415759 -0.00482142 13.87968947 -0.00083021 18.36524224 0.0041889 C23.20631931 0.00851143 28.04739505 0.00704569 32.88847351 0.00628662 C41.27247436 0.00576253 49.65646742 0.00889735 58.04046631 0.01452446 C70.16228927 0.022655 82.28410847 0.02525628 94.40593386 0.02651245 C114.0732777 0.02870052 133.74061739 0.03535399 153.40795898 0.04481506 C172.51179992 0.0539955 191.61563973 0.06107325 210.71948242 0.06532288 C211.89724389 0.0655856 213.07500535 0.06584832 214.28845656 0.06611901 C220.19699962 0.06742405 226.10554269 0.06868776 232.01408577 0.06993091 C281.02347298 0.08029591 330.0328525 0.09873013 379.04223633 0.12025452 C379.04223633 33.12025452 379.04223633 66.12025452 379.04223633 100.12025452 C255.62223633 100.12025452 132.20223633 100.12025452 5.04223633 100.12025452 C5.04223633 145.00025452 5.04223633 189.88025452 5.04223633 236.12025452 C128.46223633 236.12025452 251.88223633 236.12025452 379.04223633 236.12025452 C379.04223633 269.12025452 379.04223633 302.12025452 379.04223633 336.12025452 C255.62223633 336.12025452 132.20223633 336.12025452 5.04223633 336.12025452 C5.04223633 381.33025452 5.04223633 426.54025452 5.04223633 473.12025452 C128.46223633 473.12025452 251.88223633 473.12025452 379.04223633 473.12025452 C379.04223633 505.79025452 379.04223633 538.46025452 379.04223633 572.12025452 C328.11917641 572.20849351 277.1961888 572.28232818 226.27307427 572.32451583 C220.25643089 572.32951845 214.23978767 572.33469576 208.22314453 572.33998108 C206.42649274 572.34155494 206.42649274 572.34155494 204.59354495 572.3431606 C185.21835796 572.36054947 165.84321861 572.39207879 146.46805985 572.4288657 C126.57637244 572.46631737 106.68470993 572.4884993 86.79298872 572.4966085 C74.52608344 572.50208749 62.25931284 572.51937096 49.99244904 572.55192038 C41.57211907 572.57312044 33.15185837 572.57944215 24.73150367 572.57426003 C19.87879182 572.57170679 15.02631476 572.57552517 10.17364502 572.59707642 C5.71989736 572.61671027 1.26653974 572.61741681 -3.18722684 572.6038501 C-4.78779582 572.60217629 -6.38839033 572.607107 -7.98890995 572.61978725 C-21.88553299 572.72336986 -36.09691423 571.10766887 -48.45776367 564.24525452 C-49.11808594 563.89503235 -49.7784082 563.54481018 -50.45874023 563.18397522 C-52.30787332 562.18862084 -54.13561016 561.16399684 -55.95776367 560.12025452 C-56.80854492 559.63685608 -57.65932617 559.15345764 -58.53588867 558.65541077 C-78.71683741 546.13305948 -92.54719841 525.02988212 -97.95776367 502.12025452 C-99.85587264 491.41411834 -100.24674057 480.93066073 -100.21846008 470.08670044 C-100.22148787 468.41873662 -100.22538046 466.75077418 -100.23005265 465.08281416 C-100.24026039 460.54133405 -100.23816945 455.99993352 -100.23387206 451.4584471 C-100.23139164 446.54423987 -100.24043516 441.63005115 -100.24790955 436.71585083 C-100.26062152 427.10519117 -100.26245467 417.49455949 -100.26010928 407.88389284 C-100.25832228 400.06878589 -100.26008393 392.2536874 -100.26433372 384.43858147 C-100.26492891 383.32398744 -100.2655241 382.20939342 -100.26613733 381.06102381 C-100.26734914 378.79635052 -100.26856328 376.53167723 -100.2697797 374.26700395 C-100.28064144 353.05710839 -100.27849904 331.84722876 -100.27239486 310.63733231 C-100.26722513 291.25596207 -100.27848508 271.87464209 -100.29749308 252.49328179 C-100.31688794 232.5638262 -100.3251247 212.63439437 -100.32136983 192.70492929 C-100.31946052 181.52747247 -100.32191914 170.35005843 -100.33608437 159.17260933 C-100.34802003 149.65871115 -100.34937844 140.14488211 -100.3372942 130.63098294 C-100.3314213 125.7823886 -100.33026201 120.93392057 -100.3422966 116.08533478 C-100.35320846 111.63721563 -100.34998959 107.18932745 -100.33603492 102.74121886 C-100.33340254 101.14179699 -100.33570801 99.54235671 -100.34377078 97.942953 C-100.4741092 70.13279693 -92.05807261 45.6637117 -72.39526367 25.49134827 C-51.88866235 5.96834847 -27.46131602 -0.05440058 0 0 Z " fill="#FFFFFF" transform="translate(99.957763671875,-0.1202545166015625)"/>
<path d="M0 0 C16.62892419 -0.37461112 33.25647021 -0.65630647 49.88860035 -0.82899475 C57.61231244 -0.91132899 65.333396 -1.02345044 73.05541992 -1.20703125 C79.79022336 -1.36706518 86.52312336 -1.46985461 93.25977534 -1.50541592 C96.82448112 -1.52619397 100.38374492 -1.57457817 103.94669533 -1.69168091 C125.58644801 -2.37597111 125.58644801 -2.37597111 131.25588608 1.57018852 C134.8637815 5.27248121 137.1597561 9.41210347 139.17272758 14.14043999 C140.25666587 16.57693884 141.70982681 18.63135898 143.3125 20.75390625 C143.76173828 21.39199219 144.21097656 22.03007812 144.67382812 22.6875 C145.11146484 23.30625 145.54910156 23.925 146 24.5625 C146.49435547 25.26246094 146.98871094 25.96242188 147.49804688 26.68359375 C151.22703247 31.94692628 155.02987371 37.15269062 158.85986328 42.34277344 C162.7748334 47.66064281 166.58288821 53.04996166 170.37890625 58.453125 C174.04533327 63.66529503 177.76027996 68.84021063 181.5 74 C186.21048598 80.50052661 190.86297689 87.03863995 195.48046875 93.60546875 C199.11454566 98.7656672 202.79671401 103.8892894 206.5 109 C211.21040657 115.50058483 215.86297608 122.0386388 220.48046875 128.60546875 C224.11454607 133.76566777 227.79675039 138.88926253 231.5 144 C235.76749079 149.8901423 239.99939395 155.80313227 244.1875 161.75 C244.68378906 162.45439209 245.18007813 163.15878418 245.69140625 163.88452148 C246.6645848 165.26592655 247.63773013 166.64735503 248.61083984 168.02880859 C250.73549774 171.04365708 252.86276824 174.05654815 255 177.0625 C255.3926001 177.61486328 255.7852002 178.16722656 256.18969727 178.73632812 C258.50973597 181.97904027 260.87970571 185.17848615 263.2890625 188.35546875 C263.84335937 189.08693115 264.39765625 189.81839355 264.96875 190.57202148 C266.05529035 192.00082845 267.14629628 193.42625286 268.2421875 194.84790039 C272 199.78188348 272 199.78188348 272 202 C275.29923052 198.90322226 277.9194531 195.50730254 280.5 191.8125 C280.92651855 191.20881592 281.35303711 190.60513184 281.79248047 189.9831543 C283.19867477 187.99134109 284.59939389 185.99574581 286 184 C288.04023546 181.10315693 290.08259628 178.20781462 292.125 175.3125 C292.89469116 174.22050293 292.89469116 174.22050293 293.67993164 173.10644531 C297.02360035 168.36738729 300.40497395 163.65864101 303.828125 158.9765625 C307.19217913 154.36611421 310.52883387 149.73593047 313.86865234 145.10791016 C316.67766639 141.21559198 319.48829808 137.32448599 322.3046875 133.4375 C327.56202893 126.17758657 332.78840603 118.89965964 337.9375 111.5625 C342.26786136 105.39285262 346.69985149 99.30610031 351.1875 93.25 C355.80126148 87.02322668 360.29687301 80.7459017 364.67578125 74.3515625 C369.10098871 67.92730803 373.73043305 61.64465559 378.31054688 55.33056641 C381.04565922 51.55753426 383.77257459 47.77859057 386.5 44 C389.75865432 39.48605494 393.01866665 34.97312328 396.28515625 30.46484375 C397.10886719 29.32692383 397.10886719 29.32692383 397.94921875 28.16601562 C398.96012526 26.76959393 399.9717335 25.37367967 400.984375 23.97851562 C401.46519531 23.31400391 401.94601562 22.64949219 402.44140625 21.96484375 C402.96789261 21.283685 403.49437897 20.60252625 404.03681946 19.90072632 C405.63902298 17.53336691 406.76115502 15.42514537 407.94694519 12.85476685 C410.97527633 6.88946492 414.21762959 1.27199799 420.84250069 -0.95592308 C428.85676058 -2.32538803 436.96884946 -2.00922515 445.06365108 -1.72369695 C448.61847505 -1.61655653 452.17360809 -1.60737371 455.72979736 -1.58726501 C462.44655198 -1.53466774 469.15853634 -1.3955362 475.87320065 -1.22432369 C483.52440877 -1.0335168 491.1758595 -0.94064719 498.82885885 -0.85550129 C514.55532445 -0.67836232 530.2770445 -0.37986449 546 0 C544.73765777 3.24984913 543.48692834 5.98179807 541.41796875 8.79296875 C540.64815674 9.84810669 540.64815674 9.84810669 539.86279297 10.92456055 C539.03352295 12.04471558 539.03352295 12.04471558 538.1875 13.1875 C537.00634648 14.80196341 535.82536165 16.41655024 534.64453125 18.03125 C534.03947754 18.85496094 533.43442383 19.67867187 532.81103516 20.52734375 C529.97629105 24.39769807 527.17757005 28.29382411 524.375 32.1875 C519.92940729 38.35025445 515.44941098 44.48655855 510.94604492 50.60717773 C507.99097924 54.63008085 505.07778327 58.68036851 502.1875 62.75 C498.24747416 68.2948695 494.23036154 73.77972584 490.1875 79.25 C482.1087552 90.1831687 474.12965515 101.18701959 466.25146484 112.265625 C461.939301 118.32921802 457.55157581 124.33185613 453.125 130.3125 C448.67579739 136.32488736 444.29138347 142.37397279 440 148.5 C435.19533481 155.35693329 430.26387685 162.11144568 425.28344727 168.84155273 C419.663857 176.4391646 414.12978055 184.09661984 408.60888672 191.76611328 C405.90987872 195.51359784 403.20461116 199.25655845 400.5 203 C399.41663696 204.49997854 398.33330362 205.99997854 397.25 207.5 C364.75 252.5 364.75 252.5 363.12207031 254.75366211 C362.04800249 256.24109408 360.97442781 257.72888227 359.90136719 259.21704102 C357.05539008 263.16252145 354.19899922 267.09993336 351.328125 271.02734375 C350.4299707 272.26000977 350.4299707 272.26000977 349.51367188 273.51757812 C348.36184939 275.09798572 347.20702943 276.67621427 346.04882812 278.25195312 C345.53255859 278.96158203 345.01628906 279.67121094 344.484375 280.40234375 C344.02772461 281.02616943 343.57107422 281.64999512 343.10058594 282.29272461 C341.82149327 284.12180665 341.82149327 284.12180665 341 287 C341.86123785 288.80182683 341.86123785 288.80182683 343.2890625 290.59765625 C343.81177734 291.30728516 344.33449219 292.01691406 344.87304688 292.74804688 C345.45119141 293.51181641 346.02933594 294.27558594 346.625 295.0625 C347.83620843 296.69901826 349.04713838 298.33574267 350.2578125 299.97265625 C350.88204102 300.80941895 351.50626953 301.64618164 352.14941406 302.50830078 C354.97301429 306.31010341 357.73531425 310.15526627 360.5 314 C361.58299397 315.50024504 362.66632857 317.00024424 363.75 318.5 C365.91666667 321.5 368.08333333 324.5 370.25 327.5 C370.78633057 328.24258057 371.32266113 328.98516113 371.87524414 329.75024414 C372.95788254 331.2493445 374.0404022 332.74853062 375.12280273 334.24780273 C377.84079823 338.01228168 380.56088068 341.77521904 383.28515625 345.53515625 C388.65388582 352.94949635 393.98899035 360.38375234 399.25 367.875 C403.33383634 373.68826663 407.51612352 379.40212013 411.8046875 385.06640625 C414.59463677 388.79461248 417.29746227 392.58187939 419.99536133 396.37670898 C423.41306003 401.18335628 426.85715611 405.97034771 430.3125 410.75 C430.8600293 411.50748535 431.40755859 412.2649707 431.97167969 413.04541016 C433.08990747 414.592194 434.20823482 416.13890587 435.32666016 417.68554688 C438.05263139 421.45593019 440.77621534 425.22803694 443.5 429 C444.58332144 430.50000859 445.66665479 432.00000858 446.75 433.5 C453.25 442.5 453.25 442.5 454.87475586 444.74975586 C455.95878416 446.2506555 457.04293142 447.75146922 458.12719727 449.25219727 C460.82587655 452.98773967 463.52251312 456.72472254 466.21484375 460.46484375 C471.82903178 468.25915847 477.47885383 476.024536 483.1875 483.75 C488.00286929 490.26722873 492.75864473 496.82113315 497.453125 503.42578125 C500.38542733 507.54889574 503.34848276 511.64965194 506.3125 515.75 C506.86043213 516.50804932 507.40836426 517.26609863 507.97290039 518.04711914 C509.09072453 519.59333097 510.20864504 521.13947313 511.32666016 522.68554688 C513.51324445 525.70988581 515.69828591 528.73533712 517.88305664 531.76098633 C518.9588044 533.25059568 520.03481247 534.74001707 521.11108398 536.22924805 C523.89947366 540.0879883 526.68354891 543.94973864 529.4609375 547.81640625 C530.59871359 549.39861352 531.73673004 550.98064799 532.875 552.5625 C533.41729248 553.31660156 533.95958496 554.07070313 534.51831055 554.84765625 C537.86822767 559.48751673 541.29740996 564.04090707 544.92578125 568.46875 C546 570 546 570 546 572 C529.40578137 572.42174557 512.81331707 572.73848806 496.21502399 572.93261909 C488.5066731 573.02518423 480.80166349 573.15119053 473.09545898 573.35791016 C466.37308309 573.53815148 459.6531267 573.6536309 452.92840165 573.69359291 C449.37080554 573.71693861 445.82012543 573.77113876 442.26476479 573.90314102 C420.73847968 574.67170248 420.73847968 574.67170248 414.56545639 570.26015472 C410.48317728 566.10292595 407.70458198 561.42512091 405.14676476 556.22358322 C403.42240851 552.8800469 401.25182764 550.01043367 399 547 C398.19249055 545.87311057 397.3874831 544.74442047 396.5859375 543.61328125 C393.61783108 539.45770056 390.61972586 535.32391278 387.625 531.1875 C380.34946094 521.13098397 373.19615211 510.98991661 366.07421875 500.82421875 C360.23175324 492.49848714 354.27456719 484.27037253 348.22021484 476.09741211 C342.8220682 468.79522176 337.5876118 461.38447866 332.37304688 453.95068359 C330.26483337 450.95555096 328.13324776 447.97732939 326 445 C322.37156597 439.93356907 318.77430814 434.84597019 315.1875 429.75 C309.88053039 422.21478903 304.49347879 414.73949773 299.08984375 407.2734375 C290.6309119 395.5835009 282.31100537 383.79534439 274 372 C269.71178393 376.01231981 266.38309717 380.39972807 263 385.1875 C261.84521018 386.8048004 260.69025769 388.42198465 259.53515625 390.0390625 C258.94879395 390.8630957 258.36243164 391.68712891 257.75830078 392.53613281 C255.53951659 395.645265 253.29854732 398.73795472 251.05615234 401.83007812 C246.28098988 408.41591305 241.55282793 415.0321956 236.875 421.6875 C232.65202658 427.69544156 228.35624641 433.64303406 223.99902344 439.55419922 C221.00686322 443.61652457 218.05084497 447.70217398 215.125 451.8125 C209.67839949 459.46385828 204.17676814 467.07500046 198.67333984 474.68554688 C195.40615861 479.20449612 192.1419708 483.72560847 188.87792969 488.24682617 C186.15966599 492.01161322 183.43935801 495.77488961 180.71484375 499.53515625 C175.43419578 506.82747964 170.1804866 514.1361012 165 521.5 C158.1656476 531.21481703 151.19691656 540.83100091 144.22558594 550.44775391 C142.46200162 552.88119338 140.69973343 555.31558216 138.9375 557.75 C138.40133057 558.48855225 137.86516113 559.22710449 137.31274414 559.98803711 C136.80606201 560.68807861 136.29937988 561.38812012 135.77734375 562.109375 C135.33640381 562.71749023 134.89546387 563.32560547 134.44116211 563.95214844 C132.84236894 566.07384929 132.84236894 566.07384929 131.67842102 569.0854187 C128.58784006 572.44850069 127.9831342 572.46156298 123.62164307 572.7215271 C121.31582253 572.73896036 119.00961042 572.72287995 116.70410156 572.68115234 C115.44530685 572.6820285 114.18651215 572.68290466 112.88957214 572.68380737 C109.44105727 572.68552864 105.99379508 572.6502607 102.54557133 572.60836363 C98.94082559 572.57084971 95.33605096 572.56733081 91.73114014 572.56021118 C84.90633951 572.54156402 78.08211571 572.49232963 71.25756907 572.43211424 C63.48745184 572.36504435 55.71730702 572.33205905 47.94697237 572.30194163 C31.9643142 572.23922976 15.98223149 572.13369828 0 572 C4.36429127 564.31098271 4.36429127 564.31098271 6.77734375 561.01171875 C7.28386475 560.31506104 7.79038574 559.61840332 8.31225586 558.90063477 C8.84858643 558.17030029 9.38491699 557.43996582 9.9375 556.6875 C11.10429281 555.08602939 12.27095588 553.48446426 13.4375 551.8828125 C14.32695313 550.66513184 14.32695313 550.66513184 15.234375 549.42285156 C17.4497649 546.38281708 19.64717892 543.33008017 21.84399414 540.27661133 C27.43115677 532.51347699 33.08401606 524.80102385 38.76708984 517.10791016 C44.90919634 508.78497251 50.95790683 500.39567785 57 492 C63.68226075 482.71478923 70.38889007 473.45050301 77.1875 464.25 C82.00286929 457.73277127 86.75864473 451.17886685 91.453125 444.57421875 C94.38542733 440.45110426 97.34848276 436.35034806 100.3125 432.25 C100.86043213 431.49195068 101.40836426 430.73390137 101.97290039 429.95288086 C103.09072453 428.40666903 104.20864504 426.86052687 105.32666016 425.31445312 C108.05263139 421.54406981 110.77621534 417.77196306 113.5 414 C114.58332144 412.49999141 115.66665479 410.99999142 116.75 409.5 C117.28625 408.7575 117.8225 408.015 118.375 407.25 C133 387 147.625 366.75 162.25 346.5 C162.78633057 345.75733887 163.32266113 345.01467773 163.87524414 344.24951172 C164.95757349 342.75100194 166.04009274 341.2526293 167.12280273 339.75439453 C169.84807844 335.98270148 172.56991237 332.20861023 175.28515625 328.4296875 C180.56308621 321.09081419 185.8788034 313.78701325 191.3125 306.5625 C191.80387451 305.90515869 192.29524902 305.24781738 192.80151367 304.57055664 C195.02984758 301.59354472 197.27600442 298.63934297 199.59765625 295.734375 C200.72494141 294.28804688 200.72494141 294.28804688 201.875 292.8125 C202.53242187 291.99394531 203.18984375 291.17539062 203.8671875 290.33203125 C205.25957156 288.06761054 205.25957156 288.06761054 204.5234375 285.67578125 C202.47463912 282.07725076 200.17064912 278.73217276 197.75 275.375 C197.22277344 274.63572266 196.69554687 273.89644531 196.15234375 273.13476562 C191.57339918 266.73818381 186.89819096 260.41277595 182.21606445 254.09155273 C177.88316925 248.23150421 173.65299326 242.3067962 169.46655273 236.34155273 C164.2625276 228.93148283 158.9538049 221.59847977 153.64111328 214.26611328 C150.92351821 210.51355192 148.21209981 206.75653374 145.5 203 C144.41928266 201.50389771 143.33855348 200.00780396 142.2578125 198.51171875 C140.06360376 195.47373582 137.87107461 192.43455006 135.6796875 189.39453125 C130.62700919 182.38780314 125.56228267 175.39170338 120.4375 168.4375 C116.61959316 163.25472424 112.88396071 158.01999104 109.1875 152.75 C104.87532489 146.60291663 100.47064886 140.53274185 96 134.5 C91.01881031 127.77832884 86.14058168 120.9954348 81.33691406 114.14599609 C76.72208523 107.57612424 71.97769002 101.10569545 67.21240234 94.64453125 C62.70074372 88.52481066 58.24997145 82.36644958 53.88085938 76.14428711 C48.44762756 68.40756937 42.90855621 60.75977332 37.28491211 53.16040039 C31.11911391 44.82441741 25.05732375 36.41495394 19 28 C16.68866505 24.79082536 14.37586948 21.58270821 12.0625 18.375 C11.54292725 17.65304443 11.02335449 16.93108887 10.48803711 16.18725586 C9.98796143 15.4938208 9.48788574 14.80038574 8.97265625 14.0859375 C8.48812988 13.41401367 8.00360352 12.74208984 7.50439453 12.04980469 C5.42071565 9.21069922 3.26542635 6.42752392 1.09936523 3.65087891 C0 2 0 2 0 0 Z " fill="#FFFFFF" transform="translate(525,0)"/>
<path d="M0 0 C39.6 0 79.2 0 120 0 C120 154.11 120 308.22 120 467 C223.62 467 327.24 467 434 467 C434 501.65 434 536.3 434 572 C388.80967337 572.08825772 343.61942832 572.16208515 298.42904011 572.20426132 C293.08835406 572.20926387 287.7476682 572.21444119 282.40698242 572.21972656 C280.81219713 572.22130043 280.81219713 572.22130043 279.18519395 572.22290608 C261.9924564 572.24028958 244.79977259 572.27181591 227.60706688 572.30861118 C209.95280441 572.34607786 192.29857 572.36824795 174.64426941 572.37635398 C163.75928254 572.38182988 152.87444762 572.39909634 141.98950755 572.43166587 C134.51529097 572.45288451 127.04115243 572.45918348 119.56690795 572.45400551 C115.26100625 572.45145512 110.95536923 572.45523733 106.64951515 572.4768219 C67.7389888 572.66225948 67.7389888 572.66225948 51.1875 564.3125 C50.48794189 563.96928711 49.78838379 563.62607422 49.06762695 563.27246094 C27.69902307 552.4277414 11.67610195 533.61939341 4 511 C0.10524265 498.0636513 -0.56734701 485.54390433 -0.48101807 472.11923218 C-0.48276642 470.07016844 -0.48627615 468.02110559 -0.49137473 465.97204745 C-0.50024668 460.39162281 -0.48441905 454.81150987 -0.46426249 449.23112488 C-0.44688876 443.19457576 -0.45284117 437.15804233 -0.45587158 431.12147522 C-0.4579627 420.67936944 -0.44561942 410.23734636 -0.42292023 399.79526901 C-0.39919362 388.85233456 -0.38384468 377.90944024 -0.37950897 366.96648026 C-0.37923401 366.28424861 -0.37895906 365.60201696 -0.37867576 364.89911162 C-0.3773223 361.43393077 -0.37611681 357.96874989 -0.37496826 354.50356896 C-0.36658268 330.0056073 -0.3396783 305.50769789 -0.30175781 281.00976562 C-0.26497779 257.22103146 -0.2366641 233.43231162 -0.21972656 209.64355469 C-0.21920046 208.90935259 -0.21867435 208.1751505 -0.21813231 207.41869986 C-0.2128579 200.04505696 -0.20775469 192.67141395 -0.20277687 185.29777084 C-0.19263398 170.27888626 -0.18134897 155.26000261 -0.16937256 140.24111938 C-0.1688234 139.55068456 -0.16827424 138.86024974 -0.16770844 138.14889266 C-0.1309505 92.09923503 -0.06500018 46.0496284 0 0 Z " fill="#FFFFFF" transform="translate(1117,0)"/>
</svg>
