<svg xmlns="http://www.w3.org/2000/svg" width="449" height="112" viewBox="0 0 449 112">
<g>
<path d="M 94.33 91.25 C85.61,95.36 75.32,96.07 67.33,93.12 C38.29,82.38 23.74,40.02 43.08,22.55 C50.75,15.62 61.08,14.59 73.27,19.53 L 79.04 21.87 L 84.45 19.48 C96.25,14.26 107.67,15.67 115.29,23.29 C132.42,40.42 120.55,78.89 94.33,91.25 ZM 71.15 85.30 C77.72,88.54 85.77,87.11 90.70,81.83 C95.70,76.48 97.44,65.54 94.67,56.78 L 93.50 53.07 L 87.29 57.03 C83.87,59.21 80.85,61.00 80.56,61.00 C79.47,61.00 76.88,54.73 77.66,54.00 C78.12,53.57 82.55,50.72 87.50,47.65 C87.65,47.56 87.80,47.46 87.95,47.37 C93.08,44.20 95.48,42.71 97.10,43.31 C98.57,43.87 99.39,46.16 101.01,50.50 C102.65,54.89 103.29,58.85 103.38,65.25 C103.45,70.06 103.72,73.99 104.00,73.99 C104.88,74.00 110.80,64.63 112.39,60.72 C120.52,40.67 111.84,22.11 95.38,24.36 C84.26,25.89 72.38,35.81 66.22,48.72 C62.73,56.02 62.50,57.09 62.50,66.07 C62.50,74.75 62.75,76.02 65.15,79.65 C66.61,81.85 69.31,84.40 71.15,85.30 ZM 257.00 76.32 C251.18,78.98 228.38,80.16 227.49,77.85 C227.20,77.08 227.08,66.79 227.23,54.98 L 227.50 33.50 L 239.50 33.50 C253.75,33.50 259.05,35.10 264.37,40.99 C269.93,47.14 271.44,55.67 268.46,64.11 C266.50,69.66 262.70,73.71 257.00,76.32 ZM 172.28 77.65 C167.90,79.49 157.24,79.31 153.50,77.34 C145.28,73.01 141.04,65.93 141.04,56.50 C141.04,42.49 150.83,33.00 165.27,33.00 C173.47,33.00 181.01,36.54 184.71,42.14 C186.13,44.29 187.11,46.21 186.90,46.42 C186.68,46.62 184.71,47.53 182.52,48.44 C178.56,50.08 178.53,50.08 176.67,47.52 C170.69,39.31 156.20,40.50 152.44,49.49 C149.35,56.89 151.88,65.61 158.03,68.72 C161.56,70.50 168.56,70.29 172.30,68.28 L 175.50 66.57 L 172.00 66.03 C168.77,65.54 168.50,65.23 168.50,62.00 L 168.50 58.50 L 178.29 58.21 L 188.07 57.93 L 187.79 68.21 L 187.50 78.50 L 184.00 78.50 C180.93,78.50 180.46,78.17 180.18,75.75 C179.82,72.61 178.84,72.28 176.87,74.65 C176.12,75.57 174.05,76.92 172.28,77.65 ZM 367.84 77.40 C366.54,78.31 363.55,79.00 360.93,79.00 C352.18,79.00 346.00,72.13 346.00,62.41 C346.00,50.75 357.57,42.78 367.21,47.81 L 370.92 49.75 L 371.50 33.50 L 379.50 33.50 L 379.50 78.50 L 376.04 78.83 C373.67,79.05 372.20,78.63 371.36,77.48 C370.23,75.93 369.95,75.92 367.84,77.40 ZM 330.95 77.52 C329.38,78.34 326.16,79.00 323.80,79.00 C314.72,78.99 308.40,71.31 309.23,61.28 C310.18,49.82 320.88,42.94 330.21,47.81 L 333.92 49.75 L 334.50 33.50 L 342.50 33.50 L 342.50 78.50 L 338.74 78.81 C336.08,79.03 334.81,78.68 334.39,77.59 C333.87,76.22 333.49,76.21 330.95,77.52 ZM 294.68 77.51 C293.48,78.35 290.35,79.00 287.51,79.00 C278.42,79.00 272.00,72.06 272.00,62.23 C272.01,51.15 284.21,42.83 293.22,47.76 C296.17,49.38 297.00,49.52 297.00,48.42 C297.00,47.40 298.29,47.00 301.53,47.00 L 306.05 47.00 L 305.50 78.50 L 301.74 78.81 C299.07,79.03 297.81,78.68 297.39,77.58 C296.86,76.20 296.56,76.19 294.68,77.51 ZM 217.10 76.75 C214.51,78.47 212.26,79.00 207.58,79.00 C197.29,79.00 190.67,72.72 190.63,62.92 C190.58,47.63 208.99,40.75 220.13,51.90 C225.25,57.02 226.18,63.05 222.86,69.74 C221.56,72.35 218.97,75.51 217.10,76.75 ZM 400.51 88.75 C397.57,91.49 396.29,91.99 392.26,91.96 C387.75,91.92 382.00,89.81 382.00,88.19 C382.00,87.78 382.70,86.44 383.56,85.22 C384.88,83.33 385.72,83.09 389.05,83.62 C391.59,84.03 393.52,83.81 394.49,83.00 C396.61,81.25 396.37,79.00 394.06,79.00 C392.99,79.00 391.87,78.60 391.56,78.10 C390.24,75.96 382.14,48.59 382.60,47.83 C382.89,47.37 385.09,47.00 387.50,47.00 L 391.88 47.00 L 394.37 55.25 C395.74,59.79 397.29,65.07 397.80,67.00 C398.93,71.18 399.05,70.93 402.76,57.50 L 405.52 47.50 L 409.39 47.18 C411.52,47.01 413.62,47.23 414.07,47.68 C414.51,48.13 412.42,56.83 409.43,67.00 C404.56,83.58 403.64,85.84 400.51,88.75 ZM 51.76 71.75 C53.12,73.54 54.31,75.00 54.40,75.00 C54.49,75.00 54.40,71.96 54.19,68.25 C53.51,56.25 58.64,42.23 67.30,32.39 C69.61,29.77 70.90,27.51 70.39,27.00 C68.71,25.33 60.42,23.70 56.96,24.35 C39.74,27.60 37.03,52.39 51.76,71.75 ZM 237.00 42.00 L 237.00 70.00 L 242.75 70.00 C252.78,70.00 260.00,64.13 260.00,56.00 C260.00,47.87 252.78,42.00 242.75,42.00 ZM 202.45 68.55 C207.36,73.45 215.00,70.07 215.00,63.00 C215.00,58.61 211.53,55.00 207.32,55.00 C203.88,55.00 200.00,59.24 200.00,63.00 C200.00,64.95 200.91,67.00 202.45,68.55 ZM 358.45 68.55 C359.80,69.90 362.08,71.00 363.50,71.00 C367.10,71.00 371.00,66.84 371.00,63.00 C371.00,59.08 367.10,55.00 363.36,55.00 C356.67,55.00 353.55,63.64 358.45,68.55 ZM 284.45 68.55 C285.80,69.90 288.08,71.00 289.50,71.00 C293.10,71.00 297.00,66.84 297.00,63.00 C297.00,59.16 293.10,55.00 289.50,55.00 C285.90,55.00 282.00,59.16 282.00,63.00 C282.00,64.95 282.91,67.00 284.45,68.55 ZM 321.45 68.55 C322.80,69.90 325.08,71.00 326.50,71.00 C330.10,71.00 334.00,66.84 334.00,63.00 C334.00,59.16 330.10,55.00 326.50,55.00 C322.90,55.00 319.00,59.16 319.00,63.00 C319.00,64.95 319.91,67.00 321.45,68.55 ZM 422.00 41.67 C422.00,42.40 421.11,43.00 420.03,43.00 C418.80,43.00 418.25,42.50 418.57,41.67 C418.86,40.93 419.74,40.33 420.54,40.33 C421.34,40.33 422.00,40.93 422.00,41.67 Z" fill="rgb(23,23,23)"/>
<path d="M 0.00 56.00 L 0.00 0.00 L 224.50 0.00 L 449.00 0.00 L 449.00 56.00 L 449.00 112.00 L 224.50 112.00 L 0.00 112.00 L 0.00 56.00 ZM 94.33 91.25 C120.55,78.89 132.42,40.42 115.29,23.29 C107.67,15.67 96.25,14.26 84.45,19.48 L 79.04 21.87 L 73.27 19.53 C61.08,14.59 50.75,15.62 43.08,22.55 C23.74,40.02 38.29,82.38 67.33,93.12 C75.32,96.07 85.61,95.36 94.33,91.25 ZM 400.51 88.75 C403.64,85.84 404.56,83.58 409.43,67.00 C412.42,56.83 414.51,48.13 414.07,47.68 C413.62,47.23 411.52,47.01 409.39,47.18 L 405.52 47.50 L 402.76 57.50 C399.05,70.93 398.93,71.18 397.80,67.00 C397.29,65.07 395.74,59.79 394.37,55.25 L 391.88 47.00 L 387.50 47.00 C385.09,47.00 382.89,47.37 382.60,47.83 C382.14,48.59 390.24,75.96 391.56,78.10 C391.87,78.60 392.99,79.00 394.06,79.00 C396.37,79.00 396.61,81.25 394.49,83.00 C393.52,83.81 391.59,84.03 389.05,83.62 C385.72,83.09 384.88,83.33 383.56,85.22 C382.70,86.44 382.00,87.78 382.00,88.19 C382.00,89.81 387.75,91.92 392.26,91.96 C396.29,91.99 397.57,91.49 400.51,88.75 ZM 172.28 77.65 C174.05,76.92 176.12,75.57 176.87,74.65 C178.84,72.28 179.82,72.61 180.18,75.75 C180.46,78.17 180.93,78.50 184.00,78.50 L 187.50 78.50 L 187.79 68.21 L 188.07 57.93 L 178.29 58.21 L 168.50 58.50 L 168.50 62.00 C168.50,65.23 168.77,65.54 172.00,66.03 L 175.50 66.57 L 172.30 68.28 C168.56,70.29 161.56,70.50 158.03,68.72 C151.88,65.61 149.35,56.89 152.44,49.49 C156.20,40.50 170.69,39.31 176.67,47.52 C178.53,50.08 178.56,50.08 182.52,48.44 C184.71,47.53 186.68,46.62 186.90,46.42 C187.11,46.21 186.13,44.29 184.71,42.14 C181.01,36.54 173.47,33.00 165.27,33.00 C150.83,33.00 141.04,42.49 141.04,56.50 C141.04,65.93 145.28,73.01 153.50,77.34 C157.24,79.31 167.90,79.49 172.28,77.65 ZM 217.10 76.75 C218.97,75.51 221.56,72.35 222.86,69.74 C226.18,63.05 225.25,57.02 220.13,51.90 C208.99,40.75 190.58,47.63 190.63,62.92 C190.67,72.72 197.29,79.00 207.58,79.00 C212.26,79.00 214.51,78.47 217.10,76.75 ZM 257.00 76.32 C262.70,73.71 266.50,69.66 268.46,64.11 C271.44,55.67 269.93,47.14 264.37,40.99 C259.05,35.10 253.75,33.50 239.50,33.50 L 227.50 33.50 L 227.23 54.98 C227.08,66.79 227.20,77.08 227.49,77.85 C228.38,80.16 251.18,78.98 257.00,76.32 ZM 294.68 77.51 C296.56,76.19 296.86,76.20 297.39,77.58 C297.81,78.68 299.07,79.03 301.74,78.81 L 305.50 78.50 L 305.78 62.75 L 306.05 47.00 L 301.53 47.00 C298.29,47.00 297.00,47.40 297.00,48.42 C297.00,49.52 296.17,49.38 293.22,47.76 C284.21,42.83 272.01,51.15 272.00,62.23 C272.00,72.06 278.42,79.00 287.51,79.00 C290.35,79.00 293.48,78.35 294.68,77.51 ZM 330.95 77.52 C333.49,76.21 333.87,76.22 334.39,77.59 C334.81,78.68 336.08,79.03 338.74,78.81 L 342.50 78.50 L 342.50 56.00 L 342.50 33.50 L 338.50 33.50 L 334.50 33.50 L 334.21 41.62 L 333.92 49.75 L 330.21 47.81 C320.88,42.94 310.18,49.82 309.23,61.28 C308.40,71.31 314.72,78.99 323.80,79.00 C326.16,79.00 329.38,78.34 330.95,77.52 ZM 367.84 77.40 C369.95,75.92 370.23,75.93 371.36,77.48 C372.20,78.63 373.67,79.05 376.04,78.83 L 379.50 78.50 L 379.50 56.00 L 379.50 33.50 L 375.50 33.50 L 371.50 33.50 L 371.21 41.62 L 370.92 49.75 L 367.21 47.81 C357.57,42.78 346.00,50.75 346.00,62.41 C346.00,72.13 352.18,79.00 360.93,79.00 C363.55,79.00 366.54,78.31 367.84,77.40 ZM 422.00 41.67 C422.00,40.93 421.34,40.33 420.54,40.33 C419.74,40.33 418.86,40.93 418.57,41.67 C418.25,42.50 418.80,43.00 420.03,43.00 C421.11,43.00 422.00,42.40 422.00,41.67 ZM 71.15 85.30 C69.31,84.40 66.61,81.85 65.15,79.65 C62.75,76.02 62.50,74.75 62.50,66.07 C62.50,57.09 62.73,56.02 66.22,48.72 C72.38,35.81 84.26,25.89 95.38,24.36 C111.84,22.11 120.52,40.67 112.39,60.72 C110.80,64.63 104.88,74.00 104.00,73.99 C103.72,73.99 103.45,70.06 103.38,65.25 C103.29,58.85 102.65,54.89 101.01,50.50 C97.55,41.26 97.75,41.30 87.50,47.65 C82.55,50.72 78.12,53.57 77.66,54.00 C76.88,54.73 79.47,61.00 80.56,61.00 C80.85,61.00 83.87,59.21 87.29,57.03 L 93.50 53.07 L 94.67 56.78 C97.44,65.54 95.70,76.48 90.70,81.83 C85.77,87.11 77.72,88.54 71.15,85.30 ZM 51.76 71.75 C37.03,52.39 39.74,27.60 56.96,24.35 C60.42,23.70 68.71,25.33 70.39,27.00 C70.90,27.51 69.61,29.77 67.30,32.39 C58.64,42.23 53.51,56.25 54.19,68.25 C54.40,71.96 54.49,75.00 54.40,75.00 C54.31,75.00 53.12,73.54 51.76,71.75 ZM 202.45 68.55 C200.91,67.00 200.00,64.95 200.00,63.00 C200.00,59.24 203.88,55.00 207.32,55.00 C211.53,55.00 215.00,58.61 215.00,63.00 C215.00,70.07 207.36,73.45 202.45,68.55 ZM 237.00 56.00 L 237.00 42.00 L 242.75 42.00 C252.78,42.00 260.00,47.87 260.00,56.00 C260.00,64.13 252.78,70.00 242.75,70.00 L 237.00 70.00 L 237.00 56.00 ZM 284.45 68.55 C282.91,67.00 282.00,64.95 282.00,63.00 C282.00,59.16 285.90,55.00 289.50,55.00 C293.10,55.00 297.00,59.16 297.00,63.00 C297.00,66.84 293.10,71.00 289.50,71.00 C288.08,71.00 285.80,69.90 284.45,68.55 ZM 321.45 68.55 C319.91,67.00 319.00,64.95 319.00,63.00 C319.00,59.16 322.90,55.00 326.50,55.00 C330.10,55.00 334.00,59.16 334.00,63.00 C334.00,66.84 330.10,71.00 326.50,71.00 C325.08,71.00 322.80,69.90 321.45,68.55 ZM 358.45 68.55 C353.55,63.64 356.67,55.00 363.36,55.00 C367.10,55.00 371.00,59.08 371.00,63.00 C371.00,66.84 367.10,71.00 363.50,71.00 C362.08,71.00 359.80,69.90 358.45,68.55 Z" fill="rgb(253,253,253)"/>
</g>
</svg>