<?xml version="1.0" encoding="UTF-8"?>
<svg version="1.1" xmlns="http://www.w3.org/2000/svg" width="534" height="148">
<path d="M0 0 C0.83671738 -0.00813894 1.67343475 -0.01627788 2.5355072 -0.02466345 C43.58724659 -0.34657545 79.5107793 2.39497123 110.59004402 31.86510658 C125.48245273 46.65812391 138.28519696 63.41810383 149.5 81.125 C135.81631459 110.5183304 106.70760653 143.80287338 76.5 156.125 C52.70420438 164.61199152 26.04216682 165.06821575 1.0625 165.0625 C0.23184666 165.06354862 -0.59880668 165.06459724 -1.45463133 165.06567764 C-43.29874975 165.03973046 -79.57656907 161.00956861 -110.76196289 130.41235352 C-122.47431125 118.34127146 -133.1429734 105.23390079 -142.40039062 91.18847656 C-142.84039115 90.5296495 -143.28039167 89.87082243 -143.73372555 89.19203091 C-146.52546273 84.76859076 -146.52546273 84.76859076 -146.40992737 81.8483429 C-144.79909206 78.79752622 -142.13163419 76.599911 -139.68359375 74.21484375 C-134.33172176 68.84547876 -130.24744778 63.28936715 -126.37673759 56.77225494 C-96.81538129 7.41264154 -53.63792775 0.46174761 0 0 Z M-72.5 10.125 C-72.5 57.645 -72.5 105.165 -72.5 154.125 C-67.7130777 150.02192374 -63.16588241 145.93172795 -58.73852539 141.47705078 C-58.10352112 140.84219254 -57.46851685 140.20733429 -56.81427002 139.55323792 C-54.73968296 137.47796051 -52.66864927 135.39917599 -50.59765625 133.3203125 C-49.15056401 131.87135295 -47.70324916 130.42261568 -46.25572205 128.97409058 C-42.46419893 125.1787669 -38.67568979 121.38044869 -34.88781738 117.58148193 C-31.0149311 113.69832841 -27.13917848 109.81803805 -23.26367188 105.9375 C-15.67298592 98.33612017 -8.08548351 90.73157116 -0.5 83.125 C-1.79216601 80.2845243 -3.14880195 78.22658504 -5.35328674 76.0244751 C-5.93516754 75.43839981 -6.51704834 74.85232452 -7.11656189 74.24848938 C-7.75300125 73.61766953 -8.38944061 72.98684967 -9.04516602 72.33691406 C-9.71684814 71.66333359 -10.38853027 70.98975311 -11.08056641 70.29576111 C-13.30015755 68.07246751 -15.52686271 65.85645164 -17.75390625 63.640625 C-19.29601364 62.09970952 -20.83775178 60.55842441 -22.37913513 59.01678467 C-25.60831454 55.78916906 -28.84082622 52.56494125 -32.07592773 49.34326172 C-36.23314434 45.20307035 -40.38371194 41.05629079 -44.53204441 36.90719986 C-47.71348171 33.72603373 -50.8975127 30.54747473 -54.08244133 27.36980438 C-55.61453502 25.84090337 -57.14601453 24.31138665 -58.67688179 22.78125763 C-60.81015551 20.65013912 -62.94668127 18.52233873 -65.08422852 16.39550781 C-65.72269211 15.75659103 -66.3611557 15.11767426 -67.01896667 14.45939636 C-69.38764882 11.51831221 -69.38764882 11.51831221 -72.5 10.125 Z M68.86982727 14.63075256 C68.20952011 15.294655 67.54921295 15.95855743 66.86889648 16.64257812 C66.17624695 17.33508163 65.48359741 18.02758514 64.7699585 18.74107361 C62.46796043 21.04377154 60.16953027 23.34999754 57.87109375 25.65625 C56.28090288 27.24830479 54.69049191 28.84013978 53.09986877 30.4317627 C48.90384902 34.63160969 44.71084024 38.83445051 40.51843262 43.03790283 C36.24390608 47.32263907 31.96656481 51.60456333 27.68945312 55.88671875 C19.29019743 64.29671541 10.89411708 72.70987464 2.5 81.125 C3.79216601 83.9654757 5.14880195 86.02341496 7.35328674 88.2255249 C7.93516754 88.81160019 8.51704834 89.39767548 9.11656189 90.00151062 C10.07122093 90.9477404 10.07122093 90.9477404 11.04516602 91.91308594 C11.71684814 92.58666641 12.38853027 93.26024689 13.08056641 93.95423889 C15.30015755 96.17753249 17.52686271 98.39354836 19.75390625 100.609375 C21.29601364 102.15029048 22.83775178 103.69157559 24.37913513 105.23321533 C27.60831454 108.46083094 30.84082622 111.68505875 34.07592773 114.90673828 C38.23314434 119.04692965 42.38371194 123.19370921 46.53204441 127.34280014 C49.71348171 130.52396627 52.8975127 133.70252527 56.08244133 136.88019562 C57.61453502 138.40909663 59.14601453 139.93861335 60.67688179 141.46874237 C62.81015551 143.59986088 64.94668127 145.72766127 67.08422852 147.85449219 C67.72269211 148.49340897 68.3611557 149.13232574 69.01896667 149.79060364 C71.38764882 152.73168779 71.38764882 152.73168779 74.5 154.125 C74.5 106.605 74.5 59.085 74.5 10.125 C72.15400611 10.125 70.45846268 13.04576431 68.86982727 14.63075256 Z " fill="#8A8A8A" transform="translate(146.5,-8.125)"/>
<path d="M0 0 C7.6725 -0.12375 7.6725 -0.12375 15.5 -0.25 C17.09779297 -0.28641602 18.69558594 -0.32283203 20.34179688 -0.36035156 C27.83873344 -0.41889187 33.62788964 -0.37833365 40 4 C43.43801068 7.61431892 44.83205974 10.25342126 45.3125 15.25 C44.91660133 20.00078406 43.68386928 22.08921905 41 26 C40.01 26.66 39.02 27.32 38 28 C38.48210937 28.38671875 38.96421875 28.7734375 39.4609375 29.171875 C40.09257812 29.69265625 40.72421875 30.2134375 41.375 30.75 C42.00148438 31.26046875 42.62796875 31.7709375 43.2734375 32.296875 C45.90633062 34.89402749 46.87873023 36.94322059 47.30078125 40.62109375 C47.34212178 50.5566018 47.34212178 50.5566018 44 54 C30.00148075 63.44023456 18.72416084 60 0 60 C0 40.2 0 20.4 0 0 Z M14 11 C14 15.29 14 19.58 14 24 C19.49053506 24.16637985 23.87959667 24.24798195 29 22 C31.29827312 20.12061828 31.29827312 20.12061828 31.3125 17.0625 C31.24201586 14.10245186 31.24201586 14.10245186 29.9296875 12.3203125 C26.96025456 10.28859522 24.3521859 10.71507745 20.8125 10.8125 C18.90404297 10.85310547 18.90404297 10.85310547 16.95703125 10.89453125 C15.98121094 10.92933594 15.00539063 10.96414062 14 11 Z M14 34 C14 38.95 14 43.9 14 49 C16.206875 49.0825 18.41375 49.165 20.6875 49.25 C21.92886719 49.29640625 23.17023438 49.3428125 24.44921875 49.390625 C28.57752991 48.93646536 30.15820834 47.97558599 33 45 C33.57425883 41.55444703 33.41149518 39.76126609 31.75 36.6875 C28.3443607 33.40349067 24.2790629 33.88827106 19.75 33.9375 C16.90375 33.9684375 16.90375 33.9684375 14 34 Z " fill="#818181" transform="translate(432,45)"/>
<path d="M0 0 C4.62 0 9.24 0 14 0 C14 7.59 14 15.18 14 23 C20.93 23 27.86 23 35 23 C35 15.41 35 7.82 35 0 C39.62 0 44.24 0 49 0 C49 19.8 49 39.6 49 60 C44.38 60 39.76 60 35 60 C35 51.42 35 42.84 35 34 C28.07 34 21.14 34 14 34 C14 42.58 14 51.16 14 60 C9.38 60 4.76 60 0 60 C0 40.2 0 20.4 0 0 Z " fill="#818181" transform="translate(319,45)"/>
<path d="M0 0 C4.25965063 3.3791027 6.1797674 6.98240928 7.51171875 12.19921875 C7.51171875 13.51921875 7.51171875 14.83921875 7.51171875 16.19921875 C2.89171875 16.19921875 -1.72828125 16.19921875 -6.48828125 16.19921875 C-7.14828125 14.21921875 -7.80828125 12.23921875 -8.48828125 10.19921875 C-12.18954984 7.73170636 -14.11051657 7.89200719 -18.48828125 8.19921875 C-20.87711594 8.72459443 -20.87711594 8.72459443 -22.48828125 10.19921875 C-23.65070667 13.59707767 -23.43312714 15.80931365 -22.48828125 19.19921875 C-20.91240234 19.56273437 -20.91240234 19.56273437 -19.3046875 19.93359375 C1.2767327 24.79517282 1.2767327 24.79517282 7.51171875 32.19921875 C9.47796036 36.13170197 8.84032152 40.90304181 8.51171875 45.19921875 C6.58977395 50.96505315 2.92578259 54.40987711 -2.3515625 57.17578125 C-10.94794777 60.64023784 -21.50615778 60.6666409 -30.17578125 57.51171875 C-35.47817993 54.99681656 -37.75769903 52.24484895 -39.73828125 46.69921875 C-40.48828125 43.19921875 -40.48828125 43.19921875 -40.48828125 38.19921875 C-35.86828125 38.19921875 -31.24828125 38.19921875 -26.48828125 38.19921875 C-25.83723958 40.21744792 -25.18619792 42.23567708 -24.53515625 44.25390625 C-23.19270142 46.74846784 -22.15122025 47.29880053 -19.48828125 48.19921875 C-15.12166919 48.42984967 -11.51462223 47.88344607 -7.86328125 45.44921875 C-6.28672641 43.27332068 -6.28672641 43.27332068 -6.36328125 40.63671875 C-8.04016214 37.00347682 -9.73183077 36.5999291 -13.48828125 35.19921875 C-15.4223673 34.72668636 -17.36029478 34.2697386 -19.30078125 33.82421875 C-26.35953127 32.13187247 -31.99312675 29.8160881 -37.05078125 24.51171875 C-39.25532614 19.43168053 -39.63270308 14.42440754 -37.7578125 9.140625 C-34.70658589 3.34952144 -30.2102813 -0.14097705 -24.05859375 -2.2578125 C-16.1983345 -3.9182624 -7.03091107 -4.34665869 0 0 Z " fill="#818181" transform="translate(415.48828125,46.80078125)"/>
<path d="M0 0 C0.71196533 0.00491455 1.42393066 0.0098291 2.1574707 0.01489258 C9.08880154 0.16969839 13.56325177 1.15478479 19 5.625 C23.53647232 11.19838028 24.1875 13.87505716 24.1875 21.3125 C19.5675 21.3125 14.9475 21.3125 10.1875 21.3125 C9.775 20.03375 9.3625 18.755 8.9375 17.4375 C7.73721378 14.25020254 7.73721378 14.25020254 5.4375 11.8125 C2.14317149 11.080427 -0.44703487 10.89181686 -3.8125 11.3125 C-8.29540808 15.43192904 -9.83942776 20.55824614 -10.1484375 26.51953125 C-10.17804437 28.0544572 -10.19054351 29.58979155 -10.1875 31.125 C-10.18661377 31.92164062 -10.18572754 32.71828125 -10.18481445 33.5390625 C-10.06806413 39.33272302 -9.43486263 44.56344933 -5.8125 49.3125 C-2.41299419 51.57883721 -0.72174341 51.53515891 3.25 50.921875 C6.3931028 49.93331847 7.57490993 48.08615493 9.1875 45.3125 C9.5175 43.9925 9.8475 42.6725 10.1875 41.3125 C14.8075 41.3125 19.4275 41.3125 24.1875 41.3125 C24.1875 48.86877007 23.73095889 51.70848257 18.5625 57 C11.15899378 62.61145948 2.20568672 63.45071774 -6.8125 62.3125 C-13.20670384 60.41531864 -17.94985621 57.18006961 -21.62890625 51.59375 C-27.35841228 40.55074168 -27.41517165 27.36143985 -23.72265625 15.6484375 C-21.17430375 9.10803065 -16.86437058 4.37435613 -10.609375 1.19140625 C-7.05514416 0.0745041 -3.68911271 -0.02974743 0 0 Z " fill="#818181" transform="translate(509.8125,43.6875)"/>
</svg>
