<?xml version="1.0" encoding="UTF-8"?>
<svg version="1.1" xmlns="http://www.w3.org/2000/svg" width="2400" height="953">
<path d="M0 0 C70.29 0 140.58 0 213 0 C215.95046691 7.08112059 218.82640301 14.02129582 221.3125 21.25 C221.57611328 22.00667969 221.83972656 22.76335937 222.11132812 23.54296875 C222.74413529 25.36085114 223.37257534 27.18025288 224 29 C225.95686797 26.06469805 226.96513823 23.58592058 228.12890625 20.2734375 C228.52400391 19.1596875 228.91910156 18.0459375 229.32617188 16.8984375 C229.73416016 15.73570312 230.14214844 14.57296875 230.5625 13.375 C231.37376967 11.06941985 232.18743979 8.76468246 233.00390625 6.4609375 C233.36299072 5.43790527 233.7220752 4.41487305 234.09204102 3.36083984 C235 1 235 1 236 0 C238.73115307 -0.09786525 241.43701081 -0.12993454 244.16859436 -0.12025452 C245.03516189 -0.12110894 245.90172941 -0.12196337 246.79455656 -0.12284368 C249.72121251 -0.12450115 252.64781215 -0.11897278 255.57446289 -0.11352539 C257.66325377 -0.11324355 259.75204475 -0.11340119 261.84083557 -0.1139679 C267.53068614 -0.11425599 273.22051583 -0.1083573 278.91036153 -0.10139394 C284.84945525 -0.09516243 290.78854939 -0.09455676 296.72764587 -0.09336853 C307.98281162 -0.09025461 319.23796771 -0.08204042 330.49312919 -0.07201904 C343.30306457 -0.06085977 356.1130004 -0.05534792 368.92293942 -0.05032361 C395.28196516 -0.03985785 421.64098163 -0.02205692 448 0 C448 12.54 448 25.08 448 38 C411.04 38 374.08 38 336 38 C335.67 30.08 335.34 22.16 335 14 C332.4109053 21.14966675 332.4109053 21.14966675 329.82446289 28.30029297 C329.5021167 29.18861816 329.17977051 30.07694336 328.84765625 30.9921875 C328.51773682 31.90339355 328.18781738 32.81459961 327.84790039 33.75341797 C327 36 327 36 326 38 C259.01 38 192.02 38 123 38 C119.79693432 30.31264237 116.77544822 22.81237275 114 15 C113.67 22.59 113.34 30.18 113 38 C75.71 38 38.42 38 0 38 C0 25.46 0 12.92 0 0 Z " fill="#787878" transform="translate(1316,213)"/>
<path d="M0 0 C132.99 0 265.98 0 403 0 C408.74739282 13.79374276 408.74739282 13.79374276 410.6875 19.5625 C411.28111328 21.29693359 411.28111328 21.29693359 411.88671875 23.06640625 C413.2714479 27.9591159 414.09038764 32.99713204 415 38 C278.05 38 141.1 38 0 38 C0 25.46 0 12.92 0 0 Z " fill="#787878" transform="translate(795,71)"/>
<path d="M0 0 C136.62 0 273.24 0 414 0 C412.87374042 10.13633623 412.87374042 10.13633623 411.2578125 14.953125 C410.74154297 16.5 410.74154297 16.5 410.21484375 18.078125 C409.85519531 19.12484375 409.49554687 20.1715625 409.125 21.25 C408.77308594 22.3121875 408.42117188 23.374375 408.05859375 24.46875 C404.62456396 34.63041437 404.62456396 34.63041437 402 38 C399.04976875 38.62099248 399.04976875 38.62099248 395.35267353 38.61523914 C394.67048578 38.62100836 393.98829802 38.62677759 393.28543791 38.63272163 C390.98227605 38.64603602 388.68083588 38.62346508 386.37776184 38.60127258 C384.71699875 38.6034515 383.05623732 38.6078267 381.3954851 38.61421841 C376.81861201 38.62543681 372.24232024 38.60534681 367.66552126 38.58032811 C362.73505734 38.55879679 357.80462794 38.56603833 352.87413025 38.56983948 C344.32735701 38.57246511 335.78077418 38.55673725 327.23404884 38.52865028 C314.87685174 38.48806739 302.51974698 38.47499841 290.16249045 38.46871033 C270.11519205 38.45775895 250.06799519 38.42446189 230.02075195 38.37719727 C210.54321807 38.33132349 191.06571174 38.2959209 171.58813477 38.2746582 C170.38815071 38.27334459 169.18816666 38.27203097 167.95181946 38.27067754 C161.93203489 38.2641525 155.91225013 38.25783393 149.89246523 38.25161803 C99.92823623 38.19975876 49.9641313 38.11029742 0 38 C0 25.46 0 12.92 0 0 Z " fill="#787878" transform="translate(795,426)"/>
<path d="M0 0 C123.42 0 246.84 0 374 0 C372.59014558 4.22956327 369.52245152 5.99652866 366.0625 8.5625 C365.35101807 9.09117676 364.63953613 9.61985352 363.90649414 10.16455078 C324.84341887 38.53153086 280.5788846 39.18654561 234.08935547 39.11352539 C231.51412456 39.11324238 228.93889358 39.11340347 226.36366272 39.1139679 C220.88073097 39.11448559 215.39781136 39.11141909 209.91488266 39.10573006 C201.9880455 39.09751072 194.06121404 39.09498931 186.13437308 39.09374207 C173.26536 39.09156769 160.39635335 39.08495197 147.52734375 39.07543945 C135.04589876 39.06622316 122.56445553 39.05916311 110.08300781 39.05493164 C109.31023278 39.05466892 108.53745774 39.05440619 107.74126528 39.05413551 C103.86345919 39.05283022 99.98565309 39.05156657 96.10784698 39.05032361 C64.07189312 39.04000139 32.03594793 39.02214737 0 39 C0 26.13 0 13.26 0 0 Z " fill="#787878" transform="translate(795,497)"/>
<path d="M0 0 C36.06021994 -0.06797262 72.12042108 -0.12161143 108.18069205 -0.15319599 C112.44842372 -0.15694762 116.71615525 -0.16083064 120.98388672 -0.16479492 C121.83343171 -0.16558185 122.68297671 -0.16636878 123.55826549 -0.16717956 C137.27185895 -0.18019494 150.98541426 -0.2038272 164.69898517 -0.23145839 C178.79486371 -0.25962071 192.89072242 -0.27619901 206.98662794 -0.28226548 C215.66817693 -0.2863596 224.34961806 -0.29923866 233.03113382 -0.3237494 C239.00327756 -0.33974065 244.97536644 -0.34437048 250.94752999 -0.34050413 C254.38117231 -0.33860311 257.81447855 -0.34298738 261.24811172 -0.35761642 C282.28336258 -0.4427656 302.83793667 0.51538468 323 7 C323.62503418 7.19932129 324.25006836 7.39864258 324.89404297 7.60400391 C341.71015058 13.0855908 356.36129662 21.83919919 370 33 C370.77601563 33.54785156 371.55203125 34.09570312 372.3515625 34.66015625 C372.89554688 35.10230469 373.43953125 35.54445312 374 36 C374 36.66 374 37.32 374 38 C250.58 38 127.16 38 0 38 C0 25.46 0 12.92 0 0 Z " fill="#787878" transform="translate(795,0)"/>
<path d="M0 0 C106.26 0 212.52 0 322 0 C317.49940572 7.87603999 317.49940572 7.87603999 315.08203125 10.61328125 C314.55432129 11.21664307 314.02661133 11.82000488 313.48291016 12.44165039 C312.9316748 13.05903076 312.38043945 13.67641113 311.8125 14.3125 C311.23806152 14.96404053 310.66362305 15.61558105 310.07177734 16.28686523 C308.91959656 17.59147899 307.7647057 18.89370504 306.60693359 20.19335938 C305.19365502 21.78227785 303.7930616 23.38246018 302.39453125 24.984375 C298.20121115 29.74787115 298.20121115 29.74787115 296 32 C295.56099332 32.49713804 295.12198664 32.99427608 294.66967672 33.50647891 C290.24678499 37.98648844 286.72770911 38.7019735 280.53240067 38.77448785 C278.87625942 38.74827228 278.87625942 38.74827228 277.18666077 38.7215271 C275.40746936 38.72921692 275.40746936 38.72921692 273.59233469 38.7370621 C270.31256122 38.74521835 267.03422075 38.72654076 263.75461662 38.69639373 C260.21346739 38.67042806 256.67238222 38.67925503 253.13116455 38.68380737 C247.0000389 38.68695007 240.86929702 38.66816155 234.7382679 38.63438034 C225.87395113 38.5855709 217.00981951 38.56998689 208.14538293 38.56245239 C193.76275106 38.54932796 179.38032363 38.50941835 164.99780273 38.45263672 C151.02841208 38.39754354 137.059077 38.35508234 123.08959961 38.32958984 C122.22819695 38.3280135 121.36679429 38.32643716 120.47928853 38.32481305 C116.15778672 38.3169827 111.83628453 38.30940048 107.51478207 38.30194163 C71.67637124 38.23976415 35.83821493 38.1324514 0 38 C0 25.46 0 12.92 0 0 Z " fill="#797979" transform="translate(869,213)"/>
<path d="M0 0 C36.64657933 -0.20353456 73.29299412 -0.36462767 109.94002282 -0.45958797 C114.26828439 -0.47084408 118.59654482 -0.48249301 122.92480469 -0.49438477 C124.21730153 -0.49792596 124.21730153 -0.49792596 125.53590943 -0.50153869 C139.48086223 -0.54068151 153.42548049 -0.61163182 167.37023495 -0.69437516 C181.68299943 -0.77859271 195.99558893 -0.82854027 210.30859101 -0.84679645 C219.1379455 -0.85913477 227.9663544 -0.89807604 236.79541774 -0.9712482 C242.85306841 -1.018889 248.91023156 -1.03318617 254.96805589 -1.0215124 C258.46150256 -1.01575737 261.95329934 -1.02446185 265.44645119 -1.07284927 C269.24090991 -1.11771725 273.03134291 -1.1068382 276.82589722 -1.08229065 C278.46893068 -1.12161401 278.46893068 -1.12161401 280.14515674 -1.16173178 C287.86240739 -1.02702772 291.56635971 1.34488712 296.96927083 6.79654843 C297.63941145 7.52368745 298.30955208 8.25082646 299 9 C299.91652344 9.92167969 300.83304688 10.84335937 301.77734375 11.79296875 C306.36329253 16.87648883 310.75030786 22.07060993 315 27.4375 C315.46913818 28.02877686 315.93827637 28.62005371 316.42163086 29.22924805 C318.65576444 32.09572232 320.36348781 34.72697561 322 38 C215.74 38 109.48 38 0 38 C0 25.46 0 12.92 0 0 Z " fill="#787878" transform="translate(869,284)"/>
<path d="M0 0 C86.46 0 172.92 0 262 0 C262 12.87 262 25.74 262 39 C175.54 39 89.08 39 0 39 C0 26.13 0 13.26 0 0 Z " fill="#787878" transform="translate(497,497)"/>
<path d="M0 0 C86.46 0 172.92 0 262 0 C262 12.54 262 25.08 262 38 C175.54 38 89.08 38 0 38 C0 25.46 0 12.92 0 0 Z " fill="#787878" transform="translate(497,426)"/>
<path d="M0 0 C86.46 0 172.92 0 262 0 C262 12.54 262 25.08 262 38 C175.54 38 89.08 38 0 38 C0 25.46 0 12.92 0 0 Z " fill="#787878" transform="translate(497,71)"/>
<path d="M0 0 C86.46 0 172.92 0 262 0 C262 12.54 262 25.08 262 38 C175.54 38 89.08 38 0 38 C0 25.46 0 12.92 0 0 Z " fill="#787878" transform="translate(497,0)"/>
<path d="M0 0 C78.21 0 156.42 0 237 0 C237 12.54 237 25.08 237 38 C154.5 38 72 38 -13 38 C-9.47754456 25.08433006 -4.64963288 12.55400877 0 0 Z " fill="#787878" transform="translate(1602,71)"/>
<path d="M0 0 C78.21 0 156.42 0 237 0 C250 36 250 36 250 38 C167.5 38 85 38 0 38 C0 25.46 0 12.92 0 0 Z " fill="#787878" transform="translate(1242,71)"/>
<path d="M0 0 C69.96 0 139.92 0 212 0 C212 12.54 212 25.08 212 38 C137.75 38 63.5 38 -13 38 C-4 11 -4 11 0 0 Z " fill="#787878" transform="translate(1627,0)"/>
<path d="M0 0 C69.63 0 139.26 0 211 0 C214.21648774 7.23709741 217.07370856 14.38077865 219.75 21.8125 C220.16121094 22.93076172 220.57242187 24.04902344 220.99609375 25.20117188 C221.57810547 26.81282227 221.57810547 26.81282227 222.171875 28.45703125 C222.5234668 29.42616455 222.87505859 30.39529785 223.23730469 31.39379883 C224 34 224 34 224 38 C150.08 38 76.16 38 0 38 C0 25.46 0 12.92 0 0 Z " fill="#787878" transform="translate(1242,0)"/>
<path d="M0 0 C62.04 0 124.08 0 188 0 C201 36 201 36 201 38 C134.67 38 68.34 38 0 38 C0 25.46 0 12.92 0 0 Z " fill="#797979" transform="translate(1316,142)"/>
<path d="M0 0 C61.71 0 123.42 0 187 0 C187 12.54 187 25.08 187 38 C121 38 55 38 -13 38 C-12.14813863 33.74069316 -10.99214792 29.86318321 -9.53125 25.80078125 C-9.29088013 25.12452194 -9.05051025 24.44826263 -8.80285645 23.75151062 C-8.29678316 22.32977612 -7.78906239 20.90862708 -7.27978516 19.48803711 C-6.49924002 17.31037972 -5.72380573 15.13095481 -4.94921875 12.95117188 C-4.45602536 11.56760271 -3.96254576 10.18413554 -3.46875 8.80078125 C-3.23643677 8.14870193 -3.00412354 7.49662262 -2.76477051 6.82478333 C-1.9282497 4.49423403 -1.10849428 2.21698856 0 0 Z " fill="#797979" transform="translate(1577,142)"/>
<path d="M0 0 C61.71 0 123.42 0 187 0 C187 12.87 187 25.74 187 39 C125.29 39 63.58 39 0 39 C0 26.13 0 13.26 0 0 Z " fill="#787878" transform="translate(1652,497)"/>
<path d="M0 0 C61.71 0 123.42 0 187 0 C187 12.87 187 25.74 187 39 C125.29 39 63.58 39 0 39 C0 26.13 0 13.26 0 0 Z " fill="#787878" transform="translate(1242,497)"/>
<path d="M0 0 C61.71 0 123.42 0 187 0 C187 12.54 187 25.08 187 38 C125.29 38 63.58 38 0 38 C0 25.46 0 12.92 0 0 Z " fill="#787878" transform="translate(1652,426)"/>
<path d="M0 0 C61.71 0 123.42 0 187 0 C187 12.54 187 25.08 187 38 C125.29 38 63.58 38 0 38 C0 25.46 0 12.92 0 0 Z " fill="#787878" transform="translate(1242,426)"/>
<path d="M0 0 C59.07 0 118.14 0 179 0 C176.11846083 12.96692625 171.33021223 25.44238452 167 38 C115.85 38 64.7 38 12 38 C0 4 0 4 0 0 Z " fill="#787878" transform="translate(1451,284)"/>
<path d="M0 0 C3.43300219 2.71065683 6.17424257 5.94234466 8.80078125 9.421875 C9.51041016 8.73351562 9.51041016 8.73351562 10.234375 8.03125 C18.98249426 -0.08591329 27.34881037 -2.75600191 39.05078125 -2.828125 C39.87191406 -2.84875 40.69304687 -2.869375 41.5390625 -2.890625 C48.42015152 -2.93424522 53.5641114 -1.49070264 59.55078125 2.046875 C67.00788919 9.91826671 66.33387334 19.64313549 66.19140625 29.83203125 C66.18393312 31.41099832 66.17824526 32.98997475 66.17425537 34.56895447 C66.15908312 38.69715604 66.1198758 42.82478235 66.07543945 46.95275879 C66.03430359 51.17610902 66.01620551 55.39955346 65.99609375 59.62304688 C65.95337156 67.88961456 65.88309253 76.15560663 65.80078125 84.421875 C71.08078125 84.421875 76.36078125 84.421875 81.80078125 84.421875 C81.80078125 86.071875 81.80078125 87.721875 81.80078125 89.421875 C65.63078125 89.421875 49.46078125 89.421875 32.80078125 89.421875 C32.80078125 87.771875 32.80078125 86.121875 32.80078125 84.421875 C37.75078125 84.421875 42.70078125 84.421875 47.80078125 84.421875 C47.71511422 75.67652512 47.62127888 66.93136594 47.51325417 58.18626308 C47.46341088 54.125105 47.41708027 50.06397142 47.37890625 46.00268555 C47.34190163 42.07979011 47.29550153 38.15710589 47.24271774 34.23439217 C47.22425412 32.74140204 47.20911683 31.24836677 47.19743729 29.75530815 C47.18043626 27.65623442 47.15137033 25.55763598 47.11962891 23.45874023 C47.0996434 21.67003761 47.0996434 21.67003761 47.07925415 19.84519958 C46.68141243 14.95444955 46.00087087 10.80379638 42.73828125 7.046875 C38.04637136 4.45135038 33.62177443 3.78997253 28.359375 4.96875 C26.11500028 5.69345749 23.96389325 6.48300995 21.80078125 7.421875 C21.09566406 7.70417969 20.39054687 7.98648438 19.6640625 8.27734375 C17.32284602 9.71544947 16.82588155 10.89785025 15.80078125 13.421875 C15.28837891 14.52402344 15.28837891 14.52402344 14.765625 15.6484375 C14.25708984 16.83566406 14.25708984 16.83566406 13.73828125 18.046875 C13.22587891 19.21089844 13.22587891 19.21089844 12.703125 20.3984375 C10.30112677 28.44669132 10.61525278 37.22275328 10.484375 45.5546875 C10.45320335 47.23146072 10.45320335 47.23146072 10.42140198 48.94210815 C10.3565544 52.47697413 10.2973259 56.01190782 10.23828125 59.546875 C10.19503426 61.95834005 10.15141811 64.36979851 10.10742188 66.78125 C10.0009404 72.66139076 9.89949473 78.54159892 9.80078125 84.421875 C14.42078125 84.421875 19.04078125 84.421875 23.80078125 84.421875 C23.80078125 86.071875 23.80078125 87.721875 23.80078125 89.421875 C7.63078125 89.421875 -8.53921875 89.421875 -25.19921875 89.421875 C-25.19921875 87.771875 -25.19921875 86.121875 -25.19921875 84.421875 C-19.91921875 84.421875 -14.63921875 84.421875 -9.19921875 84.421875 C-9.28495142 75.95455432 -9.3788199 67.48744101 -9.48674583 59.02037811 C-9.53654835 55.0881651 -9.58287885 51.15597687 -9.62109375 47.22363281 C-9.65815047 43.42392298 -9.70456367 39.62442905 -9.75728226 35.8249054 C-9.77571851 34.38019117 -9.79086558 32.93543086 -9.80256271 31.49064636 C-9.87414919 22.94912162 -10.48577588 15.56220361 -13.19921875 7.421875 C-18.84446429 4.4756698 -25.38974278 4.3912291 -31.48046875 6.0390625 C-36.94515822 8.41410062 -40.32877283 12.26833513 -43.19921875 17.421875 C-46.66697683 27.32975524 -46.33573461 38.47572018 -46.515625 48.875 C-46.5364061 49.90123474 -46.55718719 50.92746948 -46.57859802 51.98480225 C-46.64318166 55.21376862 -46.70254732 58.44280539 -46.76171875 61.671875 C-46.80499105 63.88151725 -46.84860786 66.09115278 -46.89257812 68.30078125 C-46.99876727 73.67440987 -47.10028189 79.04810816 -47.19921875 84.421875 C-42.24921875 84.421875 -37.29921875 84.421875 -32.19921875 84.421875 C-32.19921875 86.071875 -32.19921875 87.721875 -32.19921875 89.421875 C-48.69921875 89.421875 -65.19921875 89.421875 -82.19921875 89.421875 C-82.19921875 87.771875 -82.19921875 86.121875 -82.19921875 84.421875 C-76.58921875 84.421875 -70.97921875 84.421875 -65.19921875 84.421875 C-65.19921875 58.021875 -65.19921875 31.621875 -65.19921875 4.421875 C-70.80921875 4.421875 -76.41921875 4.421875 -82.19921875 4.421875 C-82.19921875 2.771875 -82.19921875 1.121875 -82.19921875 -0.578125 C-70.64921875 -0.578125 -59.09921875 -0.578125 -47.19921875 -0.578125 C-46.70421875 3.381875 -46.70421875 3.381875 -46.19921875 7.421875 C-45.67714844 7.03515625 -45.15507813 6.6484375 -44.6171875 6.25 C-32.56942814 -2.27415899 -13.99315292 -7.73969981 0 0 Z " fill="#000000" transform="translate(1440.19921875,802.578125)"/>
<path d="M0 0 C1.05380859 0.01135986 1.05380859 0.01135986 2.12890625 0.02294922 C7.96228748 0.20760107 12.24532876 1.30196828 17.125 4.4375 C17.80820313 4.85 18.49140625 5.2625 19.1953125 5.6875 C28.52678866 11.93213804 33.85363921 21.96181813 36.70703125 32.609375 C39.21685683 49.59174624 37.25709094 66.25766419 27.125 80.4375 C26.67382812 81.08332031 26.22265625 81.72914063 25.7578125 82.39453125 C20.15801073 89.65529118 12.08793521 93.99186529 3.125 95.4375 C-5.85199015 96.14995954 -12.70221733 93.67804129 -19.953125 88.42578125 C-21.875 86.4375 -21.875 86.4375 -26.875 78.4375 C-27.205 101.5375 -27.535 124.6375 -27.875 148.4375 C-21.935 148.4375 -15.995 148.4375 -9.875 148.4375 C-9.875 150.0875 -9.875 151.7375 -9.875 153.4375 C-27.035 153.4375 -44.195 153.4375 -61.875 153.4375 C-61.875 151.7875 -61.875 150.1375 -61.875 148.4375 C-56.925 148.4375 -51.975 148.4375 -46.875 148.4375 C-46.875 101.9075 -46.875 55.3775 -46.875 7.4375 C-51.825 7.4375 -56.775 7.4375 -61.875 7.4375 C-61.875 5.7875 -61.875 4.1375 -61.875 2.4375 C-50.655 2.4375 -39.435 2.4375 -27.875 2.4375 C-27.38 9.3675 -27.38 9.3675 -26.875 16.4375 C-25.575625 14.6121875 -25.575625 14.6121875 -24.25 12.75 C-17.90951506 4.34551645 -10.71589668 -0.1625967 0 0 Z M-18.75 14.5 C-28.42024634 28.13869649 -28.46950462 47.24644503 -26.37890625 63.23046875 C-24.01466234 73.55566955 -19.50852948 81.21003611 -10.875 87.4375 C-6.75505435 89.80646875 -2.53355135 90.04349042 2.125 89.4375 C6.98519028 87.33878147 10.00982941 84.19321044 12.00390625 79.265625 C17.44835 61.90652899 18.79589278 30.34329765 12.14453125 13.20703125 C9.82133508 9.1748172 6.52608697 6.90452899 2.125 5.4375 C-6.30681587 4.40503275 -13.3700429 8.15026523 -18.75 14.5 Z " fill="#000000" transform="translate(1851.875,799.5625)"/>
<path d="M0 0 C0.66 0 1.32 0 2 0 C3.57275143 -2.01312184 4.95552513 -4.12142008 6.3671875 -6.25 C6.90601562 -6.8275 7.44484375 -7.405 8 -8 C9.32 -8 10.64 -8 12 -8 C12.86619409 1.29181148 13.12622792 10.48371275 13.0625 19.8125 C13.05798828 21.08931641 13.05347656 22.36613281 13.04882812 23.68164062 C13.03719452 26.78781211 13.02085075 29.89387908 13 33 C11.02 33 9.04 33 7 33 C6.58041016 31.42412109 6.58041016 31.42412109 6.15234375 29.81640625 C2.78041196 17.76702547 -1.79349103 8.55990769 -13 2 C-20.866385 -1.95566789 -29.75009838 -2.31884664 -38.21875 -0.19140625 C-45.53182723 2.47712825 -50.77763072 6.40660797 -55 13 C-57.73197567 19.63223041 -58.31615674 27.2601697 -56.3828125 34.22265625 C-52.79725229 41.44137261 -45.52548591 43.95414492 -38.375 46.4375 C-32.87302618 48.23908777 -27.30137814 49.72345774 -21.70019531 51.18164062 C-7.52623163 54.89170079 6.14524658 59.06804749 14.8125 71.8125 C22.71423529 85.54076737 22.27047573 102.03407556 18.59082031 116.96728516 C14.94948472 129.49528521 7.24539513 140.44272662 -4.234375 146.78125 C-16.93116913 152.37644741 -29.99669305 152.35184302 -43 148 C-49.70128752 145.26517644 -55.39817395 141.55343961 -61 137 C-61.2475 137.70125 -61.495 138.4025 -61.75 139.125 C-63.21168498 142.48687546 -64.63901664 145.17993654 -67 148 C-70.140625 148.16796875 -70.140625 148.16796875 -73 148 C-73.76154287 131.98937135 -74.14834983 116.02862903 -74 100 C-72.02 100 -70.04 100 -68 100 C-67.62875 101.36125 -67.62875 101.36125 -67.25 102.75 C-66.83675268 104.16766788 -66.41950484 105.58417118 -66 107 C-65.731875 107.93070313 -65.46375 108.86140625 -65.1875 109.8203125 C-61.54660057 121.68357646 -55.12638726 131.63037991 -44.1875 138.06640625 C-34.54898396 143.16804267 -24.48427396 144.64539908 -13.8125 141.875 C-5.68726824 139.10649789 0.93220111 133.59069015 5 126 C8.49699615 116.08964486 9.0795407 107.72676517 5 98 C0.89707969 89.63004258 -7.34008023 86.40862419 -15.75 83.5 C-21.22481324 81.71776899 -26.77417835 80.2643977 -32.34619141 78.82104492 C-45.7167725 75.32832629 -56.75215862 71.8270933 -65 60 C-71.01029225 49.09760941 -71.64029182 36.55763677 -69.31640625 24.43359375 C-65.91752247 13.61639931 -60.03278344 3.08474413 -50.02734375 -2.7265625 C-33.05304183 -11.43027503 -16.18571491 -9.64255356 0 0 Z " fill="#000000" transform="translate(74,744)"/>
<path d="M0 0 C37.62 0 75.24 0 114 0 C115.94371414 5.83114241 117.52518848 10.82793796 118.625 16.75 C118.86476563 18.00296875 119.10453125 19.2559375 119.3515625 20.546875 C120.19359249 26.32949059 120.55181636 32.17361269 121 38 C81.07 38 41.14 38 0 38 C0 25.46 0 12.92 0 0 Z " fill="#787878" transform="translate(1093,355)"/>
<path d="M0 0 C39.6 0 79.2 0 120 0 C120 10.13527575 120 10.13527575 119.1953125 14.69921875 C119.02386719 15.68083984 118.85242187 16.66246094 118.67578125 17.67382812 C118.49402344 18.66833984 118.31226563 19.66285156 118.125 20.6875 C117.86396484 22.19666992 117.86396484 22.19666992 117.59765625 23.73632812 C116.70761739 28.73702796 115.62244118 33.13267647 114 38 C76.38 38 38.76 38 0 38 C0 25.46 0 12.92 0 0 Z " fill="#787878" transform="translate(1093,142)"/>
<path d="M0 0 C43.23 0 86.46 0 131 0 C120 33 120 33 118 38 C83.35 38 48.7 38 13 38 C0 2 0 2 0 0 Z " fill="#787878" transform="translate(1475,355)"/>
<path d="M0 0 C37.29 0 74.58 0 113 0 C113 12.54 113 25.08 113 38 C75.71 38 38.42 38 0 38 C0 25.46 0 12.92 0 0 Z " fill="#787878" transform="translate(1316,355)"/>
<path d="M0 0 C37.29 0 74.58 0 113 0 C113 12.54 113 25.08 113 38 C75.71 38 38.42 38 0 38 C0 25.46 0 12.92 0 0 Z " fill="#787878" transform="translate(869,355)"/>
<path d="M0 0 C37.29 0 74.58 0 113 0 C113 12.54 113 25.08 113 38 C75.71 38 38.42 38 0 38 C0 25.46 0 12.92 0 0 Z " fill="#787878" transform="translate(571,355)"/>
<path d="M0 0 C37.29 0 74.58 0 113 0 C113 12.54 113 25.08 113 38 C75.71 38 38.42 38 0 38 C0 25.46 0 12.92 0 0 Z " fill="#797979" transform="translate(1316,284)"/>
<path d="M0 0 C37.29 0 74.58 0 113 0 C113 12.54 113 25.08 113 38 C75.71 38 38.42 38 0 38 C0 25.46 0 12.92 0 0 Z " fill="#797979" transform="translate(571,284)"/>
<path d="M0 0 C37.29 0 74.58 0 113 0 C113 12.54 113 25.08 113 38 C75.71 38 38.42 38 0 38 C0 25.46 0 12.92 0 0 Z " fill="#797979" transform="translate(571,213)"/>
<path d="M0 0 C37.29 0 74.58 0 113 0 C113 12.54 113 25.08 113 38 C75.71 38 38.42 38 0 38 C0 25.46 0 12.92 0 0 Z " fill="#797979" transform="translate(869,142)"/>
<path d="M0 0 C37.29 0 74.58 0 113 0 C113 12.54 113 25.08 113 38 C75.71 38 38.42 38 0 38 C0 25.46 0 12.92 0 0 Z " fill="#797979" transform="translate(571,142)"/>
<path d="M0 0 C36.96 0 73.92 0 112 0 C112 12.54 112 25.08 112 38 C75.04 38 38.08 38 0 38 C0 25.46 0 12.92 0 0 Z " fill="#787878" transform="translate(1652,355)"/>
<path d="M0 0 C36.96 0 73.92 0 112 0 C112 12.54 112 25.08 112 38 C75.04 38 38.08 38 0 38 C0 25.46 0 12.92 0 0 Z " fill="#797979" transform="translate(1652,284)"/>
<path d="M0 0 C6.91397875 4.41041796 10.70471168 9.68335738 12.64524841 17.63639832 C13.1461934 20.72353197 13.20172652 23.64262124 13.19555664 26.77075195 C13.19544334 28.69217766 13.19544334 28.69217766 13.19532776 30.65242004 C13.1902219 32.04041585 13.18500592 33.42841125 13.1796875 34.81640625 C13.177821 36.24415538 13.17639819 37.67190515 13.17539978 39.09965515 C13.1715929 42.84626045 13.16177832 46.5928266 13.1506958 50.3394165 C13.14044227 54.16702749 13.13589373 57.99464484 13.13085938 61.82226562 C13.12015432 69.32423861 13.10257243 76.82617132 13.08203125 84.328125 C18.36203125 84.328125 23.64203125 84.328125 29.08203125 84.328125 C29.08203125 85.978125 29.08203125 87.628125 29.08203125 89.328125 C12.58203125 89.328125 -3.91796875 89.328125 -20.91796875 89.328125 C-20.91796875 87.678125 -20.91796875 86.028125 -20.91796875 84.328125 C-15.96796875 84.328125 -11.01796875 84.328125 -5.91796875 84.328125 C-5.95833418 75.17421937 -6.01546325 66.02083573 -6.10187149 56.86724663 C-6.14133194 52.61656048 -6.17352729 48.36608104 -6.18896484 44.11523438 C-6.2041411 40.01065267 -6.23860316 35.90663931 -6.28627777 31.80231094 C-6.3010817 30.23872958 -6.3090092 28.67506708 -6.3098526 27.11141586 C-6.31222715 24.9159506 -6.33934191 22.72204982 -6.37207031 20.52685547 C-6.38095276 19.27887177 -6.38983521 18.03088806 -6.39898682 16.74508667 C-7.01741493 12.67337431 -8.35180973 10.51598534 -10.91796875 7.328125 C-15.03163226 4.58568266 -18.46433548 3.86224526 -23.38671875 4.796875 C-31.40261355 7.01814705 -36.67813114 10.01882325 -40.88671875 17.31640625 C-45.26829005 25.86378966 -45.09211152 35.01194552 -45.234375 44.38671875 C-45.2551561 45.53100845 -45.27593719 46.67529816 -45.29734802 47.85426331 C-45.36246668 51.49132576 -45.42155265 55.12845731 -45.48046875 58.765625 C-45.52368983 61.23893929 -45.56730525 63.71224673 -45.61132812 66.18554688 C-45.71810928 72.23300302 -45.81948194 78.28052832 -45.91796875 84.328125 C-40.63796875 84.328125 -35.35796875 84.328125 -29.91796875 84.328125 C-29.91796875 85.978125 -29.91796875 87.628125 -29.91796875 89.328125 C-46.41796875 89.328125 -62.91796875 89.328125 -79.91796875 89.328125 C-79.91796875 87.678125 -79.91796875 86.028125 -79.91796875 84.328125 C-74.96796875 84.328125 -70.01796875 84.328125 -64.91796875 84.328125 C-64.91796875 57.928125 -64.91796875 31.528125 -64.91796875 4.328125 C-69.86796875 4.328125 -74.81796875 4.328125 -79.91796875 4.328125 C-79.91796875 2.678125 -79.91796875 1.028125 -79.91796875 -0.671875 C-68.69796875 -0.671875 -57.47796875 -0.671875 -45.91796875 -0.671875 C-45.42296875 4.773125 -45.42296875 4.773125 -44.91796875 10.328125 C-44.46421875 9.626875 -44.01046875 8.925625 -43.54296875 8.203125 C-33.0549162 -3.2837897 -14.0764001 -6.81038778 0 0 Z " fill="#000000" transform="translate(685.91796875,802.671875)"/>
<path d="M0 0 C1.99609375 1.1171875 1.99609375 1.1171875 3.75 2.3125 C4.31847656 2.68632813 4.88695313 3.06015625 5.47265625 3.4453125 C12.1261966 8.38233753 14.0247939 14.36472855 15.35296631 22.1210022 C16.07326385 27.91100962 15.99320995 33.68540335 15.9453125 39.51171875 C15.9424826 40.82791702 15.93965271 42.1441153 15.93673706 43.50019836 C15.92918416 46.96072307 15.90960995 50.42107374 15.8873291 53.88153076 C15.86668838 57.42815803 15.85769681 60.97481406 15.84765625 64.52148438 C15.82635405 71.45190062 15.7912425 78.38217398 15.75 85.3125 C20.7 85.3125 25.65 85.3125 30.75 85.3125 C30.75 86.9625 30.75 88.6125 30.75 90.3125 C14.58 90.3125 -1.59 90.3125 -18.25 90.3125 C-18.25 88.6625 -18.25 87.0125 -18.25 85.3125 C-13.3 85.3125 -8.35 85.3125 -3.25 85.3125 C-3.31307073 76.58434735 -3.38860979 67.85654192 -3.48571491 59.12870026 C-3.53032113 55.07540398 -3.56959825 51.02220596 -3.59643555 46.96875 C-3.62256646 43.05225927 -3.66303672 39.13614862 -3.71318626 35.21989441 C-3.72978916 33.73053234 -3.74134422 32.24110462 -3.74761391 30.75166321 C-3.74393651 19.68009628 -3.74393651 19.68009628 -7.25 9.3125 C-11.16000522 6.03654968 -15.28651307 5.05911636 -20.3515625 5.4921875 C-27.25848522 6.65520885 -32.3651654 9.76869303 -36.7890625 15.203125 C-46.13839796 29.090442 -43.45613108 50.20753409 -43.8125 66.3125 C-43.85583546 68.16667333 -43.89945365 70.02084008 -43.94335938 71.875 C-44.04882056 76.35409772 -44.15049702 80.83326613 -44.25 85.3125 C-38.97 85.3125 -33.69 85.3125 -28.25 85.3125 C-28.25 86.9625 -28.25 88.6125 -28.25 90.3125 C-44.75 90.3125 -61.25 90.3125 -78.25 90.3125 C-78.25 88.6625 -78.25 87.0125 -78.25 85.3125 C-72.97 85.3125 -67.69 85.3125 -62.25 85.3125 C-62.25 58.9125 -62.25 32.5125 -62.25 5.3125 C-67.53 5.3125 -72.81 5.3125 -78.25 5.3125 C-78.25 3.6625 -78.25 2.0125 -78.25 0.3125 C-67.03 0.3125 -55.81 0.3125 -44.25 0.3125 C-43.755 5.7575 -43.755 5.7575 -43.25 11.3125 C-42.30125 10.260625 -41.3525 9.20875 -40.375 8.125 C-30.53064115 -1.77963043 -13.07992955 -5.57357823 0 0 Z " fill="#000000" transform="translate(2131.25,801.6875)"/>
<path d="M0 0 C11.22 0 22.44 0 34 0 C34.04898438 4.78113281 34.09796875 9.56226563 34.1484375 14.48828125 C34.1838688 17.53712913 34.21985434 20.5859507 34.2578125 23.63476562 C34.31786368 28.46228039 34.37598387 33.28975879 34.421875 38.11743164 C34.45904841 42.01440714 34.50548989 45.91117679 34.55806351 49.80797386 C34.57643881 51.2864943 34.59160727 52.76505858 34.60334396 54.24364662 C34.30085332 68.75858107 34.30085332 68.75858107 38.9375 82.125 C42.99270168 85.81154698 47.64938062 85.33636014 52.859375 85.2734375 C59.22014195 84.71963938 64.01808418 82.41659856 68.375 77.75 C73.70198925 70.85885324 75.06736114 62.8236093 75.20532227 54.27001953 C75.22526749 53.16933136 75.24521271 52.06864319 75.26576233 50.93460083 C75.28247482 49.76251068 75.29918732 48.59042053 75.31640625 47.3828125 C75.3475779 45.56437332 75.3475779 45.56437332 75.37937927 43.709198 C75.44460982 39.8478547 75.50363651 35.98644509 75.5625 32.125 C75.60571041 29.50259739 75.6493255 26.88020141 75.69335938 24.2578125 C75.80026407 17.83860913 75.90160599 11.41933924 76 5 C71.05 5 66.1 5 61 5 C61 3.35 61 1.7 61 0 C72.22 0 83.44 0 95 0 C95 28.05 95 56.1 95 85 C100.28 85 105.56 85 111 85 C111 86.65 111 88.3 111 90 C99.45 90 87.9 90 76 90 C75.505 85.545 75.505 85.545 75 81 C74.53851563 81.45890625 74.07703125 81.9178125 73.6015625 82.390625 C65.01554756 90.46758767 55.46334204 93.38687262 43.78125 93.2109375 C35.05950371 92.54945674 27.19632615 90.42028975 21 84 C16.75630472 78.28400228 15.87356126 73.27692048 15.88647461 66.30371094 C15.88632858 65.63988403 15.88618256 64.97605713 15.8860321 64.29211426 C15.88672668 62.1061675 15.89449769 59.92030681 15.90234375 57.734375 C15.90420955 56.21551561 15.90563269 54.69665562 15.90663147 53.17779541 C15.9104439 49.18622161 15.9202633 45.19468438 15.93133545 41.203125 C15.94157697 37.1276092 15.94613496 33.05208747 15.95117188 28.9765625 C15.96188673 20.98435638 15.9794732 12.99218695 16 5 C10.72 5 5.44 5 0 5 C0 3.35 0 1.7 0 0 Z " fill="#000000" transform="translate(268,802)"/>
<path d="M0 0 C5.21703593 4.07877355 7.13292564 8.08630102 8.5859375 14.4921875 C9.01811163 19.33298363 9.02691723 24.15390145 9.02734375 29.01171875 C9.03913813 30.40176264 9.05250734 31.79179397 9.06736755 33.18180847 C9.10331127 36.81500312 9.12368779 40.44808623 9.13891602 44.0814209 C9.16389062 49.91299215 9.20347169 55.74431745 9.26081657 61.5756588 C9.27709208 63.60533373 9.28091665 65.63477301 9.28382874 67.664505 C9.29910866 69.51243904 9.29910866 69.51243904 9.31469727 71.39770508 C9.32110985 73.02244499 9.32110985 73.02244499 9.32765198 74.68000793 C9.58353856 77.46606813 10.14707414 79.12235666 11.5859375 81.4921875 C15.53321338 81.67160913 18.1839888 81.58569439 21.5859375 79.4921875 C22.2459375 80.8121875 22.9059375 82.1321875 23.5859375 83.4921875 C22.48525754 84.30940467 21.38024019 85.12078201 20.2734375 85.9296875 C19.65855469 86.38214844 19.04367187 86.83460938 18.41015625 87.30078125 C13.40693292 90.56841105 7.31725572 90.01186661 1.5859375 89.4921875 C-2.73905978 88.21922731 -5.46793271 85.81958237 -7.7890625 81.9921875 C-9.0136777 79.35455476 -9.79247016 77.27107092 -10.4140625 74.4921875 C-10.9709375 75.16765625 -11.5278125 75.843125 -12.1015625 76.5390625 C-17.75093119 83.14271644 -22.64510759 87.78841551 -31.4140625 89.4921875 C-40.85941255 90.09706213 -48.0078071 89.80966241 -56.1640625 84.8046875 C-61.04291056 79.79031588 -62.67977987 75.1163112 -62.9765625 68.1171875 C-62.67521665 59.7183869 -59.87924777 53.53119826 -53.8515625 47.6796875 C-41.32784264 37.67957974 -25.67142975 37.16478606 -10.4140625 36.4921875 C-10.49501352 31.92896509 -10.6078554 27.36707158 -10.7265625 22.8046875 C-10.76040039 20.86432617 -10.76040039 20.86432617 -10.79492188 18.88476562 C-10.83037109 17.63759766 -10.86582031 16.39042969 -10.90234375 15.10546875 C-10.92852783 13.95860596 -10.95471191 12.81174316 -10.98168945 11.63012695 C-11.45783824 8.17448588 -12.34759194 6.27767235 -14.4140625 3.4921875 C-19.23248527 0.1651813 -23.74559182 -0.34087848 -29.4140625 0.4921875 C-34.43484409 1.97659249 -38.87754487 3.51075313 -42.4140625 7.4921875 C-41.04522934 11.04000376 -41.04522934 11.04000376 -39.2265625 14.3671875 C-37.9711215 17.65064859 -38.63182232 20.1225375 -39.4140625 23.4921875 C-40.4765625 25.8671875 -40.4765625 25.8671875 -42.4140625 27.4921875 C-45.12821585 28.3988678 -47.5597995 28.73699758 -50.4140625 28.4921875 C-53.89537883 26.41821182 -55.12892532 25.34759904 -56.4140625 21.4921875 C-57.00467967 15.46789233 -55.81864691 11.3778623 -52.4140625 6.4921875 C-39.80330561 -7.80387791 -15.89174075 -9.92590927 0 0 Z M-40.1640625 52.3671875 C-44.06002068 57.77824053 -44.83401307 61.9002842 -43.88671875 68.37890625 C-42.97920643 72.43646134 -41.41718408 74.71198182 -38.1640625 77.2421875 C-33.31775 79.44505682 -29.33677707 80.04429535 -24.2890625 78.3046875 C-18.99568312 76.02587746 -15.0328945 73.06564586 -12.26171875 67.87109375 C-9.32052452 59.61677445 -9.10917722 50.18141793 -9.4140625 41.4921875 C-20.93131671 40.71135671 -32.07909451 43.91472096 -40.1640625 52.3671875 Z " fill="#000000" transform="translate(1199.4140625,804.5078125)"/>
<path d="M0 0 C5.0364119 4.09940503 7.97093377 7.93219603 9.6875 14.1875 C9.95251465 17.22241211 9.95251465 17.22241211 9.97460938 20.46484375 C9.98802368 21.68631104 10.00143799 22.90777832 10.01525879 24.16625977 C10.02317444 26.12583618 10.02317444 26.12583618 10.03125 28.125 C10.04490456 29.49211772 10.0596937 30.85922454 10.07556152 32.22631836 C10.13172108 37.27891802 10.16710882 42.33162384 10.20318604 47.38439941 C10.234528 51.66192226 10.27379346 55.93923254 10.32344055 60.21658325 C10.3433895 62.21390594 10.35167275 64.21133422 10.35974121 66.20874023 C10.37315552 67.43020752 10.38656982 68.6516748 10.40039062 69.91015625 C10.41132751 71.51515991 10.41132751 71.51515991 10.42248535 73.15258789 C10.70792601 76.42141588 11.53438978 79.12563046 12.6875 82.1875 C16.63477588 82.36692163 19.2855513 82.28100689 22.6875 80.1875 C23.3475 81.5075 24.0075 82.8275 24.6875 84.1875 C23.58682004 85.00471717 22.48180269 85.81609451 21.375 86.625 C20.76011719 87.07746094 20.14523437 87.52992188 19.51171875 87.99609375 C14.50471122 91.26619503 8.42251364 90.70008542 2.6875 90.1875 C-0.96558575 89.17059492 -3.43240374 87.5049447 -5.5859375 84.28125 C-7.31626169 80.99240685 -8.48756824 77.81072969 -9.3125 74.1875 C-9.8075 75.033125 -10.3025 75.87875 -10.8125 76.75 C-14.95704225 82.88683098 -20.48650905 87.74352766 -27.69140625 89.75390625 C-36.16877899 91.15627343 -44.62296185 91.24198375 -52.3125 87.1875 C-57.43737176 83.11089746 -60.74768372 78.04993052 -61.69921875 71.54296875 C-62.01956793 63.64470443 -59.75963352 58.08478672 -55.625 51.5 C-43.63474763 39.50974763 -27.42115073 38.16958874 -11.3125 37.1875 C-10.3225 37.1875 -9.3325 37.1875 -8.3125 37.1875 C-8.42316173 33.332783 -8.55360396 29.47897438 -8.6875 25.625 C-8.7184375 24.53896484 -8.749375 23.45292969 -8.78125 22.33398438 C-8.84528491 12.18826016 -8.84528491 12.18826016 -13.75 3.8125 C-18.49181278 0.80549677 -22.84984074 0.56104825 -28.3125 1.1875 C-32.75424567 2.52255461 -36.99724823 3.87224823 -40.3125 7.1875 C-40.03719003 9.80294475 -39.54595512 11.76919008 -38.26171875 14.0703125 C-36.60213926 17.77192602 -37.23096746 21.3599985 -38.3125 25.1875 C-40.89091464 28.20792858 -42.43052683 29.02213003 -46.3125 29.75 C-50.47639319 28.96927003 -51.82895319 27.59350705 -54.3125 24.1875 C-55.74643693 19.98245796 -55.51521999 16.86720819 -54.25 12.625 C-48.97772814 3.27096928 -42.64652806 -0.55801543 -32.625 -4.125 C-21.46880766 -6.47843611 -9.99352042 -5.46815268 0 0 Z M-37.875 51.7734375 C-42.49408154 57.1536177 -42.78806808 60.9336456 -42.7109375 67.90625 C-42.2113264 72.02069437 -41.20566218 74.1194811 -38.21484375 76.94140625 C-34.10838334 79.6312643 -29.99145676 80.70600776 -25.1328125 79.765625 C-18.73220032 77.59183218 -14.77639664 74.41662964 -11.5625 68.4375 C-7.6017672 59.90764597 -8.18581359 51.4215318 -8.3125 42.1875 C-18.98977307 41.57150348 -30.1589706 43.94166766 -37.875 51.7734375 Z " fill="#000000" transform="translate(1595.3125,803.8125)"/>
<path d="M0 0 C4.34900381 3.85977794 6.52102578 9.19105019 7.34490967 14.87113953 C7.5350144 18.50337749 7.57270278 22.1059954 7.55230713 25.74311829 C7.56291504 27.07971152 7.57583792 28.41628815 7.59094238 29.75283813 C7.62489082 33.24363389 7.63053304 36.73386951 7.62902832 40.22480774 C7.63181958 44.46315079 7.66474641 48.70134431 7.69710159 52.93954945 C7.72227211 56.23716774 7.74024584 59.53414953 7.74291992 62.83190918 C7.04741537 72.25259612 7.04741537 72.25259612 9.88043213 80.66889954 C14.09614926 80.95633479 17.0605276 80.46650167 20.88043213 78.66889954 C21.21043213 79.98889954 21.54043213 81.30889954 21.88043213 82.66889954 C20.77975217 83.48611671 19.67473482 84.29749405 18.56793213 85.10639954 C17.95304932 85.55886047 17.3381665 86.01132141 16.70465088 86.47749329 C11.69764335 89.74759456 5.61544577 89.18148495 -0.11956787 88.66889954 C-3.78540241 87.6484456 -6.25833648 85.98188113 -8.39300537 82.72749329 C-9.92891425 79.77005171 -11.06583518 76.83009761 -12.11956787 73.66889954 C-12.67644287 74.34436829 -13.23331787 75.01983704 -13.80706787 75.71577454 C-19.46472441 82.3291163 -24.34750788 86.94581632 -33.11956787 88.66889954 C-41.3661112 89.29534928 -49.1257156 89.56603224 -56.11956787 84.66889954 C-60.86758948 80.43362324 -63.66324056 76.04134485 -64.33441162 69.61030579 C-64.63016211 62.78438458 -63.04704414 56.90705967 -59.55706787 51.04389954 C-46.35836273 38.18362274 -28.93681769 35.66889954 -11.11956787 35.66889954 C-11.20094463 31.6472689 -11.31374633 27.62709944 -11.43206787 23.60639954 C-11.46590576 21.90580383 -11.46590576 21.90580383 -11.50042725 20.17085266 C-11.699426 13.96570972 -12.04880753 9.1204469 -15.11956787 3.66889954 C-19.16074732 -0.1197062 -23.22116591 -0.66787015 -28.56488037 -0.62406921 C-33.81845038 -0.02159559 -39.35076722 1.90009889 -43.11956787 5.66889954 C-42.84380824 8.28861601 -42.35869924 10.24690299 -41.05706787 12.54389954 C-39.64499187 15.74460513 -39.75583653 18.2134518 -40.11956787 21.66889954 C-41.91519192 24.42218975 -43.17211709 26.19517415 -46.11956787 27.66889954 C-50.11347223 28.20142012 -51.63698029 28.02279709 -54.93206787 25.60639954 C-57.5938262 22.03203835 -58.11956787 20.11801773 -58.11956787 15.66889954 C-56.86816998 9.62643545 -53.78209987 4.67652662 -49.11956787 0.66889954 C-34.71997265 -8.44843211 -14.43565482 -10.13413978 0 0 Z M-42.05706787 51.79389954 C-45.85712047 57.09094255 -45.6291972 62.35876184 -45.11956787 68.66889954 C-43.43158137 72.8444451 -40.90795617 75.25810698 -37.11956787 77.66889954 C-31.86475684 79.03125795 -28.13297331 78.72797677 -23.11956787 76.66889954 C-17.20734579 72.98465167 -14.16432126 68.26487821 -12.11956787 61.66889954 C-11.12540654 57.02947999 -10.99755177 52.51856214 -11.05706787 47.79389954 C-11.06157959 47.10554016 -11.06609131 46.41718079 -11.07073975 45.70796204 C-11.08240451 44.02823618 -11.10033517 42.34855578 -11.11956787 40.66889954 C-22.64125075 40.00418706 -34.26107763 42.86837661 -42.05706787 51.79389954 Z " fill="#000000" transform="translate(2024.1195678710938,805.3311004638672)"/>
<path d="M0 0 C3.36018864 2.84323654 4.77681246 4.8413008 5.23828125 9.3046875 C5.35854747 13.46969651 5.32624613 16.32032057 3.5 20.125 C0.45790566 22.40657076 -1.3645169 22.6812781 -5.09765625 22.41015625 C-7 22 -7 22 -9.4375 20.5 C-11.54668225 17.1253084 -12.23469617 13.92926816 -12 10 C-10.5 6.6875 -10.5 6.6875 -9 4 C-9.495 2.515 -9.495 2.515 -10 1 C-17.01565622 0.60503041 -17.01565622 0.60503041 -23 4 C-26.46268024 8.69935176 -27.09963125 13.25146356 -27.20532227 18.97387695 C-27.22526749 19.93449539 -27.24521271 20.89511383 -27.26576233 21.88484192 C-27.29083107 23.42104439 -27.29083107 23.42104439 -27.31640625 24.98828125 C-27.33718735 26.04661667 -27.35796844 27.10495209 -27.37937927 28.19535828 C-27.44463103 31.56767441 -27.50364637 34.94006674 -27.5625 38.3125 C-27.6057084 40.60222134 -27.64932343 42.89193505 -27.69335938 45.18164062 C-27.80105067 50.78768353 -27.9003057 56.39378637 -28 62 C-20.74 62 -13.48 62 -6 62 C-6 63.65 -6 65.3 -6 67 C-13.26 67 -20.52 67 -28 67 C-28 93.4 -28 119.8 -28 147 C-21.4 147 -14.8 147 -8 147 C-8 148.65 -8 150.3 -8 152 C-27.14 152 -46.28 152 -66 152 C-66 150.35 -66 148.7 -66 147 C-59.4 147 -52.8 147 -46 147 C-46 120.6 -46 94.2 -46 67 C-52.6 67 -59.2 67 -66 67 C-66 65.35 -66 63.7 -66 62 C-59.4 62 -52.8 62 -46 62 C-46.04640625 59.69644531 -46.0928125 57.39289062 -46.140625 55.01953125 C-46.17198517 52.74229119 -46.1961785 50.46507689 -46.21972656 48.18774414 C-46.23961365 46.62740993 -46.26673352 45.06714791 -46.30175781 43.50708008 C-46.6287425 28.54753063 -44.69689249 15.41397242 -34.15234375 4 C-24.81832868 -4.9072112 -11.01852921 -7.61421948 0 0 Z " fill="#000000" transform="translate(911,740)"/>
<path d="M0 0 C0.82999512 0.00757324 1.65999023 0.01514648 2.51513672 0.02294922 C15.04688591 0.35820593 25.19059169 5.53235739 33.8125 14.5625 C43.36252572 25.90434692 46.78394931 38.84198216 45.625 53.4375 C43.50145319 67.60553885 37.4992932 78.15445937 26.359375 87.296875 C21.42434218 90.78245762 16.44892806 92.89823696 10.625 94.4375 C9.820625 94.664375 9.01625 94.89125 8.1875 95.125 C-5.16622873 96.7535035 -17.27385139 93.66441027 -27.94140625 85.46484375 C-38.44014462 76.59333159 -44.45308967 65.4542111 -45.72265625 51.66015625 C-46.0698819 36.78984016 -41.97405375 23.500641 -31.67578125 12.54296875 C-22.53546925 4.17857458 -12.33851988 -0.15906011 0 0 Z M-17.875 12.8125 C-23.48128986 20.2507043 -23.5284781 29.50624472 -23.54296875 38.48828125 C-23.54629715 39.22773483 -23.54962555 39.96718842 -23.55305481 40.72904968 C-23.5580814 42.28282049 -23.56046447 43.83660193 -23.56030273 45.39038086 C-23.56248487 47.73374729 -23.58067425 50.07663865 -23.59960938 52.41992188 C-24.03816752 68.44794625 -24.03816752 68.44794625 -17.375 82.4375 C-12.19228713 87.54882564 -7.46926645 89.72422043 -0.1875 89.875 C6.40064758 89.76295667 11.28556171 88.32633945 16.625 84.4375 C22.92181822 77.51099996 22.93474465 67.98152419 22.92578125 59.06640625 C22.93220894 57.62285011 22.93220894 57.62285011 22.93876648 56.15013123 C22.94447529 54.12735781 22.9450357 52.10456388 22.94067383 50.08178711 C22.9375122 47.01184626 22.96102267 43.94286912 22.98632812 40.87304688 C22.98860153 38.89583453 22.98930442 36.91861963 22.98828125 34.94140625 C22.997491 34.03693253 23.00670074 33.1324588 23.01618958 32.20057678 C22.96568546 25.13730824 22.11882133 17.82042285 17.828125 12 C11.64243606 7.05144885 6.00825204 4.89726487 -1.9765625 5.12890625 C-8.20120224 5.92979638 -13.61280378 8.1354915 -17.875 12.8125 Z " fill="#000000" transform="translate(956.375,799.5625)"/>
<path d="M0 0 C1.23834595 0.00966797 1.23834595 0.00966797 2.50170898 0.01953125 C14.62391364 0.37797403 24.10695526 5.07696003 32.75 13.5 C42.78140369 24.28265419 46.00293821 37.77312058 45.6640625 52.14453125 C44.37524605 64.9038141 38.45600669 77.00068604 28.75 85.5 C18.49051944 92.92871479 7.43106256 96.50643354 -5.25 95.5 C-18.65654599 93.07113931 -28.64617651 87.02178729 -37.25 76.5 C-45.31931924 63.56654022 -47.58284851 49.03169432 -44.5625 34.1015625 C-43.6401556 31.41907755 -42.57672262 29.00557523 -41.25 26.5 C-40.57904297 25.19675781 -40.57904297 25.19675781 -39.89453125 23.8671875 C-33.49168852 12.3661027 -24.18238075 5.10832597 -11.64990234 1.10644531 C-7.75790697 0.12295432 -4.00042824 -0.03306481 0 0 Z M-19.83984375 15.01171875 C-23.51815857 21.50226319 -23.55847746 29.14825536 -23.55078125 36.43359375 C-23.55506638 37.35157242 -23.5593515 38.26955109 -23.56376648 39.21534729 C-23.56947278 41.14396342 -23.57003759 43.07260106 -23.56567383 45.0012207 C-23.56251208 47.92632265 -23.58602598 50.85041311 -23.61132812 53.77539062 C-23.61360157 55.66145708 -23.61430441 57.54752621 -23.61328125 59.43359375 C-23.622491 60.29431992 -23.63170074 61.15504608 -23.64118958 62.04185486 C-23.58708482 69.26088081 -22.21671488 75.95991321 -18.6875 82.3125 C-11.97937337 88.33261364 -5.26203735 90.30787692 3.6953125 89.91796875 C9.54127283 89.11807392 13.65925938 86.98043767 17.625 82.625 C24.22280261 72.92234911 22.93644777 60.3230589 22.93530273 49.04443359 C22.93748863 46.63751513 22.95569465 44.23105648 22.97460938 41.82421875 C23.44135709 25.6429084 23.44135709 25.6429084 16.75 11.5 C11.83752004 6.72028977 6.58532226 5.43710801 -0.125 5.125 C-8.63979237 5.35757399 -14.22026816 8.80760102 -19.83984375 15.01171875 Z " fill="#000000" transform="translate(552.25,799.5)"/>
<path d="M0 0 C11.20910032 7.44724674 18.27991932 18.23501928 21.17578125 31.33984375 C22.55040537 47.64572986 20.37159728 61.10831248 10.17578125 74.33984375 C2.17787168 83.32237718 -9.35375454 88.48873994 -21.21484375 89.5546875 C-32.79879427 90.01003147 -44.42905183 85.81328827 -53.51171875 78.65234375 C-63.01482835 69.84240215 -69.25104711 57.20589502 -69.89453125 44.22265625 C-69.48849427 27.57514008 -64.57269472 15.55171525 -52.57421875 4.08984375 C-38.09369643 -8.35396702 -16.20492449 -9.52571633 0 0 Z M-42.82421875 8.33984375 C-46.82060922 15.19079884 -46.99106028 21.37279557 -47.02734375 29.1015625 C-47.03304382 30.047397 -47.0387439 30.99323151 -47.0446167 31.96772766 C-47.05404628 33.96732472 -47.06059255 35.96693717 -47.06445312 37.96655273 C-47.07412981 40.99946823 -47.10516093 44.03169729 -47.13671875 47.06445312 C-47.14325261 49.01431893 -47.14850157 50.96418954 -47.15234375 52.9140625 C-47.16469055 53.80921066 -47.17703735 54.70435883 -47.1897583 55.62663269 C-47.16312961 63.293059 -45.81921933 70.17131342 -41.69921875 76.71484375 C-35.14684083 82.69744967 -28.69805086 84.03014709 -19.9140625 83.72265625 C-14.04179062 82.99511814 -9.92122355 80.82716116 -5.94921875 76.46484375 C0.64972301 66.76051763 -0.63759375 53.79873657 -0.63891602 42.49731445 C-0.63672553 40.40881055 -0.6184813 38.32083332 -0.59960938 36.23242188 C-0.42539385 19.91214246 -0.42539385 19.91214246 -6.82421875 5.33984375 C-11.65451592 0.50954658 -17.02985788 -0.72495342 -23.69921875 -1.03515625 C-31.51564527 -0.85669902 -37.88727115 2.24126143 -42.82421875 8.33984375 Z " fill="#000000" transform="translate(183.82421875,805.66015625)"/>
<path d="M0 0 C12.21 0 24.42 0 37 0 C37 49.17 37 98.34 37 149 C42.94 149 48.88 149 55 149 C55 150.65 55 152.3 55 154 C36.85 154 18.7 154 0 154 C0 152.35 0 150.7 0 149 C5.61 149 11.22 149 17 149 C17 101.48 17 53.96 17 5 C11.39 5 5.78 5 0 5 C0 3.35 0 1.7 0 0 Z " fill="#000000" transform="translate(1897,738)"/>
<path d="M0 0 C12.21 0 24.42 0 37 0 C37 49.17 37 98.34 37 149 C42.61 149 48.22 149 54 149 C54.495 151.475 54.495 151.475 55 154 C36.85 154 18.7 154 0 154 C0 152.35 0 150.7 0 149 C5.61 149 11.22 149 17 149 C17 101.48 17 53.96 17 5 C11.39 5 5.78 5 0 5 C0 3.35 0 1.7 0 0 Z " fill="#000000" transform="translate(1626,738)"/>
<path d="M0 0 C12.21 0 24.42 0 37 0 C37 49.17 37 98.34 37 149 C42.94 149 48.88 149 55 149 C55 150.65 55 152.3 55 154 C36.85 154 18.7 154 0 154 C0 152.35 0 150.7 0 149 C5.94 149 11.88 149 18 149 C18 101.48 18 53.96 18 5 C12.06 5 6.12 5 0 5 C0 3.35 0 1.7 0 0 Z " fill="#000000" transform="translate(212,738)"/>
<path d="M0 0 C11.88 0 23.76 0 36 0 C36 49.17 36 98.34 36 149 C41.94 149 47.88 149 54 149 C54 150.65 54 152.3 54 154 C36.18 154 18.36 154 0 154 C0 152.35 0 150.7 0 149 C5.61 149 11.22 149 17 149 C17 101.48 17 53.96 17 5 C11.39 5 5.78 5 0 5 C0 3.35 0 1.7 0 0 Z " fill="#000000" transform="translate(1684,738)"/>
<path d="M0 0 C8.33926037 5.94673625 13.89893287 14.60756106 16.54296875 24.4921875 C17.03796875 29.4421875 17.03796875 29.4421875 17.54296875 34.4921875 C-2.58703125 34.4921875 -22.71703125 34.4921875 -43.45703125 34.4921875 C-44.10170557 61.74031102 -44.10170557 61.74031102 -38.45703125 75.4921875 C-31.55840744 81.74406533 -26.81760223 82.87030277 -17.625 82.76953125 C-9.6190624 82.06864152 -2.81328611 78.43749341 2.54296875 72.4921875 C6.30442079 67.55207882 8.55760417 62.34378835 10.54296875 56.4921875 C12.52296875 56.4921875 14.50296875 56.4921875 16.54296875 56.4921875 C15.33766128 63.96509384 12.75940446 69.23909224 8.54296875 75.4921875 C7.94484375 76.3996875 7.34671875 77.3071875 6.73046875 78.2421875 C-0.67329917 85.85749164 -9.83669977 89.46111706 -20.39453125 89.8671875 C-30.64986816 89.47712714 -39.08186585 86.29752396 -47.45703125 80.4921875 C-48.36453125 79.8734375 -49.27203125 79.2546875 -50.20703125 78.6171875 C-59.64244888 69.70595973 -65.27417034 57.80574498 -65.79125977 44.88793945 C-66.06995147 30.64796154 -61.59453832 16.70509825 -51.70703125 6.1796875 C-37.51717905 -7.03342535 -16.81556162 -10.31924767 0 0 Z M-39.83203125 5.8671875 C-44.81449962 13.91579025 -43.45703125 19.39741994 -43.45703125 29.4921875 C-30.58703125 29.4921875 -17.71703125 29.4921875 -4.45703125 29.4921875 C-4.0938983 15.01501492 -4.0938983 15.01501492 -10.7265625 2.796875 C-19.62787196 -3.91427028 -32.3307998 -1.63404395 -39.83203125 5.8671875 Z " fill="#000000" transform="translate(2235.45703125,805.5078125)"/>
<path d="M0 0 C2.81633949 1.60822696 5.48867521 3.32578347 8.1875 5.125 C8.435 4.155625 8.6825 3.18625 8.9375 2.1875 C9.55625 0.6715625 9.55625 0.6715625 10.1875 -0.875 C11.5075 -1.205 12.8275 -1.535 14.1875 -1.875 C14.1875 7.035 14.1875 15.945 14.1875 25.125 C12.5375 25.125 10.8875 25.125 9.1875 25.125 C8.96835937 24.48433594 8.74921875 23.84367188 8.5234375 23.18359375 C5.78602944 15.71692379 2.57754631 9.88830167 -4.375 5.6875 C-10.56349562 2.94365645 -17.8175219 3.05841027 -24.28515625 4.78515625 C-29.4791641 7.02780263 -31.67065415 9.94887254 -33.8125 15.125 C-34.37939522 18.73895701 -34.38569375 20.28909245 -32.3125 23.3125 C-25.37560697 28.34174745 -16.34710789 29.43458485 -8.12109375 31.0546875 C1.32763944 33.05776622 9.37552819 35.90773832 15.03125 44.0625 C19.594784 52.20285794 20.07366477 61.40486566 18.125 70.4375 C15.80357706 78.43585722 11.10050193 84.47201793 4.1875 89.125 C-5.75453151 93.33974156 -14.8663576 93.14171135 -24.8125 89.125 C-28.55969468 87.25615798 -32.2025005 85.24570313 -35.8125 83.125 C-36.39 84.115 -36.9675 85.105 -37.5625 86.125 C-38.305 87.115 -39.0475 88.105 -39.8125 89.125 C-41.1325 89.125 -42.4525 89.125 -43.8125 89.125 C-43.8125 77.575 -43.8125 66.025 -43.8125 54.125 C-42.1625 54.125 -40.5125 54.125 -38.8125 54.125 C-38.52117188 55.115 -38.22984375 56.105 -37.9296875 57.125 C-34.45057746 68.49978899 -30.48703866 76.73954934 -19.75 82.875 C-14.01690769 85.14069805 -7.26960445 85.16717411 -1.40234375 83.3984375 C3.55146372 81.12061201 6.72421667 78.05156666 9.1875 73.125 C9.49916114 71.08677508 9.49916114 71.08677508 9.5625 68.8125 C9.61148438 68.05324219 9.66046875 67.29398438 9.7109375 66.51171875 C8.91381193 62.87706408 7.02966729 61.44055319 4.1875 59.125 C1.22669206 57.81693875 1.22669206 57.81693875 -2.0625 57.0625 C-3.28710938 56.74023438 -4.51171875 56.41796875 -5.7734375 56.0859375 C-8.5823193 55.40142009 -11.40046416 54.7732739 -14.2265625 54.1640625 C-24.93307955 51.83925219 -33.38362859 49.6764661 -39.8125 40.125 C-44.0461808 31.55521064 -44.09912737 22.17033186 -41.125 13.1875 C-39.37285683 8.89351532 -37.47473304 6.07265098 -33.8125 3.125 C-32.6059375 2.0421875 -32.6059375 2.0421875 -31.375 0.9375 C-22.47379397 -5.358475 -9.42564026 -4.70707979 0 0 Z " fill="#000000" transform="translate(768.8125,802.875)"/>
<path d="M0 0 C0.70108887 0.00612305 1.40217773 0.01224609 2.12451172 0.01855469 C7.91763851 0.19284455 12.25180766 1.37494176 17.125 4.4375 C18.05119141 5.00984375 18.05119141 5.00984375 18.99609375 5.59375 C20.399405 6.501203 21.76748249 7.46287205 23.125 8.4375 C23.3725 7.468125 23.62 6.49875 23.875 5.5 C24.49375 3.9840625 24.49375 3.9840625 25.125 2.4375 C26.445 2.1075 27.765 1.7775 29.125 1.4375 C29.125 10.3475 29.125 19.2575 29.125 28.4375 C27.475 28.4375 25.825 28.4375 24.125 28.4375 C23.96644531 27.86902344 23.80789063 27.30054688 23.64453125 26.71484375 C21.69075409 20.24902873 19.64973325 14.74742706 13.82421875 10.9296875 C6.63201217 7.10985092 0.33718337 5.55486643 -7.66015625 7.578125 C-12.37558437 9.40774438 -15.70078895 12.57833251 -18.375 16.8125 C-19.09016022 20.56709115 -18.51301215 23.6732283 -17.875 27.4375 C-13.8448819 29.1823404 -9.7578387 30.29308312 -5.5 31.3125 C-4.07539562 31.66485874 -2.65091947 32.01773624 -1.2265625 32.37109375 C0.91525243 32.89865558 3.05770643 33.42155373 5.20410156 33.93017578 C15.87543185 36.46274886 24.72403633 38.92749684 31.125 48.4375 C35.34939298 56.83518444 35.31419577 66.69470261 33.0625 75.6875 C30.4206522 83.20942777 26.10069136 88.74429391 19 92.4375 C10.45338029 96.36949118 0.97519181 96.56709085 -7.875 93.4375 C-10.57587871 91.99676964 -13.14387784 90.44389518 -15.7109375 88.77734375 C-17.92067092 87.29420589 -17.92067092 87.29420589 -20.875 86.4375 C-21.473125 87.4275 -22.07125 88.4175 -22.6875 89.4375 C-23.409375 90.4275 -24.13125 91.4175 -24.875 92.4375 C-25.865 92.4375 -26.855 92.4375 -27.875 92.4375 C-27.875 80.8875 -27.875 69.3375 -27.875 57.4375 C-26.225 57.7675 -24.575 58.0975 -22.875 58.4375 C-22.65585938 59.27152344 -22.43671875 60.10554687 -22.2109375 60.96484375 C-19.1397313 71.86388039 -15.7079045 79.26160083 -5.92578125 85.34375 C-0.25959534 88.36571582 5.87017211 87.86168685 12.125 87.4375 C17.6418589 85.56570859 21.51661355 82.14251357 24.5 77.125 C25.37747409 73.35186141 25.30028563 70.1423739 24.125 66.4375 C17.84913012 59.18102545 5.22344745 58.26635308 -3.703125 56.59570312 C-11.95136178 54.8734805 -18.92246737 51.6666076 -23.8125 44.5625 C-28.25224908 36.50971373 -29.04596961 28.14970056 -26.625 19.3125 C-24.31948356 12.31016402 -20.86482974 7.78306275 -14.875 3.4375 C-9.8357209 0.89637753 -5.68251059 -0.08487489 0 0 Z " fill="#000000" transform="translate(1310.875,799.5625)"/>
<path d="M0 0 C1.32 0 2.64 0 4 0 C4 11.88 4 23.76 4 36 C12.25 36 20.5 36 29 36 C29 37.65 29 39.3 29 41 C20.75 41 12.5 41 4 41 C4.08555138 50.17103804 4.17932733 59.34189119 4.28752708 68.51269054 C4.33744261 72.77120401 4.38377302 77.02969323 4.421875 81.28833008 C4.45878781 85.3992441 4.50516395 89.50995301 4.55806351 93.6206913 C4.57657562 95.18790395 4.59169532 96.75516051 4.60334396 98.32243919 C4.62026114 100.5201041 4.64930856 102.71730254 4.68115234 104.91479492 C4.69447601 106.16499924 4.70779968 107.41520355 4.7215271 108.70329285 C4.99507454 111.94168981 5.47206676 114.14431558 7 117 C11.25699709 119.83799806 15.00371868 119.75371584 20 119 C23.86822714 117.16436472 25.73199755 114.64564226 27.375 110.6875 C27.58125 109.800625 27.7875 108.91375 28 108 C29.65 108 31.3 108 33 108 C32.59820089 113.82608707 31.95017978 117.44210025 28 122 C19.97700758 128.09549732 12.95576332 128.65576884 3 128 C-2.72054291 126.82631834 -6.97549643 124.11809667 -11 120 C-16.17947381 110.71266766 -15.13845797 99.65545044 -15.09765625 89.33984375 C-15.09578737 87.94023184 -15.09436569 86.54061927 -15.09336853 85.14100647 C-15.08958036 81.48652284 -15.0797824 77.83208 -15.06866455 74.1776123 C-15.05837016 70.43677319 -15.05385384 66.69592737 -15.04882812 62.95507812 C-15.0381562 55.63669815 -15.02059011 48.31836002 -15 41 C-19.95 41 -24.9 41 -30 41 C-30 39.68 -30 38.36 -30 37 C-28.09375 35.578125 -28.09375 35.578125 -25.5 34.25 C-12.06584889 26.65184119 -5.32623465 14.06420487 0 0 Z " fill="#000000" transform="translate(413,766)"/>
<path d="M0 0 C26.73 0 53.46 0 81 0 C79.26055588 5.79814706 77.55955504 11.43188598 75.51953125 17.1015625 C74.92168823 18.76952881 74.92168823 18.76952881 74.31176758 20.47119141 C73.81700928 21.84194824 73.32225098 23.21270508 72.8125 24.625 C71.224375 29.03875 69.63625 33.4525 68 38 C49.85 38 31.7 38 13 38 C10.03 29.75 7.06 21.5 4 13 C2.68 9.37 1.36 5.74 0 2 C0 1.34 0 0.68 0 0 Z " fill="#787878" transform="translate(1500,426)"/>
<path d="M0 0 C3.5163768 2.23769433 5.28389364 3.6797109 6.21875 7.83203125 C6.86572961 12.26531201 7.21909882 15.82188824 4.75 19.75 C2.05795295 22.51682614 0.53111136 23.63841266 -3.3125 24.1875 C-6.71795942 23.68030392 -7.97958413 23.344761 -10.25 20.75 C-11.76363298 16.69931175 -12.25 13.07552556 -12.25 8.75 C-17.30306483 10.01326621 -19.28988919 11.51031938 -22.25 15.75 C-28.37385411 28.80971098 -30.27096339 41.90065426 -30.56640625 56.16015625 C-30.58718735 57.01306747 -30.60796844 57.8659787 -30.62937927 58.74473572 C-30.69407199 61.43391911 -30.753381 64.1231889 -30.8125 66.8125 C-30.85576184 68.65039909 -30.89937839 70.48828986 -30.94335938 72.32617188 C-31.04966934 76.80069571 -31.15115562 81.27530527 -31.25 85.75 C-26.3 85.75 -21.35 85.75 -16.25 85.75 C-16.25 87.4 -16.25 89.05 -16.25 90.75 C-32.75 90.75 -49.25 90.75 -66.25 90.75 C-66.25 89.1 -66.25 87.45 -66.25 85.75 C-60.97 85.75 -55.69 85.75 -50.25 85.75 C-50.25 59.35 -50.25 32.95 -50.25 5.75 C-55.53 5.75 -60.81 5.75 -66.25 5.75 C-66.25 4.1 -66.25 2.45 -66.25 0.75 C-54.7 0.75 -43.15 0.75 -31.25 0.75 C-30.755 9.165 -30.755 9.165 -30.25 17.75 C-29.38375 16.038125 -28.5175 14.32625 -27.625 12.5625 C-23.80216246 5.60457841 -19.89149596 1.79716532 -12.26171875 -0.74609375 C-7.73058954 -1.88107563 -4.33701169 -1.66808142 0 0 Z " fill="#000000" transform="translate(1075.25,801.25)"/>
<path d="M0 0 C0.99 0 1.98 0 3 0 C3 11.88 3 23.76 3 36 C11.25 36 19.5 36 28 36 C28 37.65 28 39.3 28 41 C19.75 41 11.5 41 3 41 C3.063028 49.87580446 3.13853106 58.75126585 3.23571491 67.62676334 C3.28035347 71.74846994 3.31962368 75.87007919 3.34643555 79.99194336 C3.37253391 83.97326569 3.41298178 87.95421207 3.46318626 91.93530083 C3.47981099 93.45060979 3.49135256 94.96598371 3.49761391 96.48137093 C3.50730342 98.61175642 3.53541756 100.74118961 3.56762695 102.87133789 C3.58428154 104.68668785 3.58428154 104.68668785 3.60127258 106.53871155 C4.07812686 110.67820667 5.07294377 113.31009842 7 117 C11.06253453 119.70835635 14.23759152 119.51235788 19 119 C23.08513124 117.54750889 24.41152105 115.54185106 26.3125 111.8125 C26.8889584 110.5479371 27.45621671 109.278954 28 108 C29.65 108 31.3 108 33 108 C32.10186728 114.82890567 30.255133 119.41732477 25 124 C17.11421661 128.73147003 8.02857094 129.42183277 -0.8984375 127.31640625 C-6.51430186 125.28423912 -9.77708443 123.03580557 -13 118 C-14.83355351 113.46832861 -15.24438914 109.67334835 -15.22705078 104.80126953 C-15.22734283 104.10788986 -15.22763489 103.41451019 -15.22793579 102.70011902 C-15.22655185 100.42755243 -15.21103539 98.15532121 -15.1953125 95.8828125 C-15.19157903 94.2995522 -15.18873364 92.71628957 -15.18673706 91.13302612 C-15.17912688 86.98032167 -15.15950106 82.8277587 -15.1373291 78.67510986 C-15.11681414 74.43186354 -15.10772329 70.1885942 -15.09765625 65.9453125 C-15.07625251 57.6301364 -15.04109189 49.31510214 -15 41 C-19.95 41 -24.9 41 -30 41 C-30 39.68 -30 38.36 -30 37 C-28.34765625 35.61328125 -28.34765625 35.61328125 -26.0625 34.3125 C-13.19563102 26.20516249 -5.64247679 13.87108877 0 0 Z " fill="#000000" transform="translate(2293,766)"/>
<path d="M0 0 C11.55 0 23.1 0 35 0 C35 28.05 35 56.1 35 85 C39.95 85 44.9 85 50 85 C50 86.65 50 88.3 50 90 C33.5 90 17 90 0 90 C0 88.35 0 86.7 0 85 C5.28 85 10.56 85 16 85 C16 58.6 16 32.2 16 5 C10.72 5 5.44 5 0 5 C0 3.35 0 1.7 0 0 Z " fill="#000000" transform="translate(450,802)"/>
<path d="M0 0 C6.06684699 4.87799011 11.32665151 11.45099131 12.75 19.25 C13.76955593 31.92521998 12.99679509 41.45707655 4.625 51.5625 C-1.68609066 58.20795307 -9.46805831 62.29200897 -18.69506836 62.54272461 C-29.68564513 62.64536922 -37.55826605 60.43800535 -46.20703125 53.3046875 C-53.22736293 46.24408623 -56.25553587 37.80234511 -56.625 28 C-56.39209497 17.29862689 -53.04168347 10.08198457 -45.6171875 2.4140625 C-32.43887744 -9.63343547 -14.51987492 -10.02693249 0 0 Z M-43.0390625 9 C-48.28621748 15.20353299 -50.3326482 22.533543 -50.19140625 30.59375 C-49.14012355 39.87104892 -45.65418947 46.19104376 -39 52.625 C-33.57216389 56.93851214 -26.29327106 58.90976565 -19.38671875 58.6015625 C-11.16774442 57.24926325 -3.93063189 54.12323887 1.1484375 47.3984375 C6.19508979 39.84304476 7.72955272 32.25196555 6.75 23.25 C4.74020504 15.09047315 0.42583868 8.31637382 -6.64453125 3.6796875 C-19.65025912 -3.31263931 -32.40841507 -1.39853722 -43.0390625 9 Z " fill="#000000" transform="translate(1921.25,476.75)"/>
<path d="M0 0 C3.3 0 6.6 0 10 0 C12.64 6.93 15.28 13.86 18 21 C20.30223882 15.81996265 22.58482422 10.67000813 24.75 5.4375 C25.17796875 4.40496094 25.6059375 3.37242187 26.046875 2.30859375 C26.36140625 1.54675781 26.6759375 0.78492188 27 0 C29.97 0 32.94 0 36 0 C36 11.22 36 22.44 36 34 C34.35 34 32.7 34 31 34 C30.505 22.12 30.505 22.12 30 10 C29.40832031 11.64871094 28.81664063 13.29742188 28.20703125 14.99609375 C27.40991353 17.14362268 26.61167841 19.29073708 25.8125 21.4375 C25.42513672 22.52611328 25.03777344 23.61472656 24.63867188 24.73632812 C24.24873047 25.77080078 23.85878906 26.80527344 23.45703125 27.87109375 C23.10616455 28.82943115 22.75529785 29.78776855 22.39379883 30.77514648 C21.70386841 31.87644897 21.70386841 31.87644897 21 33 C18.525 33.495 18.525 33.495 16 34 C13.03 26.41 10.06 18.82 7 11 C6.67 18.59 6.34 26.18 6 34 C4.02 34 2.04 34 0 34 C0 22.78 0 11.56 0 0 Z " fill="#000000" transform="translate(2364,759)"/>
<path d="M0 0 C10.23 0 20.46 0 31 0 C27.625 12.375 27.625 12.375 25.51953125 18.19921875 C25.07802734 19.42705078 24.63652344 20.65488281 24.18164062 21.91992188 C23.72535398 23.17581525 23.26897268 24.43167423 22.8125 25.6875 C22.34401174 26.98618775 21.8759104 28.28501515 21.40820312 29.58398438 C20.27591396 32.72404402 19.13977817 35.86265268 18 39 C16.35 39 14.7 39 13 39 C11.14462137 33.76865214 9.29331193 28.53588935 7.44580078 23.30175781 C6.81639158 21.52043555 6.1858615 19.73950893 5.55419922 17.95898438 C4.64778152 15.40337027 3.74537104 12.84637217 2.84375 10.2890625 C2.55939087 9.49005524 2.27503174 8.69104797 1.98205566 7.86782837 C0 2.22774341 0 2.22774341 0 0 Z " fill="#787878" transform="translate(1525,497)"/>
<path d="M0 0 C3.485625 -0.061875 6.97125 -0.12375 10.5625 -0.1875 C12.18973999 -0.22846802 12.18973999 -0.22846802 13.84985352 -0.27026367 C19.68652467 -0.32019564 23.88672668 0.09599423 29 3 C31.21083009 6.55655275 31.50493469 9.87636673 31 14 C29.4375 17.3125 29.4375 17.3125 27 20 C23.34765625 20.66796875 23.34765625 20.66796875 20 21 C20.45439453 21.7113208 20.45439453 21.7113208 20.91796875 22.43701172 C22.28331246 24.58007621 23.64172139 26.72745138 25 28.875 C25.47695312 29.62136719 25.95390625 30.36773438 26.4453125 31.13671875 C26.89648438 31.85214844 27.34765625 32.56757812 27.8125 33.3046875 C28.23144531 33.96452637 28.65039062 34.62436523 29.08203125 35.30419922 C30 37 30 37 30 39 C26.80859375 39.4609375 26.80859375 39.4609375 23 39 C20.7881501 36.8618531 19.48289034 34.3323875 18.0625 31.625 C17.66482422 30.92632813 17.26714844 30.22765625 16.85742188 29.5078125 C14 24.39297816 14 24.39297816 14 22 C11.03 22 8.06 22 5 22 C5 27.61 5 33.22 5 39 C3.35 39 1.7 39 0 39 C0 26.13 0 13.26 0 0 Z M5 4 C5 8.29 5 12.58 5 17 C7.39774745 17.13572155 9.78775245 17.23436868 12.1875 17.3125 C12.86103516 17.35439453 13.53457031 17.39628906 14.22851562 17.43945312 C18.20337763 17.53640098 19.83004312 17.13356925 22.9921875 14.6484375 C25.28355093 12.19672873 25.28355093 12.19672873 24.9375 9.3125 C24.11696579 6.8572058 24.11696579 6.8572058 22 5 C18.4744746 3.71431528 14.96555437 3.90034446 11.25 3.9375 C8.15625 3.9684375 8.15625 3.9684375 5 4 Z " fill="#000000" transform="translate(1887,486)"/>
<path d="M0 0 C3.58216984 2.21027501 5.40029413 4.15509291 7 8 C7.5822518 12.22699682 7.44569111 15.92095837 5.8125 19.875 C3.06232637 23.0993415 0.9347956 24.70557458 -3.3359375 25.35546875 C-7.71910426 25.59897801 -10.97900014 25.55295812 -14.5 22.75 C-17.81208181 19.10671001 -18.85794803 17.53416132 -19.3125 12.625 C-18.89414465 7.77207799 -17.64317683 4.489129 -14 1.1875 C-9.30731286 -1.59878299 -5.15206703 -1.17709791 0 0 Z " fill="#000000" transform="translate(481,759)"/>
<path d="M0 0 C8.58 0 17.16 0 26 0 C26 1.32 26 2.64 26 4 C22.37 4 18.74 4 15 4 C15 13.9 15 23.8 15 34 C13.35 34 11.7 34 10 34 C10 24.1 10 14.2 10 4 C6.7 4 3.4 4 0 4 C0 2.68 0 1.36 0 0 Z " fill="#000000" transform="translate(2333,759)"/>
</svg>
