<?xml version="1.0" encoding="UTF-8"?>
<svg version="1.1" xmlns="http://www.w3.org/2000/svg" width="294" height="171">
<path d="M0 0 C97.02 0 194.04 0 294 0 C294 56.43 294 112.86 294 171 C196.98 171 99.96 171 0 171 C0 114.57 0 58.14 0 0 Z " fill="#FEFEFE" transform="translate(0,0)"/>
<path d="M0 0 C0.495 0.33 0.99 0.66 1.5 1 C1.5 2.98 1.5 4.96 1.5 7 C0.94570312 6.67644531 0.39140625 6.35289063 -0.1796875 6.01953125 C-2.82623921 4.85665247 -4.74468929 4.70039691 -7.625 4.6875 C-8.49382812 4.67074219 -9.36265625 4.65398438 -10.2578125 4.63671875 C-11.36769531 4.81654297 -11.36769531 4.81654297 -12.5 5 C-14.4451 7.91765 -14.95276317 9.62537285 -15.5 13 C-14.57251953 12.97905273 -13.64503906 12.95810547 -12.68945312 12.93652344 C-9.21539171 12.86794501 -5.74205989 12.81800673 -2.26757812 12.78027344 C-0.7700661 12.76028081 0.72736908 12.73307701 2.22460938 12.69824219 C19.38966232 12.30916765 19.38966232 12.30916765 26.59375 18.921875 C27.0578125 19.52515625 27.521875 20.1284375 28 20.75 C28.4846875 21.36359375 28.969375 21.9771875 29.46875 22.609375 C29.8090625 23.06828125 30.149375 23.5271875 30.5 24 C30.87125 23.0925 31.2425 22.185 31.625 21.25 C34.2687985 16.66741593 37.53618557 14.65460481 42.5 13 C44.26791252 12.88065897 46.04060644 12.82475376 47.8125 12.8125 C49.19888672 12.79123047 49.19888672 12.79123047 50.61328125 12.76953125 C54.00924333 13.04065677 56.39188402 13.56637459 59.5 15 C61.2668457 17.87329102 61.2668457 17.87329102 62.67578125 21.50390625 C62.93127243 22.14238998 63.18676361 22.78087372 63.44999695 23.43870544 C64.25877105 25.47233446 65.03612672 27.51631011 65.8125 29.5625 C66.61342971 31.60910702 67.42049013 33.65321015 68.2285614 35.69700623 C68.95573468 37.54614321 69.66828215 39.40101173 70.38012695 41.25610352 C71.23979864 43.86895998 71.23979864 43.86895998 72.5 45 C72.77674561 44.26885986 73.05349121 43.53771973 73.33862305 42.78442383 C74.6077917 39.4550022 75.89738558 36.1338584 77.1875 32.8125 C77.84008789 31.08676758 77.84008789 31.08676758 78.50585938 29.32617188 C83.23330735 17.24491594 83.23330735 17.24491594 89.96484375 13.703125 C92.76495209 12.9265156 95.15871766 12.73384544 98.0625 12.75 C98.99191406 12.74484375 99.92132813 12.7396875 100.87890625 12.734375 C103.5554462 13.00561899 105.20438282 13.63883405 107.5 15 C107.5 16.98 107.5 18.96 107.5 21 C102.75 19.125 102.75 19.125 100.5 18 C95.09416988 17.622729 95.09416988 17.622729 90 19.0625 C87.78527577 21.92318547 88.40238742 24.48188 88.5 28 C89.02956299 28.28198242 89.55912598 28.56396484 90.10473633 28.85449219 C92.51254166 30.14351129 94.91247596 31.44655445 97.3125 32.75 C98.14587891 33.1934375 98.97925781 33.636875 99.83789062 34.09375 C100.64033203 34.53203125 101.44277344 34.9703125 102.26953125 35.421875 C103.00792236 35.81987305 103.74631348 36.21787109 104.50708008 36.62792969 C107.50623431 38.69276453 109.25743202 40.77503168 109.96875 44.3671875 C110.0226096 48.68942001 110.04941724 51.99467381 107.3125 55.5 C102.4086685 59.85896133 98.41831339 60.27574305 91.9375 60.25 C90.63683594 60.25515625 89.33617187 60.2603125 87.99609375 60.265625 C84.83170587 60.02520223 83.12642478 59.68411971 80.5 58 C80.5 55.36 80.5 52.72 80.5 50 C81.03367187 50.3609375 81.56734375 50.721875 82.1171875 51.09375 C87.87205877 54.67809889 92.71068418 56.3164203 99.5 55 C102.54560766 53.04210936 103.27545847 51.99796235 104.0625 48.5 C103.26018954 44.93417575 101.43732884 44.10097799 98.5 42 C96.52583732 40.94991347 94.52417134 39.95012124 92.5 39 C88.3621393 37.05773886 84.98257299 34.9704299 81.5 32 C81.39945312 32.66225586 81.29890625 33.32451172 81.1953125 34.00683594 C80.31287928 37.80551263 78.8706019 41.30257575 77.375 44.890625 C77.06804199 45.63584412 76.76108398 46.38106323 76.44482422 47.14886475 C75.79805406 48.71634528 75.14908437 50.28291986 74.49804688 51.84863281 C73.49848118 54.25365438 72.50653531 56.66171367 71.515625 59.0703125 C70.88586193 60.59393412 70.25566869 62.11737802 69.625 63.640625 C69.32706543 64.36348694 69.02913086 65.08634888 68.72216797 65.83111572 C66.61586085 70.88413915 66.61586085 70.88413915 65.5 72 C63.50041636 72.04080783 61.49954746 72.04254356 59.5 72 C60.50160972 69.39017185 61.55991352 66.88176358 62.82421875 64.38671875 C63.27410156 63.49597656 63.72398437 62.60523438 64.1875 61.6875 C64.64511719 60.80449219 65.10273438 59.92148438 65.57421875 59.01171875 C68.11754887 50.73784736 63.74390579 43.04210718 60.46240234 35.54345703 C59.62036457 33.61438041 58.79955675 31.67719702 57.98046875 29.73828125 C57.44915161 28.50467571 56.91664185 27.27158299 56.3828125 26.0390625 C55.90215332 24.92740723 55.42149414 23.81575195 54.92626953 22.67041016 C53.63672386 19.74982704 53.63672386 19.74982704 50.5 18 C46.46135341 17.67947249 43.7166944 17.48290488 40 19.0625 C37.78527577 21.92318547 38.40238742 24.48188 38.5 28 C39.02432617 28.27674561 39.54865234 28.55349121 40.08886719 28.83862305 C42.48217819 30.11016875 44.86599314 31.39860059 47.25 32.6875 C48.075 33.12255859 48.9 33.55761719 49.75 34.00585938 C54.23970616 36.44985265 57.77728234 38.50824387 60.5 43 C61.16289309 47.10993715 61.4533862 49.42537504 59.2890625 53 C56.71000304 56.14200137 54.37758568 58.59604656 50.5 60 C46.96875 60.265625 46.96875 60.265625 43 60.25 C41.6903125 60.25515625 40.380625 60.2603125 39.03125 60.265625 C35.84757928 60.02614534 34.13897471 59.69648375 31.5 58 C31.5 55.36 31.5 52.72 31.5 50 C32.04527344 50.3609375 32.59054688 50.721875 33.15234375 51.09375 C38.65534684 54.48021344 43.01994973 56.16640905 49.5 55 C52.13926464 54.08686892 52.13926464 54.08686892 53.5 52 C54.25015195 49.04308291 54.25015195 49.04308291 53.5 46 C50.09902213 42.84018238 46.48679639 40.85584624 42.3125 38.875 C36.70705882 36.20705882 36.70705882 36.20705882 34.5 34 C34.40203125 34.70125 34.3040625 35.4025 34.203125 36.125 C32.9641436 43.98612336 31.39619892 50.03797838 25.75 55.8125 C19.95893263 59.71033381 14.8530997 61.87194616 7.796875 60.6796875 C0.64005956 58.56185436 -3.52439275 54.69894621 -7.0625 48.1875 C-10.58071002 40.27152746 -10.4446688 34.15546258 -7.5 26.0859375 C-5.96152452 22.87677381 -3.94324015 20.57530718 -1.5 18 C-5.79 17.67 -10.08 17.34 -14.5 17 C-14.5 30.86 -14.5 44.72 -14.5 59 C-16.81 59 -19.12 59 -21.5 59 C-21.5 45.14 -21.5 31.28 -21.5 17 C-23.48 17 -25.46 17 -27.5 17 C-27.5 15.68 -27.5 14.36 -27.5 13 C-25.52 13 -23.54 13 -21.5 13 C-21.438125 12.13375 -21.37625 11.2675 -21.3125 10.375 C-20.28674125 6.11415597 -18.58112371 4.08112371 -15.5 1 C-10.85035014 -1.76465667 -5.01445688 -2.00578275 0 0 Z " fill="#A5A5A5" transform="translate(129.5,50)"/>
<path d="M0 0 C5.21795396 1.94156426 7.51547192 6.26028489 10 11 C12.09336482 17.28009446 11.41696177 23.765206 9.09765625 29.9140625 C7.14340277 33.62783958 4.73349948 36.07559003 1 38 C-3.04325073 39.05010222 -6.30970503 38.90062049 -10.0234375 36.921875 C-14.53318263 33.4586952 -16.96851631 29.57558752 -18 24 C-18.61063857 17.46358714 -18.92782608 11.55313343 -15 6 C-10.16774969 0.69631064 -7.19154847 -0.72193151 0 0 Z " fill="#FEFEFE" transform="translate(145,68)"/>
<path d="M0 0 C1.98 0 3.96 0 6 0 C6.33 1.32 6.66 2.64 7 4 C7.94875 3.34 8.8975 2.68 9.875 2 C14.47969326 -0.61524161 18.82298768 -0.84574954 24 0 C28.52639668 2.22204928 30.87053535 4.46584418 33 9 C33.25239537 11.9377374 33.35087237 14.65195767 33.29296875 17.58203125 C33.28872391 18.39621017 33.28447906 19.2103891 33.28010559 20.04924011 C33.26337753 22.63733668 33.22573712 25.22464071 33.1875 27.8125 C33.17244553 29.57225434 33.15875846 31.33202095 33.14648438 33.09179688 C33.11349336 37.39483437 33.0617524 41.69728303 33 46 C30.69 46 28.38 46 26 46 C25.9906543 44.93040039 25.98130859 43.86080078 25.97167969 42.75878906 C25.93176488 38.7850603 25.86600279 34.81210456 25.79248047 30.83886719 C25.76427933 29.12021831 25.74306046 27.40143995 25.72900391 25.68261719 C25.70756167 23.20961253 25.66090844 20.73816325 25.609375 18.265625 C25.60814636 17.49881409 25.60691772 16.73200317 25.60565186 15.94195557 C25.51043396 12.46304978 25.26485552 10.36791102 23.20800781 7.51074219 C19.93641015 5.27228063 16.77982313 5.36252983 13 6 C9.25452396 7.72967713 9.25452396 7.72967713 7 11 C6.84339117 13.62380313 6.7417092 16.22524852 6.68359375 18.8515625 C6.66281265 19.62559418 6.64203156 20.39962585 6.62062073 21.19711304 C6.55516552 23.67298392 6.49625913 26.14896202 6.4375 28.625 C6.39431093 30.30209448 6.35069652 31.97917807 6.30664062 33.65625 C6.19948829 37.77072308 6.09820955 41.88530414 6 46 C4.02 46 2.04 46 0 46 C0 30.82 0 15.64 0 0 Z " fill="#A5A5A5" transform="translate(69,63)"/>
<path d="M0 0 C2.31 0 4.62 0 7 0 C7 19.8 7 39.6 7 60 C4.69 60 2.38 60 0 60 C0 40.2 0 20.4 0 0 Z " fill="#A7A7A7" transform="translate(55,49)"/>
</svg>
