<svg xmlns="http://www.w3.org/2000/svg" width="284" height="177" viewBox="0 0 284 177">
<g>
<path d="M 273.00 69.00 L 273.00 148.00 L 11.00 148.00 L 11.00 69.00 L 32.00 69.00 L 32.00 58.00 L 52.75 58.00 L 73.50 58.00 L 107.75 43.33 L 142.00 28.65 L 176.25 43.33 L 210.50 58.00 L 231.25 58.00 L 252.00 58.00 L 252.00 69.00 ZM 17.00 75.00 L 17.00 143.00 L 267.00 143.00 L 267.00 75.00 L 246.00 75.00 L 246.00 63.00 L 227.25 63.00 L 208.50 63.00 L 175.83 49.00 C157.87,41.30 142.73,35.00 142.20,35.00 C141.67,35.00 126.46,41.30 108.39,49.00 L 75.55 63.00 L 38.00 63.00 L 38.00 75.00 ZM 140.80 130.80 C140.03,131.57 136.13,132.00 130.00,132.00 C123.87,132.00 119.97,131.57 119.20,130.80 C118.34,129.94 118.00,123.64 118.00,108.80 L 118.00 88.00 L 129.00 88.00 L 129.00 122.00 L 137.00 122.00 L 137.00 88.00 L 147.00 88.00 L 147.00 122.00 L 155.00 122.00 L 155.00 88.00 L 166.00 88.00 L 166.00 108.80 C166.00,123.64 165.66,129.94 164.80,130.80 C163.17,132.43 144.83,132.43 143.20,130.80 C142.27,129.87 141.73,129.87 140.80,130.80 ZM 109.44 129.78 C107.96,131.90 107.23,132.00 93.50,132.00 C92.41,132.00 91.39,132.00 90.44,132.01 C83.76,132.04 80.16,132.06 78.22,130.27 C75.95,128.18 75.96,123.60 75.99,113.67 C76.00,112.45 76.00,111.16 76.00,109.78 C76.00,108.61 76.00,107.50 76.00,106.46 C75.97,96.53 75.96,91.92 78.25,89.80 C80.23,87.96 83.93,87.97 90.83,87.99 C91.67,88.00 92.56,88.00 93.50,88.00 C94.44,88.00 95.33,88.00 96.17,87.99 C103.07,87.97 106.77,87.96 108.75,89.80 C111.04,91.92 111.03,96.53 111.00,106.46 C111.00,107.50 111.00,108.61 111.00,109.78 C111.00,124.25 110.71,127.97 109.44,129.78 ZM 202.00 122.00 L 202.00 132.00 L 173.00 132.00 L 173.00 88.00 L 202.00 88.00 L 202.00 97.92 L 185.50 98.50 L 185.19 101.75 L 184.87 105.00 L 202.00 105.00 L 202.00 115.00 L 185.00 115.00 L 185.00 122.00 ZM 237.90 132.74 C234.95,134.25 225.23,134.21 218.50,132.65 L 213.50 131.49 L 213.19 126.12 C212.92,121.28 213.07,120.81 214.69,121.45 C215.69,121.84 219.32,122.90 222.76,123.82 C229.65,125.64 232.25,124.97 232.81,121.23 C233.06,119.55 231.61,118.38 225.04,114.96 C220.60,112.65 216.14,109.58 215.12,108.13 C211.16,102.46 211.92,95.37 217.01,90.49 C219.56,88.05 221.04,87.53 226.43,87.19 C231.73,86.85 233.80,87.22 238.42,89.33 L 244.00 91.89 L 244.00 96.44 C244.00,98.95 243.79,101.00 243.54,101.00 C243.28,101.00 240.79,100.10 238.00,99.00 C232.10,96.68 226.73,96.41 225.11,98.37 C223.08,100.81 225.09,103.02 232.57,106.57 C241.54,110.82 244.50,114.45 244.50,121.18 C244.50,126.31 242.05,130.60 237.90,132.74 ZM 71.00 122.00 L 71.00 132.00 L 41.00 132.00 L 41.00 79.00 L 53.00 79.00 L 53.00 122.00 ZM 88.00 98.00 L 88.00 122.00 L 99.00 122.00 L 99.00 98.00 ZM 213.00 89.64 C213.00,90.56 211.71,91.00 209.00,91.00 L 205.00 91.00 L 205.00 79.00 L 214.27 79.00 L 213.64 83.64 C213.29,86.19 213.00,88.89 213.00,89.64 Z" fill="rgb(4,4,4)"/>
<path d="M 0.00 88.50 L 0.00 0.00 L 142.00 0.00 L 284.00 0.00 L 284.00 88.50 L 284.00 177.00 L 142.00 177.00 L 0.00 177.00 L 0.00 88.50 ZM 273.00 108.50 L 273.00 69.00 L 262.50 69.00 L 252.00 69.00 L 252.00 63.50 L 252.00 58.00 L 231.25 58.00 L 210.50 58.00 L 176.25 43.33 L 142.00 28.65 L 107.75 43.33 L 73.50 58.00 L 52.75 58.00 L 32.00 58.00 L 32.00 63.50 L 32.00 69.00 L 21.50 69.00 L 11.00 69.00 L 11.00 108.50 L 11.00 148.00 L 142.00 148.00 L 273.00 148.00 L 273.00 108.50 ZM 17.00 109.00 L 17.00 75.00 L 27.50 75.00 L 38.00 75.00 L 38.00 69.00 L 38.00 63.00 L 56.78 63.00 L 75.55 63.00 L 108.39 49.00 C126.46,41.30 141.67,35.00 142.20,35.00 C142.73,35.00 157.87,41.30 175.83,49.00 L 208.50 63.00 L 227.25 63.00 L 246.00 63.00 L 246.00 69.00 L 246.00 75.00 L 256.50 75.00 L 267.00 75.00 L 267.00 109.00 L 267.00 143.00 L 142.00 143.00 L 17.00 143.00 L 17.00 109.00 ZM 237.90 132.74 C242.05,130.60 244.50,126.31 244.50,121.18 C244.50,114.45 241.54,110.82 232.57,106.57 C225.09,103.02 223.08,100.81 225.11,98.37 C226.73,96.41 232.10,96.68 238.00,99.00 C240.79,100.10 243.28,101.00 243.54,101.00 C243.79,101.00 244.00,98.95 244.00,96.44 L 244.00 91.89 L 238.42 89.33 C233.80,87.22 231.73,86.85 226.43,87.19 C221.04,87.53 219.56,88.05 217.01,90.49 C211.92,95.37 211.16,102.46 215.12,108.13 C216.14,109.58 220.60,112.65 225.04,114.96 C231.61,118.38 233.06,119.55 232.81,121.23 C232.25,124.97 229.65,125.64 222.76,123.82 C219.32,122.90 215.69,121.84 214.69,121.45 C213.07,120.81 212.92,121.28 213.19,126.12 L 213.50 131.49 L 218.50 132.65 C225.23,134.21 234.95,134.25 237.90,132.74 ZM 71.00 127.00 L 71.00 122.00 L 62.00 122.00 L 53.00 122.00 L 53.00 100.50 L 53.00 79.00 L 47.00 79.00 L 41.00 79.00 L 41.00 105.50 L 41.00 132.00 L 56.00 132.00 L 71.00 132.00 L 71.00 127.00 ZM 109.44 129.78 C110.71,127.97 111.00,124.25 111.00,109.78 C111.00,86.77 111.99,88.00 93.50,88.00 C75.01,88.00 76.00,86.77 76.00,109.78 C76.00,133.46 74.85,132.00 93.50,132.00 C107.23,132.00 107.96,131.90 109.44,129.78 ZM 140.80 130.80 C141.73,129.87 142.27,129.87 143.20,130.80 C144.83,132.43 163.17,132.43 164.80,130.80 C165.66,129.94 166.00,123.64 166.00,108.80 L 166.00 88.00 L 160.50 88.00 L 155.00 88.00 L 155.00 105.00 L 155.00 122.00 L 151.00 122.00 L 147.00 122.00 L 147.00 105.00 L 147.00 88.00 L 142.00 88.00 L 137.00 88.00 L 137.00 105.00 L 137.00 122.00 L 133.00 122.00 L 129.00 122.00 L 129.00 105.00 L 129.00 88.00 L 123.50 88.00 L 118.00 88.00 L 118.00 108.80 C118.00,123.64 118.34,129.94 119.20,130.80 C119.97,131.57 123.87,132.00 130.00,132.00 C136.13,132.00 140.03,131.57 140.80,130.80 ZM 202.00 127.00 L 202.00 122.00 L 193.50 122.00 L 185.00 122.00 L 185.00 118.50 L 185.00 115.00 L 193.50 115.00 L 202.00 115.00 L 202.00 110.00 L 202.00 105.00 L 193.44 105.00 L 184.87 105.00 L 185.19 101.75 L 185.50 98.50 L 193.75 98.21 L 202.00 97.92 L 202.00 92.96 L 202.00 88.00 L 187.50 88.00 L 173.00 88.00 L 173.00 110.00 L 173.00 132.00 L 187.50 132.00 L 202.00 132.00 L 202.00 127.00 ZM 213.00 89.64 C213.00,88.89 213.29,86.19 213.64,83.64 L 214.27 79.00 L 209.64 79.00 L 205.00 79.00 L 205.00 85.00 L 205.00 91.00 L 209.00 91.00 C211.71,91.00 213.00,90.56 213.00,89.64 ZM 88.00 110.00 L 88.00 98.00 L 93.50 98.00 L 99.00 98.00 L 99.00 110.00 L 99.00 122.00 L 93.50 122.00 L 88.00 122.00 L 88.00 110.00 Z" fill="rgb(253,253,253)"/>
</g>
</svg>