<svg xmlns="http://www.w3.org/2000/svg" width="225" height="225" viewBox="0 0 225 225">
<g>
<path d="M 0.06 182.25 L 0.00 225.00 L 0.00 0.00 L 0.14 132.50 L 2.05 124.76 C5.83,109.35 18.57,84.90 26.12,78.56 C27.79,77.15 30.21,76.00 31.50,76.00 C36.09,76.00 43.98,85.10 50.42,97.84 L 53.13 103.18 L 58.98 93.28 C65.22,82.72 71.57,76.00 75.29,76.00 C77.87,76.00 84.00,81.94 88.73,89.00 C96.22,100.20 103.78,118.49 105.97,130.74 C109.00,147.70 96.95,155.24 86.56,142.89 C83.32,139.04 78.69,130.06 76.96,124.25 C75.68,119.98 74.00,118.53 74.00,121.70 C74.00,122.64 72.00,127.51 69.56,132.53 C64.20,143.54 58.88,149.00 53.47,149.00 C46.76,149.00 39.18,139.73 33.92,125.10 L 31.62 118.70 L 29.96 123.60 C26.06,135.06 19.84,145.00 15.00,147.50 C8.98,150.61 3.73,148.53 1.12,142.00 C0.44,140.28 0.11,152.78 0.06,182.25 ZM 121.10 117.25 C121.01,122.30 120.76,123.00 119.00,123.00 C117.20,123.00 117.01,122.37 117.11,116.75 C117.17,113.31 117.51,107.80 117.86,104.50 C118.48,98.68 118.59,98.50 121.42,98.50 C124.20,98.50 124.47,98.91 127.28,107.34 C128.90,112.20 130.57,115.80 130.99,115.34 C131.41,114.88 132.97,110.79 134.46,106.25 C137.03,98.42 137.31,98.00 140.08,98.00 C142.77,98.00 143.01,98.29 143.09,101.75 C143.13,103.81 143.47,109.44 143.84,114.25 C144.49,122.73 144.44,123.00 142.38,123.00 C140.43,123.00 140.16,122.24 139.34,114.25 L 138.44 105.50 L 135.52 114.25 C133.01,121.73 132.27,123.00 130.38,123.00 C128.50,123.00 127.75,121.76 125.40,114.75 C123.04,107.71 122.52,106.87 121.91,109.00 C121.52,110.38 121.15,114.09 121.10,117.25 ZM 225.00 123.23 L 222.30 122.72 C220.82,122.43 218.51,122.62 217.17,123.13 C215.39,123.80 214.08,123.63 212.37,122.50 C207.77,119.49 210.65,113.72 217.38,112.46 C219.94,111.98 220.71,111.40 220.28,110.29 C219.85,109.17 218.71,108.91 215.92,109.28 C213.27,109.64 211.98,109.38 211.61,108.43 C210.88,106.53 212.32,105.87 217.61,105.67 C221.09,105.54 222.49,105.96 223.58,107.44 C224.81,109.13 225.00,102.17 225.00,54.69 L 225.00 123.23 ZM 153.45 129.38 C150.57,130.49 149.00,130.04 149.00,128.12 C149.00,127.07 149.89,126.00 151.00,125.71 C153.64,125.02 153.53,122.66 150.50,114.60 C147.49,106.60 147.45,106.00 149.95,106.00 C151.43,106.00 152.31,107.30 153.62,111.45 C154.56,114.46 155.67,116.71 156.07,116.46 C156.47,116.21 157.34,113.75 158.00,111.00 C159.02,106.75 159.55,106.00 161.56,106.00 L 163.91 106.00 L 160.44 115.60 C156.26,127.14 155.53,128.58 153.45,129.38 ZM 6.48 119.00 C5.25,123.21 6.61,120.86 9.71,113.42 C14.04,103.05 21.88,90.36 26.75,85.87 C30.92,82.03 31.06,81.98 33.97,83.49 C35.83,84.44 39.49,88.91 43.72,95.39 C47.45,101.09 51.07,106.60 51.76,107.63 C52.45,108.66 51.37,106.12 49.37,102.00 C42.08,86.99 33.70,77.02 30.04,78.98 C24.27,82.07 10.39,105.66 6.48,119.00 ZM 100.08 121.76 C100.76,124.10 101.52,125.81 101.76,125.57 C103.62,123.72 89.32,93.43 82.49,84.75 C76.85,77.57 74.78,77.35 69.28,83.31 C65.26,87.67 58.06,99.22 55.42,105.54 C53.14,110.99 54.49,109.60 58.43,102.43 C63.08,93.97 69.39,85.45 72.53,83.39 C74.81,81.89 75.19,81.90 77.54,83.43 C83.32,87.22 96.57,109.76 100.08,121.76 ZM 171.00 117.12 C171.00,122.33 170.77,123.00 169.00,123.00 C167.16,123.00 167.00,122.33 167.00,114.50 C167.00,107.77 167.30,106.00 168.44,106.00 C169.23,106.00 170.14,106.42 170.46,106.93 C170.79,107.48 172.12,107.30 173.64,106.51 C175.24,105.68 177.07,105.46 178.38,105.94 C180.27,106.64 180.53,107.62 180.79,114.86 C181.06,122.48 180.95,123.00 179.04,123.00 C177.19,123.00 177.00,122.38 177.00,116.47 C177.00,111.56 176.62,109.79 175.49,109.36 C172.57,108.24 171.00,110.95 171.00,117.12 ZM 193.42 123.39 C192.55,123.73 191.76,123.97 191.67,123.94 C187.00,122.18 187.00,122.17 187.00,116.00 C187.00,111.53 186.61,109.79 185.50,109.36 C184.68,109.05 184.00,108.16 184.00,107.39 C184.00,106.63 184.68,106.00 185.50,106.00 C187.00,100.67 187.44,100.00 189.00,100.00 C190.56,100.00 191.00,100.67 191.00,103.00 C191.00,105.33 191.44,106.00 193.00,106.00 C194.11,106.00 195.00,106.67 195.00,107.50 C195.00,108.33 194.11,109.00 193.00,109.00 C191.26,109.00 191.00,109.67 191.00,114.09 C191.00,118.35 191.33,119.27 193.00,119.71 C195.39,120.33 195.64,122.54 193.42,123.39 ZM 203.00 117.41 C203.00,122.33 202.76,123.00 201.00,123.00 C199.16,123.00 199.00,122.33 199.00,114.50 C199.00,107.83 199.31,106.00 200.42,106.00 C201.20,106.00 202.02,106.56 202.25,107.25 C202.58,108.23 203.04,108.20 204.32,107.14 C206.19,105.60 209.00,106.27 209.00,108.25 C209.00,108.97 207.65,110.07 206.00,110.69 C203.16,111.77 203.00,112.12 203.00,117.41 ZM 214.47 118.96 C215.89,121.25 221.00,119.64 221.00,116.89 C221.00,115.57 220.29,115.00 218.62,115.00 C215.96,115.00 213.49,117.36 214.47,118.96 Z" fill="rgb(75,77,86)"/>
<path d="M 0.06 182.25 C0.11,152.78 0.44,140.28 1.12,142.00 C3.73,148.53 8.98,150.61 15.00,147.50 C19.84,145.00 26.06,135.06 29.96,123.60 L 31.62 118.70 L 33.92 125.10 C39.18,139.73 46.76,149.00 53.47,149.00 C58.88,149.00 64.20,143.54 69.56,132.53 C72.00,127.51 74.00,122.64 74.00,121.70 C74.00,118.53 75.68,119.98 76.96,124.25 C78.69,130.06 83.32,139.04 86.56,142.89 C96.95,155.24 109.00,147.70 105.97,130.74 C103.78,118.49 96.22,100.20 88.73,89.00 C84.00,81.94 77.87,76.00 75.29,76.00 C71.57,76.00 65.22,82.72 58.98,93.28 L 53.13 103.18 L 50.42 97.84 C43.98,85.10 36.09,76.00 31.50,76.00 C30.21,76.00 27.79,77.15 26.12,78.56 C18.57,84.90 5.83,109.35 2.05,124.76 L 0.14 132.50 L 0.07 66.25 L 0.00 0.00 L 112.50 0.00 L 225.00 0.00 L 225.00 54.69 C225.00,102.17 224.81,109.13 223.58,107.44 C222.49,105.96 221.09,105.54 217.61,105.67 C212.32,105.87 210.88,106.53 211.61,108.43 C211.98,109.38 213.27,109.64 215.92,109.28 C218.71,108.91 219.85,109.17 220.28,110.29 C220.71,111.40 219.94,111.98 217.38,112.46 C210.65,113.72 207.77,119.49 212.37,122.50 C214.08,123.63 215.39,123.80 217.17,123.13 C218.51,122.62 220.82,122.43 222.30,122.72 L 225.00 123.23 L 225.00 174.12 L 225.00 225.00 L 112.50 225.00 L 0.00 225.00 L 0.06 182.25 ZM 153.45 129.38 C155.53,128.58 156.26,127.14 160.44,115.60 L 163.91 106.00 L 161.56 106.00 C159.55,106.00 159.02,106.75 158.00,111.00 C157.34,113.75 156.47,116.21 156.07,116.46 C155.67,116.71 154.56,114.46 153.62,111.45 C152.31,107.30 151.43,106.00 149.95,106.00 C147.45,106.00 147.49,106.60 150.50,114.60 C153.53,122.66 153.64,125.02 151.00,125.71 C149.89,126.00 149.00,127.07 149.00,128.12 C149.00,130.04 150.57,130.49 153.45,129.38 ZM 193.42 123.39 C195.64,122.54 195.39,120.33 193.00,119.71 C191.33,119.27 191.00,118.35 191.00,114.09 C191.00,109.67 191.26,109.00 193.00,109.00 C194.11,109.00 195.00,108.33 195.00,107.50 C195.00,106.67 194.11,106.00 193.00,106.00 C191.44,106.00 191.00,105.33 191.00,103.00 C191.00,100.67 190.56,100.00 189.00,100.00 C187.44,100.00 187.00,100.67 187.00,103.00 C187.00,105.00 186.50,106.00 185.50,106.00 C184.68,106.00 184.00,106.63 184.00,107.39 C184.00,108.16 184.68,109.05 185.50,109.36 C186.61,109.79 187.00,111.53 187.00,116.00 C187.00,122.17 187.00,122.18 191.67,123.94 C191.76,123.97 192.55,123.73 193.42,123.39 ZM 121.10 117.25 C121.15,114.09 121.52,110.38 121.91,109.00 C122.52,106.87 123.04,107.71 125.40,114.75 C127.75,121.76 128.50,123.00 130.38,123.00 C132.27,123.00 133.01,121.73 135.52,114.25 L 138.44 105.50 L 139.34 114.25 C140.16,122.24 140.43,123.00 142.38,123.00 C144.44,123.00 144.49,122.73 143.84,114.25 C143.47,109.44 143.13,103.81 143.09,101.75 C143.01,98.29 142.77,98.00 140.08,98.00 C137.31,98.00 137.03,98.42 134.46,106.25 C132.97,110.79 131.41,114.88 130.99,115.34 C130.57,115.80 128.90,112.20 127.28,107.34 C124.47,98.91 124.20,98.50 121.42,98.50 C118.59,98.50 118.48,98.68 117.86,104.50 C117.51,107.80 117.17,113.31 117.11,116.75 C117.01,122.37 117.20,123.00 119.00,123.00 C120.76,123.00 121.01,122.30 121.10,117.25 ZM 171.00 117.12 C171.00,110.95 172.57,108.24 175.49,109.36 C176.62,109.79 177.00,111.56 177.00,116.47 C177.00,122.38 177.19,123.00 179.04,123.00 C180.95,123.00 181.06,122.48 180.79,114.86 C180.53,107.62 180.27,106.64 178.38,105.94 C177.07,105.46 175.24,105.68 173.64,106.51 C172.12,107.30 170.79,107.48 170.46,106.93 C170.14,106.42 169.23,106.00 168.44,106.00 C167.30,106.00 167.00,107.77 167.00,114.50 C167.00,122.33 167.16,123.00 169.00,123.00 C170.77,123.00 171.00,122.33 171.00,117.12 ZM 203.00 117.41 C203.00,112.12 203.16,111.77 206.00,110.69 C207.65,110.07 209.00,108.97 209.00,108.25 C209.00,106.27 206.19,105.60 204.32,107.14 C203.04,108.20 202.58,108.23 202.25,107.25 C202.02,106.56 201.20,106.00 200.42,106.00 C199.31,106.00 199.00,107.83 199.00,114.50 C199.00,122.33 199.16,123.00 201.00,123.00 C202.76,123.00 203.00,122.33 203.00,117.41 ZM 100.08 121.76 C96.57,109.76 83.32,87.22 77.54,83.43 C75.19,81.90 74.81,81.89 72.53,83.39 C69.39,85.45 63.08,93.97 58.43,102.43 C54.49,109.60 53.14,110.99 55.42,105.54 C58.06,99.22 65.26,87.67 69.28,83.31 C74.78,77.35 76.85,77.57 82.49,84.75 C89.32,93.43 103.62,123.72 101.76,125.57 C101.52,125.81 100.76,124.10 100.08,121.76 ZM 6.48 119.00 C10.39,105.66 24.27,82.07 30.04,78.98 C33.70,77.02 42.08,86.99 49.37,102.00 C51.37,106.12 52.45,108.66 51.76,107.63 C51.07,106.60 47.45,101.09 43.72,95.39 C39.49,88.91 35.83,84.44 33.97,83.49 C31.06,81.98 30.92,82.03 26.75,85.87 C21.88,90.36 14.04,103.05 9.71,113.42 C6.61,120.86 5.25,123.21 6.48,119.00 ZM 214.47 118.96 C213.49,117.36 215.96,115.00 218.62,115.00 C220.29,115.00 221.00,115.57 221.00,116.89 C221.00,119.64 215.89,121.25 214.47,118.96 Z" fill="rgb(254,254,254)"/>
</g>
</svg>