<svg xmlns="http://www.w3.org/2000/svg" width="294" height="171" viewBox="0 0 294 171">
<g>
<path d="M 198.24 104.46 C191.31,109.05 180.63,108.54 174.79,103.35 C171.77,100.65 169.04,94.10 169.04,89.50 C169.04,84.99 171.75,78.36 174.65,75.79 C179.82,71.19 188.26,69.83 194.75,72.54 C199.70,74.61 201.93,76.74 204.12,81.50 C207.90,89.74 205.33,99.77 198.24,104.46 ZM 89.80 105.29 C81.79,109.09 73.03,107.96 67.47,102.40 C60.19,95.13 60.50,82.30 68.12,75.32 C75.09,68.92 87.16,69.65 93.21,76.83 C95.37,79.41 98.00,87.20 98.00,91.05 C98.00,91.60 92.74,92.00 85.50,92.00 C71.72,92.00 70.55,92.64 75.45,97.55 C78.47,100.56 83.00,100.76 85.50,98.00 C86.84,96.52 88.58,96.00 92.15,96.00 C94.82,96.00 97.00,96.34 97.00,96.75 C96.99,98.90 92.81,103.86 89.80,105.29 ZM 219.00 95.72 L 219.00 107.00 L 214.17 107.00 C211.51,107.00 209.03,106.70 208.67,106.33 C208.30,105.97 208.00,98.09 208.00,88.83 L 208.00 72.00 L 213.50 72.00 C218.41,72.00 219.00,72.22 219.00,74.09 C219.00,76.10 219.12,76.08 222.08,73.59 C226.77,69.64 233.13,69.93 237.50,74.30 C241.38,78.18 242.31,83.18 241.81,97.50 L 241.50 106.50 L 231.00 107.10 L 231.00 95.12 C231.00,81.86 230.26,80.00 224.99,80.00 C220.09,80.00 219.00,82.87 219.00,95.72 ZM 168.50 98.50 L 168.50 106.50 L 139.00 107.05 L 139.00 102.74 C139.00,98.76 139.62,97.72 146.98,89.46 L 154.97 80.50 L 139.00 79.92 L 139.00 72.00 L 168.00 72.00 L 168.00 75.87 C168.00,79.29 167.08,80.78 160.11,88.62 L 152.21 97.50 ZM 58.11 89.53 L 52.23 106.50 L 46.74 106.80 C42.21,107.04 41.13,106.78 40.56,105.30 C40.17,104.31 37.67,97.20 35.00,89.50 C32.33,81.80 29.83,74.71 29.46,73.75 C28.87,72.21 29.46,72.00 34.33,72.00 L 39.88 72.00 L 42.49 80.75 C43.93,85.56 45.47,90.62 45.90,92.00 C46.59,94.15 47.06,93.31 49.29,86.00 C50.71,81.32 52.18,76.26 52.55,74.75 C53.17,72.17 53.56,72.00 58.61,72.00 C61.57,72.00 64.00,72.12 64.00,72.28 C64.00,72.43 61.35,80.19 58.11,89.53 ZM 111.00 96.45 L 111.00 107.00 L 106.17 107.00 C103.51,107.00 101.03,106.70 100.67,106.33 C100.30,105.97 100.00,98.09 100.00,88.83 L 100.00 72.00 L 105.00 72.00 C109.71,72.00 110.00,72.15 110.00,74.59 L 110.00 77.18 L 113.08 74.59 C114.85,73.10 117.39,72.00 119.08,72.00 C121.87,72.00 122.00,72.19 122.00,76.50 C122.00,80.85 121.90,81.00 118.95,81.00 C117.05,81.00 114.99,81.92 113.45,83.45 C111.16,85.75 111.00,86.59 111.00,96.45 ZM 136.00 72.00 L 136.00 107.00 L 125.00 107.00 L 125.00 72.00 ZM 182.45 97.55 C185.38,100.47 188.93,100.69 192.06,98.15 C195.49,95.38 196.06,85.60 193.03,81.75 C190.06,77.99 184.98,77.94 182.07,81.63 C178.95,85.61 179.16,94.25 182.45,97.55 ZM 262.15 71.70 C255.32,86.32 253.98,88.54 251.81,88.80 C249.59,89.07 248.95,88.30 246.04,81.80 C244.24,77.79 242.54,73.94 242.28,73.25 C241.96,72.45 242.70,72.00 244.33,72.00 C246.42,72.00 247.30,72.93 249.29,77.25 L 251.71 82.50 L 255.96 73.50 C258.30,68.55 261.29,62.14 262.60,59.25 C264.55,54.94 265.43,54.00 267.49,54.00 C268.87,54.00 270.00,54.20 270.00,54.45 C270.00,54.69 266.47,62.45 262.15,71.70 ZM 136.00 64.67 L 136.00 69.00 L 125.00 69.00 L 125.00 60.19 L 130.08 59.85 C132.88,59.66 135.35,59.69 135.58,59.92 C135.81,60.15 136.00,62.28 136.00,64.67 ZM 73.00 84.11 C73.00,84.60 76.15,85.00 80.00,85.00 C83.85,85.00 87.00,84.60 87.00,84.11 C87.00,81.68 83.13,78.67 80.00,78.67 C76.87,78.67 73.00,81.68 73.00,84.11 Z" fill="rgb(165,165,165)"/>
<path d="M 0.00 85.50 L 0.00 0.00 L 147.00 0.00 L 294.00 0.00 L 294.00 85.50 L 294.00 171.00 L 147.00 171.00 L 0.00 171.00 L 0.00 85.50 ZM 89.80 105.29 C92.81,103.86 96.99,98.90 97.00,96.75 C97.00,96.34 94.82,96.00 92.15,96.00 C88.58,96.00 86.84,96.52 85.50,98.00 C83.00,100.76 78.47,100.56 75.45,97.55 C70.55,92.64 71.72,92.00 85.50,92.00 C92.74,92.00 98.00,91.60 98.00,91.05 C98.00,87.20 95.37,79.41 93.21,76.83 C87.16,69.65 75.09,68.92 68.12,75.32 C60.50,82.30 60.19,95.13 67.47,102.40 C73.03,107.96 81.79,109.09 89.80,105.29 ZM 198.24 104.46 C205.33,99.77 207.90,89.74 204.12,81.50 C201.93,76.74 199.70,74.61 194.75,72.54 C188.26,69.83 179.82,71.19 174.65,75.79 C171.75,78.36 169.04,84.99 169.04,89.50 C169.04,94.10 171.77,100.65 174.79,103.35 C180.63,108.54 191.31,109.05 198.24,104.46 ZM 58.11 89.53 C61.35,80.19 64.00,72.43 64.00,72.28 C64.00,72.12 61.57,72.00 58.61,72.00 C53.56,72.00 53.17,72.17 52.55,74.75 C52.18,76.26 50.71,81.32 49.29,86.00 C47.06,93.31 46.59,94.15 45.90,92.00 C45.47,90.62 43.93,85.56 42.49,80.75 L 39.88 72.00 L 34.33 72.00 C29.46,72.00 28.87,72.21 29.46,73.75 C29.83,74.71 32.33,81.80 35.00,89.50 C37.67,97.20 40.17,104.31 40.56,105.30 C41.13,106.78 42.21,107.04 46.74,106.80 L 52.23 106.50 L 58.11 89.53 ZM 111.00 96.45 C111.00,86.59 111.16,85.75 113.45,83.45 C114.99,81.92 117.05,81.00 118.95,81.00 C121.90,81.00 122.00,80.85 122.00,76.50 C122.00,72.19 121.87,72.00 119.08,72.00 C117.39,72.00 114.85,73.10 113.08,74.59 L 110.00 77.18 L 110.00 74.59 C110.00,72.15 109.71,72.00 105.00,72.00 L 100.00 72.00 L 100.00 88.83 C100.00,98.09 100.30,105.97 100.67,106.33 C101.03,106.70 103.51,107.00 106.17,107.00 L 111.00 107.00 L 111.00 96.45 ZM 136.00 89.50 L 136.00 72.00 L 130.50 72.00 L 125.00 72.00 L 125.00 89.50 L 125.00 107.00 L 130.50 107.00 L 136.00 107.00 L 136.00 89.50 ZM 168.50 102.50 L 168.50 98.50 L 160.36 98.00 L 152.21 97.50 L 160.11 88.62 C167.08,80.78 168.00,79.29 168.00,75.87 L 168.00 72.00 L 153.50 72.00 L 139.00 72.00 L 139.00 75.96 L 139.00 79.92 L 146.98 80.21 L 154.97 80.50 L 146.98 89.46 C139.62,97.72 139.00,98.76 139.00,102.74 L 139.00 107.05 L 153.75 106.78 L 168.50 106.50 L 168.50 102.50 ZM 219.00 95.72 C219.00,82.87 220.09,80.00 224.99,80.00 C230.26,80.00 231.00,81.86 231.00,95.12 L 231.00 107.10 L 236.25 106.80 L 241.50 106.50 L 241.81 97.50 C242.31,83.18 241.38,78.18 237.50,74.30 C233.13,69.93 226.77,69.64 222.08,73.59 C219.12,76.08 219.00,76.10 219.00,74.09 C219.00,72.22 218.41,72.00 213.50,72.00 L 208.00 72.00 L 208.00 88.83 C208.00,98.09 208.30,105.97 208.67,106.33 C209.03,106.70 211.51,107.00 214.17,107.00 L 219.00 107.00 L 219.00 95.72 ZM 262.15 71.70 C266.47,62.45 270.00,54.69 270.00,54.45 C270.00,54.20 268.87,54.00 267.49,54.00 C265.43,54.00 264.55,54.94 262.60,59.25 C261.29,62.14 258.30,68.55 255.96,73.50 L 251.71 82.50 L 249.29 77.25 C247.30,72.93 246.42,72.00 244.33,72.00 C242.70,72.00 241.96,72.45 242.28,73.25 C242.54,73.94 244.24,77.79 246.04,81.80 C248.95,88.30 249.59,89.07 251.81,88.80 C253.98,88.54 255.32,86.32 262.15,71.70 ZM 136.00 64.67 C136.00,62.28 135.81,60.15 135.58,59.92 C135.35,59.69 132.88,59.66 130.08,59.85 L 125.00 60.19 L 125.00 64.60 L 125.00 69.00 L 130.50 69.00 L 136.00 69.00 L 136.00 64.67 ZM 73.00 84.11 C73.00,81.68 76.87,78.67 80.00,78.67 C83.13,78.67 87.00,81.68 87.00,84.11 C87.00,84.60 83.85,85.00 80.00,85.00 C76.15,85.00 73.00,84.60 73.00,84.11 ZM 182.45 97.55 C179.16,94.25 178.95,85.61 182.07,81.63 C184.98,77.94 190.06,77.99 193.03,81.75 C196.06,85.60 195.49,95.38 192.06,98.15 C188.93,100.69 185.38,100.47 182.45,97.55 Z" fill="rgb(254,254,254)"/>
</g>
</svg>