<svg xmlns="http://www.w3.org/2000/svg" width="222" height="227" viewBox="0 0 222 227">
<g>
<path d="M 161.97 109.00 L 157.60 118.00 L 140.93 118.00 L 146.19 108.25 C149.08,102.89 155.76,90.40 161.02,80.50 L 170.58 62.50 L 180.79 62.22 C186.41,62.06 191.00,62.31 191.00,62.77 C191.00,63.80 194.74,105.55 195.48,112.79 L 196.03 118.08 L 188.26 117.79 L 180.50 117.50 L 179.89 109.00 ZM 47.00 159.30 C43.42,160.66 38.14,162.72 35.25,163.87 C26.18,167.50 29.50,164.12 39.64,159.41 C72.08,144.35 102.23,135.27 132.59,131.42 C146.42,129.67 177.90,129.09 189.25,130.39 L 196.00 131.16 L 195.98 138.83 C195.97,144.24 195.98,146.91 194.68,147.98 C193.42,149.02 190.93,148.56 186.02,147.67 L 185.89 147.65 C139.66,139.23 88.32,143.54 47.00,159.30 ZM 63.17 90.84 L 47.83 118.00 L 39.92 118.00 C33.81,118.00 32.00,117.68 32.00,116.61 C32.00,110.18 26.68,71.28 25.48,68.97 C23.82,65.75 21.21,64.00 18.07,64.00 C16.93,64.00 16.00,63.54 16.00,62.97 C16.00,62.30 20.49,62.04 28.75,62.22 L 41.50 62.50 L 42.55 78.71 C43.12,87.63 43.80,95.11 44.05,95.34 C44.30,95.57 48.78,88.16 54.00,78.89 L 63.50 62.02 L 71.33 62.01 C75.64,62.00 79.02,62.38 78.83,62.84 C78.65,63.30 71.60,75.90 63.17,90.84 ZM 128.10 117.86 C124.78,118.98 111.47,119.25 107.50,118.28 C103.70,117.36 96.00,113.75 96.00,112.89 C96.00,112.14 101.90,101.99 102.34,102.00 C102.43,102.01 104.71,103.13 107.42,104.50 C119.82,110.80 132.73,104.32 121.75,97.31 C114.47,92.67 109.03,87.96 107.48,84.97 C104.39,78.98 106.31,71.57 112.34,66.28 C116.92,62.25 122.80,60.64 130.64,61.26 C136.58,61.74 148.05,65.99 147.96,67.69 C147.94,68.14 146.18,70.42 144.07,72.76 L 140.21 77.02 L 135.15 74.39 C129.41,71.41 123.79,71.66 122.02,74.97 C120.46,77.89 121.65,79.53 128.58,84.05 C141.10,92.21 144.08,98.30 139.90,107.21 C137.38,112.60 133.58,116.03 128.10,117.86 ZM 93.70 90.50 L 85.42 117.50 L 78.21 117.79 C72.62,118.02 71.00,117.78 71.00,116.71 C71.00,115.96 74.60,103.51 79.00,89.06 C83.40,74.61 87.00,62.61 87.00,62.39 C87.00,62.18 90.38,62.00 94.50,62.00 C98.62,62.00 101.99,62.34 101.98,62.75 C101.98,63.16 98.25,75.65 93.70,90.50 ZM 167.00 98.58 C167.00,98.81 169.81,99.00 173.25,99.00 L 179.50 99.00 L 179.19 85.89 C179.02,78.68 178.72,72.95 178.52,73.15 C178.05,73.62 167.00,98.01 167.00,98.58 Z" fill="rgb(34,34,32)"/>
<path d="M 0.00 113.50 L 0.00 0.00 L 111.00 0.00 L 222.00 0.00 L 222.00 113.50 L 222.00 227.00 L 111.00 227.00 L 0.00 227.00 L 0.00 113.50 ZM 47.00 159.30 C88.32,143.54 139.66,139.23 185.89,147.65 C196.01,149.49 195.96,149.53 195.98,138.83 L 196.00 131.16 L 189.25 130.39 C177.90,129.09 146.42,129.67 132.59,131.42 C102.23,135.27 72.08,144.35 39.64,159.41 C29.50,164.12 26.18,167.50 35.25,163.87 C38.14,162.72 43.42,160.66 47.00,159.30 ZM 128.10 117.86 C133.58,116.03 137.38,112.60 139.90,107.21 C144.08,98.30 141.10,92.21 128.58,84.05 C121.65,79.53 120.46,77.89 122.02,74.97 C123.79,71.66 129.41,71.41 135.15,74.39 L 140.21 77.02 L 144.07 72.76 C146.18,70.42 147.94,68.14 147.96,67.69 C148.05,65.99 136.58,61.74 130.64,61.26 C122.80,60.64 116.92,62.25 112.34,66.28 C106.31,71.57 104.39,78.98 107.48,84.97 C109.03,87.96 114.47,92.67 121.75,97.31 C132.73,104.32 119.82,110.80 107.42,104.50 C104.71,103.13 102.43,102.01 102.34,102.00 C101.90,101.99 96.00,112.14 96.00,112.89 C96.00,113.75 103.70,117.36 107.50,118.28 C111.47,119.25 124.78,118.98 128.10,117.86 ZM 63.17 90.84 C71.60,75.90 78.65,63.30 78.83,62.84 C79.02,62.38 75.64,62.00 71.33,62.01 L 63.50 62.02 L 54.00 78.89 C48.78,88.16 44.30,95.57 44.05,95.34 C43.80,95.11 43.12,87.63 42.55,78.71 L 41.50 62.50 L 28.75 62.22 C20.49,62.04 16.00,62.30 16.00,62.97 C16.00,63.54 16.93,64.00 18.07,64.00 C21.21,64.00 23.82,65.75 25.48,68.97 C26.68,71.28 32.00,110.18 32.00,116.61 C32.00,117.68 33.81,118.00 39.92,118.00 L 47.83 118.00 L 63.17 90.84 ZM 93.70 90.50 C98.25,75.65 101.98,63.16 101.98,62.75 C101.99,62.34 98.62,62.00 94.50,62.00 C90.38,62.00 87.00,62.18 87.00,62.39 C87.00,62.61 83.40,74.61 79.00,89.06 C74.60,103.51 71.00,115.96 71.00,116.71 C71.00,117.78 72.62,118.02 78.21,117.79 L 85.42 117.50 L 93.70 90.50 ZM 159.79 113.50 L 161.97 109.00 L 170.93 109.00 L 179.89 109.00 L 180.19 113.25 L 180.50 117.50 L 188.26 117.79 L 196.03 118.08 L 195.48 112.79 C194.74,105.55 191.00,63.80 191.00,62.77 C191.00,62.31 186.41,62.06 180.79,62.22 L 170.58 62.50 L 161.02 80.50 C155.76,90.40 149.08,102.89 146.19,108.25 L 140.93 118.00 L 149.27 118.00 L 157.60 118.00 L 159.79 113.50 ZM 167.00 98.58 C167.00,98.01 178.05,73.62 178.52,73.15 C178.72,72.95 179.02,78.68 179.19,85.89 L 179.50 99.00 L 173.25 99.00 C169.81,99.00 167.00,98.81 167.00,98.58 Z" fill="rgb(244,244,244)"/>
</g>
</svg>